<?xml version="1.0" standalone="no"?>
<!DOCTYPE svg PUBLIC "-//W3C//DTD SVG 1.1//EN" "http://www.w3.org/Graphics/SVG/1.1/DTD/svg11.dtd" >
<svg xmlns="http://www.w3.org/2000/svg">
<metadata></metadata>
<defs>
<font id="robotolight_italic" horiz-adv-x="1050" >
<font-face units-per-em="2048" ascent="1638" descent="-410" />
<missing-glyph horiz-adv-x="464" />
<glyph unicode="&#xfb01;" horiz-adv-x="1014" d="M127 0l193 964h-163l18 96h164l28 136q36 180 139 266.5t261 86.5q57 0 119.5 -15t120.5 -42l-39 -101q-49 24 -99 38t-115 14q-104 0 -177 -65t-97 -182l-27 -136h228l-19 -96h-228l-193 -964h-114zM770 0h-113l211 1060h114z" />
<glyph horiz-adv-x="0" />
<glyph unicode="&#xd;" horiz-adv-x="464" />
<glyph unicode=" "  horiz-adv-x="464" />
<glyph unicode="&#x09;" horiz-adv-x="464" />
<glyph unicode="&#xa0;" horiz-adv-x="464" />
<glyph unicode="!" horiz-adv-x="435" d="M283 468h-113l191 959h113zM199 0h-132l32 164h132z" />
<glyph unicode="&#x22;" horiz-adv-x="550" d="M360 1317l-73 -256h-67l43 250l35 218h96zM582 1317l-73 -256h-67l44 253l34 215h96z" />
<glyph unicode="#" horiz-adv-x="1167" d="M670 402h-282l-150 -402h-94l150 402h-231l18 91h247l163 432h-254l19 94h270l153 408h94l-153 -408h283l153 408h95l-154 -408h206l-18 -94h-224l-162 -432h232l-19 -91h-248l-151 -402h-94zM422 493h283l162 432h-282z" />
<glyph unicode="$" horiz-adv-x="1045" d="M810 352q18 112 -35 178.5t-209 130.5q-179 64 -256 155t-50 257q25 166 131 263t267 110l31 197h96l-31 -198q151 -17 223 -131t41 -307h-112q24 155 -32.5 245.5t-187.5 90.5q-127 0 -211 -77t-102 -191q-19 -116 31.5 -181.5t215.5 -129.5q179 -67 255 -157t50 -253 q-27 -169 -136 -264t-274 -109l-29 -185h-96l29 185q-157 13 -251 116.5t-61 312.5h113q-29 -182 49 -254.5t209 -72.5q129 0 221.5 77t110.5 192z" />
<glyph unicode="%" horiz-adv-x="1388" d="M252 1152q26 133 113 214t206 81q109 0 167 -86.5t34 -208.5l-14 -75q-28 -132 -113.5 -212.5t-203.5 -80.5q-111 0 -169.5 86t-34.5 207zM327 1077q-18 -91 14 -149.5t117 -58.5q74 0 133 62t76 146l15 75q19 92 -13 151t-114 59q-76 0 -136 -63t-77 -147zM757 350 q26 131 112.5 212.5t206.5 81.5q109 0 167 -87t35 -207l-15 -77q-27 -132 -113.5 -213t-203.5 -81q-111 0 -170 86.5t-34 207.5zM833 273q-20 -92 12.5 -150t116.5 -58q75 0 133.5 62t76.5 146l15 77q18 94 -13.5 151.5t-114.5 57.5q-75 0 -135 -61.5t-76 -147.5zM364 119 l-60 47l871 1115l61 -47z" />
<glyph unicode="&#x26;" horiz-adv-x="1159" d="M414 778q-59 100 -82 180.5t-9 165.5q26 161 119 242t237 81q128 0 195.5 -79.5t48.5 -199.5q-15 -93 -65 -153t-142 -126l-162 -119l297 -467q55 69 93.5 154t54.5 181h103q-21 -130 -70 -233t-126 -187l138 -218h-137l-87 136q-89 -75 -187 -116t-204 -41 q-184 0 -282.5 106.5t-71.5 278.5q20 122 99.5 212.5t224.5 191.5zM445 78q79 0 164 36t160 103l-299 470q-3 3 -4.5 6.5t-4.5 8.5l-47 -35q-119 -92 -167 -166.5t-58 -136.5q-20 -127 44 -206.5t212 -79.5zM437 1126q-12 -67 6 -135t64 -146l180 128q60 44 89.5 92 t38.5 103q13 80 -26.5 130t-125.5 50q-88 0 -150 -64.5t-76 -157.5z" />
<glyph unicode="'" horiz-adv-x="327" d="M358 1338l-80 -270h-66l49 261l32 200h96z" />
<glyph unicode="(" horiz-adv-x="595" d="M156 576q59 370 229.5 644t344.5 372l6 -1l12 -71q-147 -101 -287 -358.5t-191 -582.5l-3 -19q-54 -338 2.5 -588t173.5 -357l-34 -68h-6q-142 98 -225 374.5t-24 640.5z" />
<glyph unicode=")" horiz-adv-x="605" d="M483 562q-61 -380 -229.5 -648t-343.5 -368l-6 1l-14 68q146 101 287 360.5t192 584.5l4 19q53 334 -5.5 588t-171.5 357l35 68h6q138 -97 221 -379t27 -637z" />
<glyph unicode="*" horiz-adv-x="802" d="M444 980l-278 106l50 99l275 -121l69 363h98l-80 -366l318 125l11 -99l-324 -113l144 -288l-93 -62l-133 299l-243 -297l-69 60z" />
<glyph unicode="+" horiz-adv-x="1063" d="M644 725h401l-22 -110h-402l-94 -472h-114l94 472h-393l21 110h394l91 457h115z" />
<glyph unicode="," horiz-adv-x="367" d="M175 18l-154 -271h-77l118 274l33 163h114z" />
<glyph unicode="-" horiz-adv-x="542" d="M514 559h-437l20 99h437z" />
<glyph unicode="." horiz-adv-x="458" d="M202 0h-128l32 161h128z" />
<glyph unicode="/" horiz-adv-x="752" d="M26 -122h-102l864 1549h101z" />
<glyph unicode="0" horiz-adv-x="1067" d="M974 554q-59 -294 -194 -434.5t-333 -140.5q-181 0 -268 152t-32 423l64 318q58 293 193.5 434t333.5 141q182 0 268 -152t32 -423zM928 892q46 233 -7.5 344.5t-202.5 111.5q-136 0 -242 -121t-148 -335l-71 -356q-46 -231 7.5 -344.5t201.5 -113.5q137 0 242 122 t149 336z" />
<glyph unicode="1" horiz-adv-x="1045" d="M540 -7h-114l262 1311l-343 -42l16 83l466 86z" />
<glyph unicode="2" horiz-adv-x="1045" d="M886 0h-826l14 90l520 530q144 146 208.5 244.5t79.5 189.5q22 138 -34 216t-183 78q-144 0 -239.5 -91.5t-118.5 -240.5h-105l-2 6q25 185 155.5 305t325.5 120q165 0 254.5 -106.5t62.5 -283.5q-21 -122 -105.5 -237.5t-235.5 -270.5l-437 -444l2 -6h680z" />
<glyph unicode="3" horiz-adv-x="1045" d="M415 698l8 57l4 22h129q138 0 226 78.5t108 199.5q22 139 -34.5 216t-193.5 77q-123 0 -218.5 -81.5t-116.5 -212.5h-105l-2 5q24 175 152.5 281.5t304.5 106.5q172 0 263.5 -105.5t63.5 -289.5q-18 -106 -90 -194t-185 -129q116 -40 164 -130.5t28 -211.5 q-31 -197 -161.5 -302.5t-312.5 -105.5q-170 0 -279.5 107.5t-75.5 295.5l2 5h107q-24 -142 49 -225.5t213 -83.5q134 0 227.5 80t117.5 225q24 157 -44.5 225.5t-223.5 68.5h-128z" />
<glyph unicode="4" horiz-adv-x="1045" d="M808 460h207l-19 -99h-207l-72 -361h-112l71 361h-620l13 66l810 1000h124zM213 465l3 -5h480l162 807l-6 2l-64 -101z" />
<glyph unicode="5" horiz-adv-x="1045" d="M211 646l199 781h645l-17 -109h-549l-130 -509q57 49 121.5 75.5t164.5 29.5q171 3 255 -122.5t50 -336.5q-37 -225 -156.5 -350.5t-324.5 -125.5q-158 0 -254.5 99.5t-62.5 291.5l3 5h102q-24 -150 39 -223.5t189 -73.5q140 0 231 97t120 278q26 166 -30.5 259.5 t-189.5 93.5q-121 0 -197 -45t-118 -131z" />
<glyph unicode="6" horiz-adv-x="1045" d="M759 1447q66 0 131.5 -17t111.5 -47l-45 -96q-46 31 -94.5 46t-119.5 15q-142 0 -261 -124.5t-151 -323.5l-19 -119q66 75 158 118t193 43q172 0 257.5 -134t53.5 -343q-36 -219 -167.5 -352.5t-312.5 -133.5q-177 0 -277 148t-59 402l58 360q41 257 194.5 407.5 t348.5 150.5zM625 846q-105 0 -198 -62t-140 -157l-17 -107q-34 -212 33.5 -327t206.5 -115q126 0 224.5 113.5t124.5 273.5q29 177 -31 279t-203 102z" />
<glyph unicode="7" horiz-adv-x="1045" d="M1092 1327q-260 -272 -418 -554.5t-255 -652.5l-30 -120h-114l31 120q95 362 261.5 655.5t406.5 551.5h-754l15 100h872z" />
<glyph unicode="8" horiz-adv-x="1045" d="M1042 1059q-26 -124 -105 -209.5t-192 -121.5q109 -42 165 -135.5t33 -214.5q-41 -206 -177 -302.5t-329 -96.5q-180 0 -283.5 104.5t-65.5 294.5q27 136 117 227.5t221 128.5q-95 41 -141 127t-23 198q39 197 164 292.5t302 95.5q161 0 255.5 -103.5t58.5 -284.5z M829 377q29 144 -43.5 224.5t-210.5 80.5q-128 0 -238.5 -85.5t-135.5 -219.5q-30 -149 41 -224t215 -75q128 0 236 81t136 218zM928 1060q27 132 -36 210t-183 78q-115 0 -212 -80t-123 -208q-26 -135 36 -206.5t188 -71.5q112 0 209 77.5t121 200.5z" />
<glyph unicode="9" horiz-adv-x="1045" d="M415 78q145 0 253 110.5t140 310.5l22 134q-62 -87 -149.5 -133t-187.5 -46q-175 0 -268 136t-58 349q35 224 173.5 366t312.5 142q186 0 283.5 -136t57.5 -390l-67 -420q-42 -258 -184 -390t-344 -132q-68 0 -139 15.5t-131 44.5l37 98q56 -30 115 -44.5t134 -14.5z M509 553q113 0 204.5 66.5t140.5 162.5l24 148q33 211 -30.5 314.5t-205.5 103.5q-122 0 -226.5 -121t-131.5 -288q-27 -171 32.5 -278.5t192.5 -107.5z" />
<glyph unicode=":" horiz-adv-x="410" d="M191 0h-128l32 161h128zM369 898h-128l32 161h128z" />
<glyph unicode=";" horiz-adv-x="414" d="M373 900h-128l32 161h128zM198 18l-154 -271h-77l118 274l33 163h114z" />
<glyph unicode="&#x3c;" horiz-adv-x="963" d="M302 566l-107 -27v-6l94 -27l505 -263l-26 -123l-679 371l14 70l6 25l827 370l-25 -123z" />
<glyph unicode="=" horiz-adv-x="1055" d="M981 816h-760l21 104h760zM900 414h-760l22 103h759z" />
<glyph unicode="&#x3e;" horiz-adv-x="977" d="M201 827l23 121l698 -371l-15 -70l-4 -25l-845 -371l23 121l629 269l105 26v6l-93 29z" />
<glyph unicode="?" horiz-adv-x="859" d="M343 396q26 127 56 178t132 135q121 111 179 184t82 187q26 132 -21 197.5t-162 65.5q-99 0 -182 -68.5t-106 -180.5h-105l-2 6q30 161 146 254t269 93q154 0 232 -100t45 -266q-28 -141 -104 -235t-218 -214q-66 -53 -87.5 -98t-39.5 -138h-114zM391 0h-130l30 151h130z " />
<glyph unicode="@" horiz-adv-x="1712" d="M1617 503q-52 -213 -181 -368.5t-317 -155.5q-66 0 -105.5 50.5t-37.5 140.5q-67 -96 -147.5 -143.5t-173.5 -47.5q-111 0 -153 120t12 309q71 249 208 399t290 150q80 0 132 -27t102 -78l-3 -2h3l-157 -563q-35 -129 -9 -176t76 -47q120 0 224 124.5t152 314.5 q92 382 -18.5 592.5t-438.5 210.5q-274 0 -520.5 -234t-335.5 -604q-93 -371 27 -600t425 -229q76 0 165.5 21.5t151.5 56.5l15 -74q-68 -40 -166.5 -63.5t-184.5 -23.5q-325 0 -475 249t-51 663q99 416 363.5 670t606.5 254q332 0 475 -242t46 -647zM618 408 q-45 -152 -25.5 -242.5t106.5 -90.5q73 0 146.5 43t144.5 152q1 8 1.5 10.5t2.5 6.5l149 535q-26 21 -58.5 33.5t-74.5 12.5q-114 0 -220.5 -118.5t-171.5 -341.5z" />
<glyph unicode="A" horiz-adv-x="1178" d="M888 398h-604l-216 -398h-117l790 1427h106l215 -1427h-117zM341 503h532l-110 765l-5 1z" />
<glyph unicode="B" horiz-adv-x="1169" d="M95 0l285 1427h390q194 0 297 -95.5t67 -279.5q-24 -117 -97.5 -196t-178.5 -108q116 -25 171.5 -123.5t29.5 -227.5q-41 -204 -172.5 -300.5t-330.5 -96.5h-461zM345 688l-118 -589h348q136 0 239 79t132 217q26 136 -32 214.5t-204 78.5h-365zM365 787h318 q127 3 219.5 72t117.5 196q29 145 -39 208.5t-230 63.5h-278z" />
<glyph unicode="C" horiz-adv-x="1205" d="M1097 437l2 -6q-61 -217 -195 -334.5t-340 -117.5q-211 0 -333.5 178.5t-68.5 443.5l46 233q59 293 210.5 453t374.5 160q201 0 321.5 -126t93.5 -339l-2 -5h-107q14 175 -69 273t-253 98q-159 0 -284.5 -143.5t-171.5 -368.5l-47 -235q-49 -240 38.5 -381.5 t265.5 -141.5q154 0 255 88.5t158 270.5h106z" />
<glyph unicode="D" horiz-adv-x="1234" d="M95 0l285 1427h351q232 0 378.5 -181t93.5 -445l-36 -185q-60 -295 -231.5 -455.5t-417.5 -160.5h-423zM472 1327l-245 -1228h311q179 0 324 145.5t192 371.5l37 188q47 235 -65 379t-315 144h-239z" />
<glyph unicode="E" horiz-adv-x="1085" d="M983 691h-637l-119 -592h730l-19 -99h-843l285 1427h838l-19 -100h-727l-106 -536h637z" />
<glyph unicode="F" horiz-adv-x="1086" d="M984 668h-643l-133 -668h-113l285 1427h849l-20 -100h-737l-110 -558h642z" />
<glyph unicode="G" horiz-adv-x="1286" d="M1077 170q-60 -71 -189.5 -131t-309.5 -60q-217 0 -339 172t-68 437l51 262q57 282 227 439.5t400 157.5q200 0 305 -117t89 -297l-3 -6h-106q5 143 -64.5 232t-240.5 89q-165 0 -308 -142t-184 -354l-53 -264q-48 -238 39 -374t275 -136q120 0 225 40.5t147 86.5l75 372 h-349l19 100h463z" />
<glyph unicode="H" horiz-adv-x="1329" d="M1068 0h-112l131 657h-748l-131 -657h-113l285 1427h113l-134 -670h747l135 670h112z" />
<glyph unicode="I" horiz-adv-x="516" d="M231 0h-113l285 1427h113z" />
<glyph unicode="J" horiz-adv-x="1036" d="M956 1427h113l-204 -1022q-42 -209 -170 -317.5t-303 -108.5t-269.5 106.5t-53.5 307.5h113q-33 -165 26.5 -240t203.5 -75q111 0 210 90t130 237z" />
<glyph unicode="K" horiz-adv-x="1103" d="M500 677h-177l-135 -677h-114l285 1427h114l-129 -646h182l599 646h140l3 -6l-665 -702l409 -719h-132z" />
<glyph unicode="L" horiz-adv-x="994" d="M228 99h655l-20 -99h-768l285 1427h114z" />
<glyph unicode="M" horiz-adv-x="1628" d="M529 1427l231 -1255l6 -1l737 1256h149l-285 -1427h-113l127 630l132 618l-6 2l-738 -1250h-78l-239 1244h-6l-112 -614l-126 -630h-113l285 1427h149z" />
<glyph unicode="N" horiz-adv-x="1335" d="M1074 0h-114l-501 1220h-6l-244 -1220h-114l285 1427h114l502 -1218h6l244 1218h113z" />
<glyph unicode="O" horiz-adv-x="1267" d="M1185 592q-61 -298 -217 -455.5t-395 -157.5q-221 0 -347 177t-71 445l46 233q60 297 213 455t388 158q224 0 353.5 -177.5t75.5 -444.5zM1119 827q48 242 -45.5 380t-292.5 138q-171 0 -295.5 -139.5t-169.5 -369.5l-47 -235q-50 -244 40.5 -382t284.5 -138 q176 0 303.5 139t174.5 372z" />
<glyph unicode="P" horiz-adv-x="1167" d="M326 593l-118 -593h-113l285 1427h460q195 0 293 -116.5t62 -300.5q-41 -202 -175 -309.5t-347 -107.5h-347zM346 693h347q151 0 256 91.5t133 223.5q28 146 -34 232.5t-228 86.5h-347z" />
<glyph unicode="Q" horiz-adv-x="1268" d="M1185 592q-36 -178 -107 -306t-172 -204l171 -216l-94 -74l-182 231q-51 -22 -108.5 -33t-119.5 -11q-221 0 -347 177t-71 445l46 233q60 297 213 455t388 158q224 0 353.5 -177.5t75.5 -444.5zM1119 827q48 242 -45.5 380t-292.5 138q-171 0 -295.5 -139.5 t-169.5 -369.5l-47 -235q-50 -244 40.5 -382t284.5 -138q176 0 303.5 139t174.5 372z" />
<glyph unicode="R" horiz-adv-x="1238" d="M335 645l-129 -645h-114l285 1426h452q200 0 300 -102.5t63 -291.5q-26 -123 -104.5 -210t-200.5 -126q112 -34 152.5 -121.5t15.5 -210.5l-26 -135q-15 -70 -10.5 -120.5t32.5 -84.5l-5 -24h-116q-26 35 -27 98.5t12 132.5l27 131q27 139 -34.5 211t-202.5 72h-370z M355 745h324q166 0 270 80t129 208q29 150 -35.5 221.5t-233.5 71.5h-338z" />
<glyph unicode="S" horiz-adv-x="1132" d="M925 311q27 131 -37.5 203.5t-259.5 147.5q-208 76 -297 172t-52 279q33 161 159.5 247.5t305.5 86.5q196 0 306 -115t67 -311l-2 -5h-107q31 151 -47 241.5t-237 90.5q-121 0 -216.5 -69.5t-114.5 -163.5q-27 -133 32 -203.5t259 -147.5q208 -76 299.5 -175t56.5 -276 q-34 -166 -167 -250t-324 -84q-194 0 -326 104t-84 321l3 6h105q-37 -186 62.5 -259t258.5 -73q126 0 232 68.5t125 164.5z" />
<glyph unicode="T" horiz-adv-x="1114" d="M1250 1327h-455l-265 -1327h-114l265 1327h-454l20 100h1023z" />
<glyph unicode="U" horiz-adv-x="1262" d="M1310 1427l-193 -967q-50 -249 -203.5 -365t-372.5 -116q-198 0 -310.5 125.5t-65.5 355.5l193 967h113l-193 -967q-39 -195 40 -288.5t243 -93.5q153 0 280 100.5t163 281.5l194 967h112z" />
<glyph unicode="V" horiz-adv-x="1163" d="M522 241l12 -92l6 -1l41 93l585 1186h124l-724 -1427h-106l-266 1427h123z" />
<glyph unicode="W" horiz-adv-x="1679" d="M408 404l6 -214l5 -1l83 215l442 1023h107l114 -1023l13 -214l6 -1l76 215l401 1023h115l-568 -1427h-106l-121 1095l-11 145l-6 1l-56 -146l-473 -1095h-108l-110 1427h116z" />
<glyph unicode="X" horiz-adv-x="1156" d="M640 817l468 610h139l-553 -704l338 -723h-135l-285 629l-484 -629h-138l571 723l-329 704h137z" />
<glyph unicode="Y" horiz-adv-x="1144" d="M615 640l565 787h131l-664 -906l-104 -521h-113l106 529l-300 898h132z" />
<glyph unicode="Z" horiz-adv-x="1032" d="M159 99h747l-19 -99h-871l6 90l907 1237h-677l19 100h816l-17 -85z" />
<glyph unicode="[" horiz-adv-x="460" d="M633 1531h-190l-278 -1737h190l-16 -100h-305l310 1937h305z" />
<glyph unicode="\" horiz-adv-x="747" d="M250 1427h111l244 -1549h-111z" />
<glyph unicode="]" horiz-adv-x="460" d="M198 1631h305l-310 -1937h-305l16 100h191l278 1737h-191z" />
<glyph unicode="^" horiz-adv-x="786" d="M244 714h-110l415 713h84l129 -713h-109l-82 475l-6 100l-5 1l-47 -101z" />
<glyph unicode="_" horiz-adv-x="818" d="M709 -99h-806l20 99h805z" />
<glyph unicode="`" horiz-adv-x="545" d="M540 1186h-110l-183 260h151z" />
<glyph unicode="a" horiz-adv-x="1014" d="M688 0q2 73 4 102.5t10 68.5q-71 -83 -172 -137.5t-213 -54.5q-136 0 -203.5 84t-39.5 219q30 157 162 240.5t337 83.5h215l26 131q25 121 -28.5 182t-175.5 61q-106 0 -196.5 -62.5t-106.5 -150.5l-103 1l-2 6q19 128 141.5 217t290.5 89q154 0 240 -90.5t54 -254.5 l-104 -521q-13 -59 -17 -110t0 -104h-119zM351 83q108 0 212.5 60t162.5 150l44 222h-217q-137 0 -242.5 -69t-125.5 -168q-18 -92 25 -143.5t141 -51.5z" />
<glyph unicode="b" d="M959 486q-51 -254 -166 -380.5t-293 -126.5q-98 0 -175.5 50t-117.5 136l-45 -165h-98l305 1529h114l-123 -613l5 -4q57 80 137.5 124t178.5 44q167 0 249.5 -163t32.5 -410zM849 507q42 213 -11.5 342t-198.5 129q-102 0 -180 -65t-133 -165l-96 -480q22 -86 90 -136.5 t178 -50.5q131 0 220 108.5t127 296.5z" />
<glyph unicode="c" horiz-adv-x="978" d="M460 78q104 0 198.5 67.5t112.5 184.5h100l2 -6q-20 -153 -148 -249t-281 -96q-194 0 -284.5 150t-53.5 381l7 41q38 240 170.5 384.5t334.5 144.5q158 0 252 -104t64 -270l-2 -5h-102q22 132 -44.5 205.5t-182.5 73.5q-151 0 -249 -124t-128 -305l-6 -41 q-32 -195 24 -313.5t216 -118.5z" />
<glyph unicode="d" d="M129 541q54 271 170.5 405t298.5 134q98 0 172.5 -45.5t113.5 -128.5l124 623h113l-306 -1529h-100l20 141q-62 -77 -143 -119.5t-178 -42.5q-166 0 -250.5 154.5t-38.5 386.5zM240 520q-41 -202 14.5 -320.5t201.5 -118.5q94 0 170.5 55t133.5 149l99 499 q-22 85 -85.5 139.5t-173.5 54.5q-133 0 -225 -119t-131 -318z" />
<glyph unicode="e" horiz-adv-x="973" d="M449 -21q-179 0 -282 148t-67 372l9 54q37 236 181.5 381.5t319.5 145.5t262 -124.5t55 -328.5l-16 -100h-693l-4 -28q-30 -186 38 -303.5t213 -117.5q97 0 175.5 31t138.5 87l35 -80q-65 -63 -156.5 -100t-208.5 -37zM594 980q-115 0 -213.5 -100t-136.5 -248l2 -6h568 l5 30q23 144 -36 234t-189 90z" />
<glyph unicode="f" horiz-adv-x="625" d="M144 0l193 964h-163l19 96h163l31 155q34 171 124 252.5t227 81.5q28 0 59.5 -4.5t60.5 -13.5l-32 -97q-20 6 -43 9t-54 3q-82 0 -144.5 -61.5t-83.5 -169.5l-32 -155h234l-19 -96h-233l-193 -964h-114z" />
<glyph unicode="g" d="M130 541q54 270 171 404.5t300 134.5q100 0 175.5 -48t113.5 -133l45 161h96l-209 -1046q-44 -219 -170 -330.5t-319 -111.5q-66 0 -145 19t-133 50l49 99q51 -30 113 -46.5t135 -16.5q134 0 229 91t127 246l23 119q-61 -74 -140 -114t-175 -40q-166 0 -251 154.5 t-39 386.5zM240 520q-41 -202 16 -320.5t203 -118.5q95 0 171.5 56.5t131.5 151.5l98 491q-20 86 -83.5 142t-173.5 56q-134 0 -227 -119.5t-132 -317.5z" />
<glyph unicode="h" d="M358 900l5 -4q62 88 152.5 136t198.5 48q146 0 214 -106t25 -320l-131 -654h-113l131 656q36 184 -10.5 253t-161.5 69q-104 0 -193.5 -65.5t-148.5 -172.5l-148 -740h-113l305 1529h114z" />
<glyph unicode="i" horiz-adv-x="436" d="M191 0h-113l212 1060h113zM464 1364h-113l33 165h113z" />
<glyph unicode="j" horiz-adv-x="453" d="M410 1060l-230 -1147q-35 -175 -122 -258t-222 -83q-25 0 -49.5 5t-49.5 13l33 99q13 -5 38 -9.5t43 -4.5q75 0 134 61t83 177l229 1147h113zM466 1368h-113l32 161h114z" />
<glyph unicode="k" horiz-adv-x="929" d="M407 516h-125l-103 -516h-113l305 1529h114l-182 -912h114l449 443h132l2 -6l-487 -477l321 -577h-136z" />
<glyph unicode="l" horiz-adv-x="436" d="M191 0h-113l306 1529h113z" />
<glyph unicode="m" horiz-adv-x="1662" d="M350 897q65 89 152.5 136t197.5 47q104 0 169 -58.5t78 -175.5q65 112 160 173t216 61q147 0 215 -115t22 -347l-123 -618h-115l124 620q42 210 -4.5 284t-163.5 74q-116 0 -204.5 -87t-134.5 -219l-6 -36l-127 -636h-115l124 620q41 206 -6 282t-164 76 q-109 0 -190.5 -66.5t-133.5 -176.5l-147 -735h-114l211 1060h101z" />
<glyph unicode="n" d="M352 886q65 94 155.5 144t201.5 50q149 0 217 -107.5t25 -326.5l-130 -646h-113l129 645q38 195 -8.5 264t-166.5 69q-105 0 -193 -68.5t-145 -179.5l-146 -730h-113l211 1060h101z" />
<glyph unicode="o" d="M107 546q38 243 179.5 388.5t341.5 145.5q190 0 289.5 -151.5t62.5 -382.5l-5 -32q-39 -244 -180 -389.5t-340 -145.5q-191 0 -291 151t-62 384zM216 514q-32 -192 34 -314t220 -122q144 0 253 127t138 309l5 32q30 188 -35.5 311t-218.5 123q-146 0 -255 -128t-137 -306 z" />
<glyph unicode="p" d="M957 481q-51 -254 -165 -378t-293 -124q-99 0 -176 41.5t-118 115.5l-109 -544h-114l293 1468h96l-16 -151q62 82 144 126.5t181 44.5q168 0 249.5 -165t31.5 -413zM848 502q42 212 -13.5 344t-200.5 132q-98 0 -174 -60t-130 -156l-103 -510q25 -80 91.5 -127t173.5 -47 q132 0 223.5 108t128.5 295z" />
<glyph unicode="q" d="M129 541q54 271 170.5 405t298.5 134q98 0 172.5 -43.5t113.5 -124.5l40 148h98l-293 -1468h-113l107 536q-61 -71 -139.5 -110t-169.5 -39q-166 0 -250.5 154.5t-38.5 386.5zM240 520q-41 -202 14 -322t201 -120q91 0 166 54t132 144l104 520q-24 82 -87 133t-170 51 q-133 0 -225 -120t-131 -319z" />
<glyph unicode="r" horiz-adv-x="645" d="M712 959l-82 6q-96 0 -176 -65.5t-132 -176.5l-144 -723h-113l211 1060h100l-21 -175q61 93 142 144t180 51q19 0 39.5 -3.5t32.5 -7.5z" />
<glyph unicode="s" horiz-adv-x="962" d="M712 270q12 77 -35 131.5t-189 89.5q-170 41 -244.5 108.5t-54.5 191.5q20 126 128 207.5t267 81.5q161 0 247.5 -89.5t61.5 -221.5l-2 -6h-106q14 91 -43.5 154t-173.5 63q-112 0 -183 -56.5t-82 -128.5q-13 -76 30 -123t191 -83q170 -42 246 -115t56 -199 q-22 -137 -134 -216.5t-278 -79.5q-173 0 -264.5 93.5t-66.5 218.5l2 6h105q-12 -115 59.5 -167t179.5 -52q112 0 191.5 56.5t91.5 135.5z" />
<glyph unicode="t" horiz-adv-x="632" d="M507 1332l-55 -272h215l-18 -96h-216l-138 -691q-23 -111 3 -151t86 -40q25 0 53 3t58 8l-1 -87q-28 -13 -69.5 -20t-81.5 -7q-98 0 -146 71.5t-17 222.5l138 691h-169l19 96h169l55 272h115z" />
<glyph unicode="u" d="M719 0l24 163q-65 -90 -154 -137t-199 -47q-147 0 -217.5 116t-22.5 351l122 614h114l-122 -616q-43 -207 1 -285t159 -78t202.5 62.5t140.5 167.5l150 749h114l-212 -1060h-100z" />
<glyph unicode="v" horiz-adv-x="925" d="M406 266l11 -119l6 -1l52 120l393 794h118l-544 -1060h-90l-206 1060h118z" />
<glyph unicode="w" horiz-adv-x="1422" d="M348 344v-183l6 -2l81 185l352 716h97l66 -716l7 -190l6 -1l79 191l320 716h118l-499 -1060h-96l-72 725l-6 181h-6l-80 -181l-358 -725h-97l-75 1060h118z" />
<glyph unicode="x" horiz-adv-x="925" d="M491 627l333 433h128l3 -5l-414 -515l261 -540h-133l-203 452l-350 -452h-128l-3 5l431 535l-250 520h133z" />
<glyph unicode="y" horiz-adv-x="925" d="M404 287l9 -119l5 -1l474 893h127l-673 -1230q-60 -107 -136.5 -182.5t-193.5 -75.5q-18 0 -45.5 4.5t-41.5 8.5l34 98q12 -1 35.5 -3.5t33.5 -2.5q65 0 122.5 56.5t101.5 137.5l80 144l-171 1045h126z" />
<glyph unicode="z" horiz-adv-x="925" d="M167 104l2 -5h631l-20 -99h-776l18 86l761 869l-2 4h-567l19 101h716l-17 -87z" />
<glyph unicode="{" horiz-adv-x="627" d="M453 -390q-159 54 -211.5 170t-25.5 283l35 221q19 125 -20 189.5t-148 64.5l13 79l4 23q103 0 166 66.5t83 185.5l35 223q28 174 116 287t262 163l6 -1l11 -70q-121 -41 -189.5 -139.5t-90.5 -239.5l-35 -223q-19 -113 -73.5 -192t-146.5 -113q77 -39 107.5 -119 t14.5 -184l-36 -221q-23 -145 14.5 -239t148.5 -136z" />
<glyph unicode="|" horiz-adv-x="425" d="M152 -265h-96l270 1692h96z" />
<glyph unicode="}" horiz-adv-x="627" d="M-106 -318q122 42 191 138.5t91 236.5l36 221q17 115 73.5 193.5t154.5 112.5q-83 35 -115.5 114.5t-14.5 187.5l35 223q23 146 -13.5 241.5t-145.5 137.5l37 77q158 -54 210 -171t26 -285l-36 -223q-20 -125 20.5 -188.5t149.5 -63.5l-9 -52l-8 -50q-103 0 -167 -68 t-84 -186l-35 -221q-28 -173 -115.5 -285t-260.5 -163l-6 2z" />
<glyph unicode="~" horiz-adv-x="1286" d="M1198 725q-22 -131 -109 -220.5t-199 -89.5q-77 0 -140 35.5t-130 111.5q-50 52 -95 78t-95 26q-68 0 -127.5 -60t-74.5 -156l-88 15q21 133 107 219.5t200 86.5q75 0 139.5 -37t130.5 -110q48 -55 93 -80.5t96 -25.5q67 0 127.5 63.5t75.5 158.5z" />
<glyph unicode="&#xa1;" horiz-adv-x="425" d="M104 -367h-115l192 959h115zM363 880h-133l36 180h132z" />
<glyph unicode="&#xa2;" horiz-adv-x="1026" d="M481 78q104 0 198.5 67.5t113.5 184.5h100l3 -6q-21 -144 -136 -237.5t-259 -105.5l-44 -221h-114l45 227q-156 30 -224.5 174t-36.5 349l7 41q37 229 160 372t313 156l43 213h113l-44 -220q126 -26 195 -125t46 -246h-108q21 132 -45 205.5t-183 73.5q-151 0 -249 -124 t-127 -305l-7 -41q-31 -195 24.5 -313.5t215.5 -118.5z" />
<glyph unicode="&#xa3;" horiz-adv-x="1078" d="M408 629l-29 -172q-22 -113 -62.5 -205t-95.5 -153h699l-19 -99h-860l20 99h9q65 15 119 127.5t78 230.5l28 172h-187l20 100h183l48 290q42 213 159 320.5t283 107.5q159 0 231.5 -104t39.5 -275h-115q31 156 -16.5 218t-159.5 62q-105 0 -191 -88t-117 -241l-49 -290 h409l-21 -100h-404z" />
<glyph unicode="&#xa4;" horiz-adv-x="1358" d="M980 123q-86 -69 -185.5 -106t-202.5 -37q-94 0 -177.5 40t-142.5 113l-176 -158l-64 84l183 162q-41 79 -52.5 174.5t9.5 200.5q23 115 73 215t122 180l-116 162l98 86l114 -161q84 64 179.5 97.5t195.5 33.5q90 0 170.5 -37.5t140.5 -105.5l192 174l63 -87l-195 -176 q42 -80 55 -177.5t-8 -203.5q-22 -112 -69 -208t-113 -173l112 -156l-98 -85zM279 596q-45 -224 52.5 -365.5t281.5 -141.5q167 0 330.5 150t206.5 357q43 222 -54.5 363t-280.5 141q-168 0 -332 -149.5t-204 -354.5z" />
<glyph unicode="&#xa5;" horiz-adv-x="1126" d="M620 725l523 702h132l-562 -736h337l-19 -100h-382l-37 -172h382l-19 -100h-381l-64 -319h-113l64 319h-377l18 100h378l36 172h-376l18 100h336l-267 736h131z" />
<glyph unicode="&#xa6;" horiz-adv-x="417" d="M13 -265l151 756h113l-151 -756h-113zM317 684h-114l148 743h114z" />
<glyph unicode="&#xa7;" horiz-adv-x="1139" d="M1027 422q-22 -103 -89.5 -170.5t-173.5 -97.5q75 -48 104 -116.5t8 -173.5q-34 -174 -166.5 -261.5t-332.5 -87.5q-183 0 -300 102t-71 315l2 5l108 2q-38 -181 47.5 -252.5t233.5 -71.5q137 0 239.5 70.5t123.5 176.5q22 111 -34.5 165.5t-243.5 115.5 q-209 60 -298.5 146t-56.5 251q20 102 86 170t169 99q-71 49 -97.5 118t-5.5 171q34 167 167.5 258t333.5 91q190 0 288 -111t56 -306l-3 -5h-107q29 147 -36.5 235t-217.5 88q-146 0 -245.5 -71.5t-119.5 -175.5q-25 -119 29 -173t251 -117q212 -63 297.5 -145t54.5 -244z M609 714q-37 10 -66 20t-55 21q-99 -15 -164.5 -73.5t-81.5 -139.5q-24 -121 33 -174t270 -122q30 -10 56 -18.5t50 -17.5q101 14 173.5 72t88.5 137q22 112 -40.5 170t-263.5 125z" />
<glyph unicode="&#xa8;" horiz-adv-x="887" d="M877 1273h-161l25 154h161zM450 1273h-162l25 154h161z" />
<glyph unicode="&#xa9;" horiz-adv-x="1499" d="M1043 584l2 -6q-22 -153 -108 -227.5t-223 -74.5q-133 0 -201.5 105.5t-41.5 274.5l19 116q27 175 126 277.5t239 102.5q129 0 195.5 -79t43.5 -228h-93q18 114 -22.5 166t-137.5 52q-96 0 -167 -82.5t-91 -207.5l-19 -117q-21 -135 21.5 -213t143.5 -78q93 0 151.5 53 t76.5 166h86zM226 714q-46 -284 89.5 -467t374.5 -183q224 0 425.5 190t245.5 460q44 283 -91 465t-372 182q-228 0 -428.5 -189t-243.5 -458zM147 714q51 321 271 526.5t493 205.5q258 0 418 -213.5t112 -518.5q-52 -321 -272 -528t-492 -207q-260 0 -420 214.5t-110 520.5 z" />
<glyph unicode="&#xaa;" horiz-adv-x="835" d="M649 691q-3 24 -2.5 51t3.5 55q-43 -52 -106 -86t-138 -34q-101 0 -151.5 61.5t-30.5 162.5q22 110 103.5 163.5t221.5 53.5h163l12 60q18 89 -9 131.5t-100 42.5q-77 0 -132.5 -37t-67.5 -106l-93 9l-1 6q16 102 102 162.5t211 60.5q106 0 162.5 -71t30.5 -199l-62 -309 q-9 -49 -11.5 -90t0.5 -87h-105zM444 770q58 0 126 37.5t96 82.5l30 146h-163q-80 0 -138 -39t-68 -92q-13 -69 14.5 -102t102.5 -33z" />
<glyph unicode="&#xab;" horiz-adv-x="862" d="M251 511l173 -380h-98l-195 371l1 6l3 13l344 371h91l2 -5zM534 511l173 -380h-98l-195 371l1 6l3 13l344 371h91l2 -5z" />
<glyph unicode="&#xac;" horiz-adv-x="1029" d="M916 701l-9 -44l-55 -279h-114l56 279h-628l20 103h742z" />
<glyph unicode="&#xad;" horiz-adv-x="542" d="M514 559h-437l20 99h437z" />
<glyph unicode="&#xae;" horiz-adv-x="1504" d="M143 714q51 321 271 526.5t492 205.5q259 0 419.5 -213t112.5 -519q-52 -321 -272.5 -528t-493.5 -207q-259 0 -419 214.5t-110 520.5zM222 714q-46 -284 89.5 -467t373.5 -183q225 0 426 190t245 460q44 283 -91 465t-372 182q-227 0 -427.5 -189t-243.5 -458zM635 659 l-56 -349h-93l133 833h238q129 0 193.5 -62.5t46.5 -180.5q-11 -70 -52.5 -117.5t-110.5 -76.5q57 -26 77.5 -78.5t9.5 -122.5l-9 -55q-7 -39 -7.5 -71t3.5 -54l-2 -15h-96q-5 21 -1 62t11 79l8 53q14 85 -14 120t-109 35h-170zM649 748h162q72 0 126.5 39.5t66.5 110.5 q12 86 -23 121t-139 35h-144z" />
<glyph unicode="&#xaf;" horiz-adv-x="810" d="M860 1332h-613l16 95h613z" />
<glyph unicode="&#xb0;" horiz-adv-x="714" d="M291 1202q22 107 100.5 176t172.5 69q85 0 138.5 -73.5t33.5 -171.5q-23 -108 -99 -175t-170 -67q-86 0 -141 71t-35 171zM375 1202q-13 -70 18 -111t92 -41q54 0 103.5 43.5t63.5 108.5q13 71 -16 113.5t-89 42.5q-56 0 -107.5 -45.5t-64.5 -110.5z" />
<glyph unicode="&#xb1;" horiz-adv-x="1000" d="M623 812h357l-17 -99h-355l-69 -430h-104l69 430h-376l17 99h374l70 430h104zM890 47h-761l21 100h760z" />
<glyph unicode="&#xb2;" horiz-adv-x="773" d="M679 654h-520l18 88l341 277q83 69 116.5 112.5t43.5 89.5q13 67 -14.5 103.5t-99.5 36.5t-126 -42.5t-66 -104.5h-94l-1 5q15 101 98.5 166t206.5 65q107 0 163 -60.5t36 -169.5q-16 -78 -67.5 -133t-170.5 -155l-229 -184l2 -6h380z" />
<glyph unicode="&#xb3;" horiz-adv-x="787" d="M801 1228q-12 -61 -53.5 -106.5t-103.5 -67.5q59 -23 85 -70.5t13 -114.5q-23 -114 -109 -170.5t-210 -56.5q-105 0 -176 58t-45 165l2 6h97q-13 -66 24.5 -103.5t115.5 -37.5q75 0 130.5 38t68.5 101q14 78 -19.5 109.5t-119.5 31.5h-111l4 22l13 65h112q74 0 121 35 t59 96q13 61 -20 96.5t-113 35.5q-63 0 -116.5 -35.5t-64.5 -91.5h-93l-2 6q14 99 97.5 154.5t196.5 55.5t175.5 -58.5t41.5 -162.5z" />
<glyph unicode="&#xb4;" horiz-adv-x="539" d="M462 1448h138l2 -5l-268 -255h-94l-2 5z" />
<glyph unicode="&#xb5;" d="M393 1060l-124 -621l1 1q-45 -218 2.5 -290t161.5 -72q116 0 197 61t132 172l150 749h114l-212 -1060h-98l19 141q-59 -80 -137 -121t-178 -41q-74 0 -132 30.5t-87 96.5l-102 -514h-113l293 1468h113z" />
<glyph unicode="&#xb6;" horiz-adv-x="898" d="M539 0l102 510h-95q-199 0 -298 129t-59 329q42 216 183.5 337.5t356.5 121.5h209l-285 -1427h-114z" />
<glyph unicode="&#xb7;" horiz-adv-x="470" d="M339 612h-144l35 176h144z" />
<glyph unicode="&#xb8;" horiz-adv-x="464" d="M149 0l-25 -63q70 -9 106 -47.5t20 -119.5q-20 -95 -100 -145.5t-217 -50.5l9 76q77 0 140 30t75 88q12 60 -20 80t-127 28l51 124h88z" />
<glyph unicode="&#xb9;" horiz-adv-x="478" d="M367 652h-103l138 689l-136 -7l19 91l241 23z" />
<glyph unicode="&#xba;" horiz-adv-x="850" d="M268 1119q31 155 127 241.5t233 86.5q127 0 193.5 -93t37.5 -235l-22 -115q-31 -154 -127.5 -240.5t-233.5 -86.5q-127 0 -193.5 92t-37.5 235zM347 1004q-23 -110 13.5 -172t134.5 -62q86 0 152.5 67t87.5 167l23 115q21 108 -16 170.5t-132 62.5q-88 0 -154.5 -67 t-86.5 -166z" />
<glyph unicode="&#xbb;" horiz-adv-x="857" d="M314 925l193 -376l-2 -6h1l-3 -13l-343 -371h-92l-2 5l322 375l-173 386h99zM603 925l193 -376l-2 -6h1l-3 -13l-343 -371h-92l-2 5l322 375l-173 386h99z" />
<glyph unicode="&#xbc;" horiz-adv-x="1434" d="M436 651h-103l138 689l-136 -7l19 91l241 23zM314 127l-60 47l871 1115l61 -47zM1173 255h138l-18 -88h-138l-33 -167h-102l33 167h-391l9 65l502 553h106zM801 260l2 -5h268l77 389l-5 2l-29 -38z" />
<glyph unicode="&#xbd;" horiz-adv-x="1446" d="M326 127l-60 47l871 1115l61 -47zM436 651h-103l138 689l-136 -7l19 91l241 23zM1273 0h-520l18 88l341 277q83 69 116.5 112.5t43.5 89.5q13 67 -14.5 103.5t-99.5 36.5t-126 -42.5t-66 -104.5h-94l-1 5q15 101 98.5 166t206.5 65q107 0 163 -60.5t36 -169.5 q-16 -78 -67.5 -133t-170.5 -155l-229 -184l2 -6h380z" />
<glyph unicode="&#xbe;" horiz-adv-x="1573" d="M502 127l-60 47l871 1115l61 -47zM1362 255h138l-18 -88h-138l-33 -167h-102l33 167h-391l9 65l502 553h106zM990 260l2 -5h268l77 389l-5 2l-29 -38zM824 1229q-12 -61 -53.5 -106.5t-103.5 -67.5q59 -23 85 -70.5t13 -114.5q-23 -114 -109 -170.5t-210 -56.5 q-105 0 -176 58t-45 165l2 6h97q-13 -66 24.5 -103.5t115.5 -37.5q75 0 130.5 38t68.5 101q14 78 -19.5 109.5t-119.5 31.5h-111l4 22l13 65h112q74 0 121 35t59 96q13 61 -20 96.5t-113 35.5q-63 0 -116.5 -35.5t-64.5 -91.5h-93l-2 6q14 99 97.5 154.5t196.5 55.5 t175.5 -58.5t41.5 -162.5z" />
<glyph unicode="&#xbf;" horiz-adv-x="885" d="M580 664q-27 -128 -57 -179t-131 -133q-122 -114 -180.5 -186.5t-81.5 -184.5q-27 -132 20.5 -197t164.5 -65q99 0 180 68t106 181h105l2 -6q-31 -162 -147.5 -255t-267.5 -93q-155 0 -232.5 101t-43.5 265q27 141 103 234.5t218 213.5q66 52 87.5 97t40.5 139h114z M532 1061h130l-30 -152h-130z" />
<glyph unicode="&#xc0;" horiz-adv-x="1178" d="M888 398h-604l-216 -398h-117l790 1427h106l215 -1427h-117zM341 503h532l-110 765l-5 1zM897 1530h-110l-183 260h151z" />
<glyph unicode="&#xc1;" horiz-adv-x="1178" d="M888 398h-604l-216 -398h-117l790 1427h106l215 -1427h-117zM341 503h532l-110 765l-5 1zM991 1786h138l2 -5l-268 -255h-94l-2 5z" />
<glyph unicode="&#xc2;" horiz-adv-x="1178" d="M888 398h-604l-216 -398h-117l790 1427h106l215 -1427h-117zM341 503h532l-110 765l-5 1zM1096 1587l-4 -18h-105l-117 165l-184 -165h-103l5 21l251 216h91z" />
<glyph unicode="&#xc3;" horiz-adv-x="1178" d="M888 398h-604l-216 -398h-117l790 1427h106l215 -1427h-117zM341 503h532l-110 765l-5 1zM1166 1785q-14 -89 -73 -144.5t-136 -55.5q-62 0 -125.5 54t-113.5 54q-41 0 -76 -34.5t-43 -86.5l-72 17q14 89 72 144t134 55q56 0 123.5 -53.5t116.5 -53.5q40 0 76.5 35 t45.5 89z" />
<glyph unicode="&#xc4;" horiz-adv-x="1178" d="M888 398h-604l-216 -398h-117l790 1427h106l215 -1427h-117zM341 503h532l-110 765l-5 1zM1143 1608h-161l25 154h161zM716 1608h-162l25 154h161z" />
<glyph unicode="&#xc5;" horiz-adv-x="1178" d="M888 398h-604l-216 -398h-117l790 1427h106l215 -1427h-117zM341 503h532l-110 765l-5 1zM705 1696q14 72 68 117t120 45q60 0 97.5 -48t24.5 -114q-16 -74 -69 -117t-117 -43q-62 0 -100 45.5t-24 114.5zM778 1696q-9 -41 10.5 -65.5t54.5 -24.5q33 0 62 25.5t37 64.5 q8 42 -10 66.5t-53 24.5q-33 0 -63.5 -26.5t-37.5 -64.5z" />
<glyph unicode="&#xc6;" horiz-adv-x="1713" d="M1587 0h-749l61 381h-540l-285 -381h-139l1088 1427h794l-20 -100h-634l-85 -534h537l-21 -100h-533l-95 -594h640zM441 492h475l132 812l-6 2l-17 -34z" />
<glyph unicode="&#xc7;" horiz-adv-x="1205" d="M1097 437l2 -6q-61 -217 -195 -334.5t-340 -117.5q-211 0 -333.5 178.5t-68.5 443.5l46 233q59 293 210.5 453t374.5 160q201 0 321.5 -126t93.5 -339l-2 -5h-107q14 175 -69 273t-253 98q-159 0 -284.5 -143.5t-171.5 -368.5l-47 -235q-49 -240 38.5 -381.5 t265.5 -141.5q154 0 255 88.5t158 270.5h106zM586 -8l-25 -63q70 -9 106 -47.5t20 -119.5q-20 -95 -100 -145.5t-217 -50.5l9 76q77 0 140 30t75 88q12 60 -20 80t-127 28l51 124h88z" />
<glyph unicode="&#xc8;" horiz-adv-x="1085" d="M983 691h-637l-119 -592h730l-19 -99h-843l285 1427h838l-19 -100h-727l-106 -536h637zM862 1530h-110l-183 260h151z" />
<glyph unicode="&#xc9;" horiz-adv-x="1085" d="M983 691h-637l-119 -592h730l-19 -99h-843l285 1427h838l-19 -100h-727l-106 -536h637zM957 1786h138l2 -5l-268 -255h-94l-2 5z" />
<glyph unicode="&#xca;" horiz-adv-x="1085" d="M983 691h-637l-119 -592h730l-19 -99h-843l285 1427h838l-19 -100h-727l-106 -536h637zM1062 1587l-4 -18h-105l-117 165l-184 -165h-103l5 21l251 216h91z" />
<glyph unicode="&#xcb;" horiz-adv-x="1085" d="M983 691h-637l-119 -592h730l-19 -99h-843l285 1427h838l-19 -100h-727l-106 -536h637zM1108 1608h-161l25 154h161zM681 1608h-162l25 154h161z" />
<glyph unicode="&#xcc;" horiz-adv-x="516" d="M231 0h-113l285 1427h113zM547 1530h-110l-183 260h151z" />
<glyph unicode="&#xcd;" horiz-adv-x="516" d="M231 0h-113l285 1427h113zM641 1786h138l2 -5l-268 -255h-94l-2 5z" />
<glyph unicode="&#xce;" horiz-adv-x="516" d="M231 0h-113l285 1427h113zM749 1587l-4 -18h-105l-117 165l-184 -165h-103l5 21l251 216h91z" />
<glyph unicode="&#xcf;" horiz-adv-x="516" d="M231 0h-113l285 1427h113zM795 1608h-161l25 154h161zM368 1608h-162l25 154h161z" />
<glyph unicode="&#xd0;" horiz-adv-x="1264" d="M124 0l135 675h-140l20 100h140l131 652h350q233 0 379.5 -181t93.5 -445l-36 -185q-60 -295 -231.5 -455.5t-417.5 -160.5h-424zM678 675h-307l-114 -576h310q180 0 325 145.5t191 371.5l37 188q47 235 -64.5 379t-314.5 144h-239l-110 -552h307z" />
<glyph unicode="&#xd1;" horiz-adv-x="1335" d="M1074 0h-114l-501 1220h-6l-244 -1220h-114l285 1427h114l502 -1218h6l244 1218h113zM1226 1785q-14 -89 -73 -144.5t-136 -55.5q-62 0 -125.5 54t-113.5 54q-41 0 -76 -34.5t-43 -86.5l-72 17q14 89 72 144t134 55q56 0 123.5 -53.5t116.5 -53.5q40 0 76.5 35t45.5 89z " />
<glyph unicode="&#xd2;" horiz-adv-x="1267" d="M1185 592q-61 -298 -217 -455.5t-395 -157.5q-221 0 -347 177t-71 445l46 233q60 297 213 455t388 158q224 0 353.5 -177.5t75.5 -444.5zM1119 827q48 242 -45.5 380t-292.5 138q-171 0 -295.5 -139.5t-169.5 -369.5l-47 -235q-50 -244 40.5 -382t284.5 -138 q176 0 303.5 139t174.5 372zM925 1551h-110l-183 260h151z" />
<glyph unicode="&#xd3;" horiz-adv-x="1267" d="M1185 592q-61 -298 -217 -455.5t-395 -157.5q-221 0 -347 177t-71 445l46 233q60 297 213 455t388 158q224 0 353.5 -177.5t75.5 -444.5zM1119 827q48 242 -45.5 380t-292.5 138q-171 0 -295.5 -139.5t-169.5 -369.5l-47 -235q-50 -244 40.5 -382t284.5 -138 q176 0 303.5 139t174.5 372zM1020 1807h138l2 -5l-268 -255h-94l-2 5z" />
<glyph unicode="&#xd4;" horiz-adv-x="1267" d="M1185 592q-61 -298 -217 -455.5t-395 -157.5q-221 0 -347 177t-71 445l46 233q60 297 213 455t388 158q224 0 353.5 -177.5t75.5 -444.5zM1119 827q48 242 -45.5 380t-292.5 138q-171 0 -295.5 -139.5t-169.5 -369.5l-47 -235q-50 -244 40.5 -382t284.5 -138 q176 0 303.5 139t174.5 372zM1125 1608l-4 -18h-105l-117 165l-184 -165h-103l5 21l251 216h91z" />
<glyph unicode="&#xd5;" horiz-adv-x="1267" d="M1185 592q-61 -298 -217 -455.5t-395 -157.5q-221 0 -347 177t-71 445l46 233q60 297 213 455t388 158q224 0 353.5 -177.5t75.5 -444.5zM1119 827q48 242 -45.5 380t-292.5 138q-171 0 -295.5 -139.5t-169.5 -369.5l-47 -235q-50 -244 40.5 -382t284.5 -138 q176 0 303.5 139t174.5 372zM1194 1806q-14 -89 -73 -144.5t-136 -55.5q-62 0 -125.5 54t-113.5 54q-41 0 -76 -34.5t-43 -86.5l-72 17q14 89 72 144t134 55q56 0 123.5 -53.5t116.5 -53.5q40 0 76.5 35t45.5 89z" />
<glyph unicode="&#xd6;" horiz-adv-x="1267" d="M1185 592q-61 -298 -217 -455.5t-395 -157.5q-221 0 -347 177t-71 445l46 233q60 297 213 455t388 158q224 0 353.5 -177.5t75.5 -444.5zM1119 827q48 242 -45.5 380t-292.5 138q-171 0 -295.5 -139.5t-169.5 -369.5l-47 -235q-50 -244 40.5 -382t284.5 -138 q176 0 303.5 139t174.5 372zM1171 1629h-161l25 154h161zM744 1629h-162l25 154h161z" />
<glyph unicode="&#xd7;" horiz-adv-x="987" d="M69 312l397 357l-245 343l92 79l242 -342l380 342l59 -79l-382 -343l254 -357l-90 -78l-254 355l-395 -355z" />
<glyph unicode="&#xd8;" horiz-adv-x="1268" d="M1186 597q-60 -294 -231 -456t-413 -162q-79 0 -147 24.5t-119 71.5l-121 -157h-97l166 215q-61 84 -80.5 203t10.5 261l46 232q59 294 227.5 456t406.5 162q93 0 170.5 -33.5t133.5 -96.5l121 158h97l-172 -224q46 -82 59 -190t-11 -232zM268 597q-26 -121 -19.5 -215 t41.5 -153l6 -2l777 1007q-41 54 -106 82.5t-154 28.5q-175 0 -314.5 -144t-183.5 -370zM1120 831q20 100 18 181.5t-25 139.5l-6 1l-768 -995q39 -38 95 -57.5t129 -19.5q179 0 321.5 143.5t188.5 372.5z" />
<glyph unicode="&#xd9;" horiz-adv-x="1262" d="M1310 1427l-193 -967q-50 -249 -203.5 -365t-372.5 -116q-198 0 -310.5 125.5t-65.5 355.5l193 967h113l-193 -967q-39 -195 40 -288.5t243 -93.5q153 0 280 100.5t163 281.5l194 967h112zM929 1530h-110l-183 260h151z" />
<glyph unicode="&#xda;" horiz-adv-x="1262" d="M1310 1427l-193 -967q-50 -249 -203.5 -365t-372.5 -116q-198 0 -310.5 125.5t-65.5 355.5l193 967h113l-193 -967q-39 -195 40 -288.5t243 -93.5q153 0 280 100.5t163 281.5l194 967h112zM1024 1786h138l2 -5l-268 -255h-94l-2 5z" />
<glyph unicode="&#xdb;" horiz-adv-x="1262" d="M1310 1427l-193 -967q-50 -249 -203.5 -365t-372.5 -116q-198 0 -310.5 125.5t-65.5 355.5l193 967h113l-193 -967q-39 -195 40 -288.5t243 -93.5q153 0 280 100.5t163 281.5l194 967h112zM1129 1587l-4 -18h-105l-117 165l-184 -165h-103l5 21l251 216h91z" />
<glyph unicode="&#xdc;" horiz-adv-x="1262" d="M1310 1427l-193 -967q-50 -249 -203.5 -365t-372.5 -116q-198 0 -310.5 125.5t-65.5 355.5l193 967h113l-193 -967q-39 -195 40 -288.5t243 -93.5q153 0 280 100.5t163 281.5l194 967h112zM1175 1608h-161l25 154h161zM748 1608h-162l25 154h161z" />
<glyph unicode="&#xdd;" horiz-adv-x="1144" d="M615 640l565 787h131l-664 -906l-104 -521h-113l106 529l-300 898h132zM953 1779h138l2 -5l-268 -255h-94l-2 5z" />
<glyph unicode="&#xde;" horiz-adv-x="1116" d="M486 1427l-60 -298h292q188 0 286 -115t63 -291q-39 -192 -172 -298.5t-338 -106.5h-292l-64 -318h-114l285 1427h114zM407 1030l-123 -614h292q145 0 248.5 92.5t128.5 212.5q26 135 -34.5 222t-219.5 87h-292z" />
<glyph unicode="&#xdf;" horiz-adv-x="1104" d="M172 0h-113l211 1060q44 214 156.5 318t273.5 104q120 0 192.5 -79t45.5 -217q-24 -118 -100 -218t-90 -174q-19 -94 120.5 -229.5t112.5 -275.5q-32 -161 -145 -235.5t-261 -74.5q-72 0 -153 23t-109 56l51 99q31 -31 92.5 -55t125.5 -24q106 0 186 60t98 151 q22 108 -118.5 242t-114.5 265q20 101 98.5 203.5t95.5 180.5q19 96 -24 149.5t-114 53.5q-103 0 -188.5 -85t-116.5 -238z" />
<glyph unicode="&#xe0;" horiz-adv-x="1014" d="M688 0q2 73 4 102.5t10 68.5q-71 -83 -172 -137.5t-213 -54.5q-136 0 -203.5 84t-39.5 219q30 157 162 240.5t337 83.5h215l26 131q25 121 -28.5 182t-175.5 61q-106 0 -196.5 -62.5t-106.5 -150.5l-103 1l-2 6q19 128 141.5 217t290.5 89q154 0 240 -90.5t54 -254.5 l-104 -521q-13 -59 -17 -110t0 -104h-119zM351 83q108 0 212.5 60t162.5 150l44 222h-217q-137 0 -242.5 -69t-125.5 -168q-18 -92 25 -143.5t141 -51.5zM727 1215h-110l-183 260h151z" />
<glyph unicode="&#xe1;" horiz-adv-x="1014" d="M688 0q2 73 4 102.5t10 68.5q-71 -83 -172 -137.5t-213 -54.5q-136 0 -203.5 84t-39.5 219q30 157 162 240.5t337 83.5h215l26 131q25 121 -28.5 182t-175.5 61q-106 0 -196.5 -62.5t-106.5 -150.5l-103 1l-2 6q19 128 141.5 217t290.5 89q154 0 240 -90.5t54 -254.5 l-104 -521q-13 -59 -17 -110t0 -104h-119zM351 83q108 0 212.5 60t162.5 150l44 222h-217q-137 0 -242.5 -69t-125.5 -168q-18 -92 25 -143.5t141 -51.5zM822 1472h138l2 -5l-268 -255h-94l-2 5z" />
<glyph unicode="&#xe2;" horiz-adv-x="1014" d="M688 0q2 73 4 102.5t10 68.5q-71 -83 -172 -137.5t-213 -54.5q-136 0 -203.5 84t-39.5 219q30 157 162 240.5t337 83.5h215l26 131q25 121 -28.5 182t-175.5 61q-106 0 -196.5 -62.5t-106.5 -150.5l-103 1l-2 6q19 128 141.5 217t290.5 89q154 0 240 -90.5t54 -254.5 l-104 -521q-13 -59 -17 -110t0 -104h-119zM351 83q108 0 212.5 60t162.5 150l44 222h-217q-137 0 -242.5 -69t-125.5 -168q-18 -92 25 -143.5t141 -51.5zM927 1272l-4 -18h-105l-117 165l-184 -165h-103l5 21l251 216h91z" />
<glyph unicode="&#xe3;" horiz-adv-x="1014" d="M688 0q2 73 4 102.5t10 68.5q-71 -83 -172 -137.5t-213 -54.5q-136 0 -203.5 84t-39.5 219q30 157 162 240.5t337 83.5h215l26 131q25 121 -28.5 182t-175.5 61q-106 0 -196.5 -62.5t-106.5 -150.5l-103 1l-2 6q19 128 141.5 217t290.5 89q154 0 240 -90.5t54 -254.5 l-104 -521q-13 -59 -17 -110t0 -104h-119zM351 83q108 0 212.5 60t162.5 150l44 222h-217q-137 0 -242.5 -69t-125.5 -168q-18 -92 25 -143.5t141 -51.5zM996 1471q-14 -89 -73 -144.5t-136 -55.5q-62 0 -125.5 54t-113.5 54q-41 0 -76 -34.5t-43 -86.5l-72 17q14 89 72 144 t134 55q56 0 123.5 -53.5t116.5 -53.5q40 0 76.5 35t45.5 89z" />
<glyph unicode="&#xe4;" horiz-adv-x="1014" d="M688 0q2 73 4 102.5t10 68.5q-71 -83 -172 -137.5t-213 -54.5q-136 0 -203.5 84t-39.5 219q30 157 162 240.5t337 83.5h215l26 131q25 121 -28.5 182t-175.5 61q-106 0 -196.5 -62.5t-106.5 -150.5l-103 1l-2 6q19 128 141.5 217t290.5 89q154 0 240 -90.5t54 -254.5 l-104 -521q-13 -59 -17 -110t0 -104h-119zM351 83q108 0 212.5 60t162.5 150l44 222h-217q-137 0 -242.5 -69t-125.5 -168q-18 -92 25 -143.5t141 -51.5zM973 1294h-161l25 154h161zM546 1294h-162l25 154h161z" />
<glyph unicode="&#xe5;" horiz-adv-x="1014" d="M688 0q2 73 4 102.5t10 68.5q-71 -83 -172 -137.5t-213 -54.5q-136 0 -203.5 84t-39.5 219q30 157 162 240.5t337 83.5h215l26 131q25 121 -28.5 182t-175.5 61q-106 0 -196.5 -62.5t-106.5 -150.5l-103 1l-2 6q19 128 141.5 217t290.5 89q154 0 240 -90.5t54 -254.5 l-104 -521q-13 -59 -17 -110t0 -104h-119zM351 83q108 0 212.5 60t162.5 150l44 222h-217q-137 0 -242.5 -69t-125.5 -168q-18 -92 25 -143.5t141 -51.5zM536 1381q14 72 68 117t120 45q60 0 97.5 -48t24.5 -114q-16 -74 -69 -117t-117 -43q-62 0 -100 45.5t-24 114.5z M609 1381q-9 -41 10.5 -65.5t54.5 -24.5q33 0 62 25.5t37 64.5q8 42 -10 66.5t-53 24.5q-33 0 -63.5 -26.5t-37.5 -64.5z" />
<glyph unicode="&#xe6;" horiz-adv-x="1588" d="M1070 -21q-117 0 -200.5 56.5t-121.5 157.5q-61 -86 -175.5 -150t-261.5 -64q-145 0 -218 84.5t-45 223.5q32 165 150.5 248.5t315.5 83.5h238l17 87q28 139 -14.5 206.5t-154.5 67.5q-114 0 -202 -66.5t-107 -163.5l-101 11l-1 6q24 144 140.5 228.5t289.5 84.5 q103 0 174 -51t93 -147q74 95 171 146.5t204 51.5q172 0 255 -124t42 -331l-19 -98h-685l-6 -28q-40 -198 17.5 -309.5t224.5 -111.5q87 0 170 33t148 84l27 -85q-63 -54 -152 -92.5t-213 -38.5zM347 77q84 0 184.5 53t145.5 113l56 282h-235q-130 0 -223.5 -71t-112.5 -171 q-21 -101 25.5 -153.5t159.5 -52.5zM1242 980q-116 0 -216.5 -100.5t-143.5 -250.5l2 -6h561l5 31q31 152 -20 239t-188 87z" />
<glyph unicode="&#xe7;" horiz-adv-x="978" d="M460 78q104 0 198.5 67.5t112.5 184.5h100l2 -6q-20 -153 -148 -249t-281 -96q-194 0 -284.5 150t-53.5 381l7 41q38 240 170.5 384.5t334.5 144.5q158 0 252 -104t64 -270l-2 -5h-102q22 132 -44.5 205.5t-182.5 73.5q-151 0 -249 -124t-128 -305l-6 -41 q-32 -195 24 -313.5t216 -118.5zM476 -8l-25 -63q70 -9 106 -47.5t20 -119.5q-20 -95 -100 -145.5t-217 -50.5l9 76q77 0 140 30t75 88q12 60 -20 80t-127 28l51 124h88z" />
<glyph unicode="&#xe8;" horiz-adv-x="973" d="M449 -21q-179 0 -282 148t-67 372l9 54q37 236 181.5 381.5t319.5 145.5t262 -124.5t55 -328.5l-16 -100h-693l-4 -28q-30 -186 38 -303.5t213 -117.5q97 0 175.5 31t138.5 87l35 -80q-65 -63 -156.5 -100t-208.5 -37zM594 980q-115 0 -213.5 -100t-136.5 -248l2 -6h568 l5 30q23 144 -36 234t-189 90zM708 1215h-110l-183 260h151z" />
<glyph unicode="&#xe9;" horiz-adv-x="973" d="M449 -21q-179 0 -282 148t-67 372l9 54q37 236 181.5 381.5t319.5 145.5t262 -124.5t55 -328.5l-16 -100h-693l-4 -28q-30 -186 38 -303.5t213 -117.5q97 0 175.5 31t138.5 87l35 -80q-65 -63 -156.5 -100t-208.5 -37zM594 980q-115 0 -213.5 -100t-136.5 -248l2 -6h568 l5 30q23 144 -36 234t-189 90zM802 1472h138l2 -5l-268 -255h-94l-2 5z" />
<glyph unicode="&#xea;" horiz-adv-x="973" d="M449 -21q-179 0 -282 148t-67 372l9 54q37 236 181.5 381.5t319.5 145.5t262 -124.5t55 -328.5l-16 -100h-693l-4 -28q-30 -186 38 -303.5t213 -117.5q97 0 175.5 31t138.5 87l35 -80q-65 -63 -156.5 -100t-208.5 -37zM594 980q-115 0 -213.5 -100t-136.5 -248l2 -6h568 l5 30q23 144 -36 234t-189 90zM907 1272l-4 -18h-105l-117 165l-184 -165h-103l5 21l251 216h91z" />
<glyph unicode="&#xeb;" horiz-adv-x="973" d="M449 -21q-179 0 -282 148t-67 372l9 54q37 236 181.5 381.5t319.5 145.5t262 -124.5t55 -328.5l-16 -100h-693l-4 -28q-30 -186 38 -303.5t213 -117.5q97 0 175.5 31t138.5 87l35 -80q-65 -63 -156.5 -100t-208.5 -37zM594 980q-115 0 -213.5 -100t-136.5 -248l2 -6h568 l5 30q23 144 -36 234t-189 90zM953 1294h-161l25 154h161zM526 1294h-162l25 154h161z" />
<glyph unicode="&#xec;" horiz-adv-x="429" d="M188 0h-114l211 1060h115zM438 1194h-110l-183 260h151z" />
<glyph unicode="&#xed;" horiz-adv-x="429" d="M188 0h-114l211 1060h115zM531 1450h138l2 -5l-268 -255h-94l-2 5z" />
<glyph unicode="&#xee;" horiz-adv-x="429" d="M188 0h-114l211 1060h115zM638 1251l-4 -18h-105l-117 165l-184 -165h-103l5 21l251 216h91z" />
<glyph unicode="&#xef;" horiz-adv-x="429" d="M188 0h-114l211 1060h115zM684 1273h-161l25 154h161zM257 1273h-162l25 154h161z" />
<glyph unicode="&#xf0;" horiz-adv-x="1095" d="M931 1273q78 -119 98 -284t-23 -378l-17 -87q-51 -255 -203.5 -400t-345.5 -145q-177 0 -278.5 136.5t-62.5 330.5q49 246 191.5 373t345.5 127q90 0 165 -42.5t112 -110.5l4 4q13 140 -10.5 243t-78.5 177l-319 -175l-34 72l299 164q-34 30 -74.5 56t-87.5 51l55 102 q64 -30 117.5 -67t96.5 -83l263 144l33 -73zM893 612q4 20 6.5 33t4.5 25q-19 75 -90.5 124.5t-198.5 49.5q-144 0 -256 -115t-145 -283q-32 -155 33.5 -260.5t216.5 -105.5q133 0 253 127t158 317z" />
<glyph unicode="&#xf1;" d="M352 886q65 94 155.5 144t201.5 50q149 0 217 -107.5t25 -326.5l-130 -646h-113l129 645q38 195 -8.5 264t-166.5 69q-105 0 -193 -68.5t-145 -179.5l-146 -730h-113l211 1060h101zM1028 1470q-14 -89 -73 -144.5t-136 -55.5q-62 0 -125.5 54t-113.5 54q-41 0 -76 -34.5 t-43 -86.5l-72 17q14 89 72 144t134 55q56 0 123.5 -53.5t116.5 -53.5q40 0 76.5 35t45.5 89z" />
<glyph unicode="&#xf2;" d="M107 546q38 243 179.5 388.5t341.5 145.5q190 0 289.5 -151.5t62.5 -382.5l-5 -32q-39 -244 -180 -389.5t-340 -145.5q-191 0 -291 151t-62 384zM216 514q-32 -192 34 -314t220 -122q144 0 253 127t138 309l5 32q30 188 -35.5 311t-218.5 123q-146 0 -255 -128t-137 -306 zM725 1214h-110l-183 260h151z" />
<glyph unicode="&#xf3;" d="M107 546q38 243 179.5 388.5t341.5 145.5q190 0 289.5 -151.5t62.5 -382.5l-5 -32q-39 -244 -180 -389.5t-340 -145.5q-191 0 -291 151t-62 384zM216 514q-32 -192 34 -314t220 -122q144 0 253 127t138 309l5 32q30 188 -35.5 311t-218.5 123q-146 0 -255 -128t-137 -306 zM820 1471h138l2 -5l-268 -255h-94l-2 5z" />
<glyph unicode="&#xf4;" d="M107 546q38 243 179.5 388.5t341.5 145.5q190 0 289.5 -151.5t62.5 -382.5l-5 -32q-39 -244 -180 -389.5t-340 -145.5q-191 0 -291 151t-62 384zM216 514q-32 -192 34 -314t220 -122q144 0 253 127t138 309l5 32q30 188 -35.5 311t-218.5 123q-146 0 -255 -128t-137 -306 zM925 1271l-4 -18h-105l-117 165l-184 -165h-103l5 21l251 216h91z" />
<glyph unicode="&#xf5;" d="M107 546q38 243 179.5 388.5t341.5 145.5q190 0 289.5 -151.5t62.5 -382.5l-5 -32q-39 -244 -180 -389.5t-340 -145.5q-191 0 -291 151t-62 384zM216 514q-32 -192 34 -314t220 -122q144 0 253 127t138 309l5 32q30 188 -35.5 311t-218.5 123q-146 0 -255 -128t-137 -306 zM994 1470q-14 -89 -73 -144.5t-136 -55.5q-62 0 -125.5 54t-113.5 54q-41 0 -76 -34.5t-43 -86.5l-72 17q14 89 72 144t134 55q56 0 123.5 -53.5t116.5 -53.5q40 0 76.5 35t45.5 89z" />
<glyph unicode="&#xf6;" d="M107 546q38 243 179.5 388.5t341.5 145.5q190 0 289.5 -151.5t62.5 -382.5l-5 -32q-39 -244 -180 -389.5t-340 -145.5q-191 0 -291 151t-62 384zM216 514q-32 -192 34 -314t220 -122q144 0 253 127t138 309l5 32q30 188 -35.5 311t-218.5 123q-146 0 -255 -128t-137 -306 zM971 1293h-161l25 154h161zM544 1293h-162l25 154h161z" />
<glyph unicode="&#xf7;" horiz-adv-x="1071" d="M1023 631h-909l22 114h910zM711 990h-132l32 157h132zM555 208h-133l32 157h132z" />
<glyph unicode="&#xf8;" horiz-adv-x="1051" d="M107 546q38 243 179.5 388.5t341.5 145.5q59 0 111 -16t95 -47l113 173h87l-146 -222q64 -73 88.5 -182.5t3.5 -239.5l-5 -32q-39 -244 -180 -389.5t-340 -145.5q-52 0 -98 12t-86 35l-107 -163h-87l137 208q-76 71 -106 186t-6 257zM216 514q-19 -111 -4.5 -200.5 t61.5 -141.5l6 -1l495 755q-32 26 -72 40t-90 14q-146 0 -255 -128t-137 -306zM866 546q15 97 4.5 179.5t-46.5 134.5l-6 2l-489 -746q29 -19 64 -28.5t77 -9.5q144 0 253 127t138 309z" />
<glyph unicode="&#xf9;" d="M719 0l24 163q-65 -90 -154 -137t-199 -47q-147 0 -217.5 116t-22.5 351l122 614h114l-122 -616q-43 -207 1 -285t159 -78t202.5 62.5t140.5 167.5l150 749h114l-212 -1060h-100zM756 1194h-110l-183 260h151z" />
<glyph unicode="&#xfa;" d="M719 0l24 163q-65 -90 -154 -137t-199 -47q-147 0 -217.5 116t-22.5 351l122 614h114l-122 -616q-43 -207 1 -285t159 -78t202.5 62.5t140.5 167.5l150 749h114l-212 -1060h-100zM850 1450h138l2 -5l-268 -255h-94l-2 5z" />
<glyph unicode="&#xfb;" d="M719 0l24 163q-65 -90 -154 -137t-199 -47q-147 0 -217.5 116t-22.5 351l122 614h114l-122 -616q-43 -207 1 -285t159 -78t202.5 62.5t140.5 167.5l150 749h114l-212 -1060h-100zM955 1251l-4 -18h-105l-117 165l-184 -165h-103l5 21l251 216h91z" />
<glyph unicode="&#xfc;" d="M719 0l24 163q-65 -90 -154 -137t-199 -47q-147 0 -217.5 116t-22.5 351l122 614h114l-122 -616q-43 -207 1 -285t159 -78t202.5 62.5t140.5 167.5l150 749h114l-212 -1060h-100zM1001 1273h-161l25 154h161zM574 1273h-162l25 154h161z" />
<glyph unicode="&#xfd;" horiz-adv-x="925" d="M404 287l9 -119l5 -1l474 893h127l-673 -1230q-60 -107 -136.5 -182.5t-193.5 -75.5q-18 0 -45.5 4.5t-41.5 8.5l34 98q12 -1 35.5 -3.5t33.5 -2.5q65 0 122.5 56.5t101.5 137.5l80 144l-171 1045h126zM790 1450h138l2 -5l-268 -255h-94l-2 5z" />
<glyph unicode="&#xfe;" horiz-adv-x="1061" d="M961 481q-51 -254 -165 -378t-293 -124q-99 0 -176 41.5t-118 116.5l-28 -137l-81 -408h-114l293 1468h1l94 469h113l-121 -606l4 -4q58 76 138 118.5t176 42.5q168 0 249.5 -165t31.5 -413zM852 502q42 212 -13.5 344t-200.5 132q-98 0 -174 -60t-131 -156v-1l-102 -508 q25 -81 91 -128t174 -47q132 0 223 108t129 295z" />
<glyph unicode="&#xff;" horiz-adv-x="925" d="M404 287l9 -119l5 -1l474 893h127l-673 -1230q-60 -107 -136.5 -182.5t-193.5 -75.5q-18 0 -45.5 4.5t-41.5 8.5l34 98q12 -1 35.5 -3.5t33.5 -2.5q65 0 122.5 56.5t101.5 137.5l80 144l-171 1045h126zM942 1273h-161l25 154h161zM515 1273h-162l25 154h161z" />
<glyph unicode="&#x100;" horiz-adv-x="1178" d="M888 398h-604l-216 -398h-117l790 1427h106l215 -1427h-117zM341 503h532l-110 765l-5 1zM1157 1655h-613l16 95h613z" />
<glyph unicode="&#x101;" horiz-adv-x="1014" d="M688 0q2 73 4 102.5t10 68.5q-71 -83 -172 -137.5t-213 -54.5q-136 0 -203.5 84t-39.5 219q30 157 162 240.5t337 83.5h215l26 131q25 121 -28.5 182t-175.5 61q-106 0 -196.5 -62.5t-106.5 -150.5l-103 1l-2 6q19 128 141.5 217t290.5 89q154 0 240 -90.5t54 -254.5 l-104 -521q-13 -59 -17 -110t0 -104h-119zM351 83q108 0 212.5 60t162.5 150l44 222h-217q-137 0 -242.5 -69t-125.5 -168q-18 -92 25 -143.5t141 -51.5zM987 1341h-613l16 95h613z" />
<glyph unicode="&#x102;" horiz-adv-x="1178" d="M888 398h-604l-216 -398h-117l790 1427h106l215 -1427h-117zM341 503h532l-110 765l-5 1zM1133 1817l2 -6q-14 -114 -94.5 -180.5t-202.5 -66.5q-118 0 -179.5 69.5t-39.5 178.5l2 5h89q-13 -78 20 -123t121 -45q81 0 132 47.5t63 120.5h87z" />
<glyph unicode="&#x103;" horiz-adv-x="1014" d="M688 0q2 73 4 102.5t10 68.5q-71 -83 -172 -137.5t-213 -54.5q-136 0 -203.5 84t-39.5 219q30 157 162 240.5t337 83.5h215l26 131q25 121 -28.5 182t-175.5 61q-106 0 -196.5 -62.5t-106.5 -150.5l-103 1l-2 6q19 128 141.5 217t290.5 89q154 0 240 -90.5t54 -254.5 l-104 -521q-13 -59 -17 -110t0 -104h-119zM351 83q108 0 212.5 60t162.5 150l44 222h-217q-137 0 -242.5 -69t-125.5 -168q-18 -92 25 -143.5t141 -51.5zM964 1502l2 -6q-14 -114 -94.5 -180.5t-202.5 -66.5q-118 0 -179.5 69.5t-39.5 178.5l2 5h89q-13 -78 20 -123t121 -45 q81 0 132 47.5t63 120.5h87z" />
<glyph unicode="&#x104;" horiz-adv-x="1178" d="M888 398h-604l-216 -398h-117l790 1427h106l215 -1427h-117zM341 503h532l-110 765l-5 1zM1048 0q-77 -58 -121.5 -105.5t-54.5 -102.5q-7 -31 5.5 -57t59.5 -26q27 0 52.5 9.5t48.5 21.5l6 -81q-31 -19 -67 -31t-81 -12q-66 0 -105 44t-24 121q16 75 74.5 138.5 t157.5 116.5z" />
<glyph unicode="&#x105;" horiz-adv-x="1014" d="M688 0q2 73 4 102.5t10 68.5q-71 -83 -172 -137.5t-213 -54.5q-136 0 -203.5 84t-39.5 219q30 157 162 240.5t337 83.5h215l26 131q25 121 -28.5 182t-175.5 61q-106 0 -196.5 -62.5t-106.5 -150.5l-103 1l-2 6q19 128 141.5 217t290.5 89q154 0 240 -90.5t54 -254.5 l-104 -521q-13 -59 -17 -110t0 -104h-119zM351 83q108 0 212.5 60t162.5 150l44 222h-217q-137 0 -242.5 -69t-125.5 -168q-18 -92 25 -143.5t141 -51.5zM792 0q-77 -58 -121.5 -105.5t-54.5 -102.5q-7 -31 5.5 -57t59.5 -26q27 0 52.5 9.5t48.5 21.5l6 -81q-31 -19 -67 -31 t-81 -12q-66 0 -105 44t-24 121q16 75 74.5 138.5t157.5 116.5z" />
<glyph unicode="&#x106;" horiz-adv-x="1205" d="M1097 437l2 -6q-61 -217 -195 -334.5t-340 -117.5q-211 0 -333.5 178.5t-68.5 443.5l46 233q59 293 210.5 453t374.5 160q201 0 321.5 -126t93.5 -339l-2 -5h-107q14 175 -69 273t-253 98q-159 0 -284.5 -143.5t-171.5 -368.5l-47 -235q-49 -240 38.5 -381.5 t265.5 -141.5q154 0 255 88.5t158 270.5h106zM1012 1807h138l2 -5l-268 -255h-94l-2 5z" />
<glyph unicode="&#x107;" horiz-adv-x="978" d="M460 78q104 0 198.5 67.5t112.5 184.5h100l2 -6q-20 -153 -148 -249t-281 -96q-194 0 -284.5 150t-53.5 381l7 41q38 240 170.5 384.5t334.5 144.5q158 0 252 -104t64 -270l-2 -5h-102q22 132 -44.5 205.5t-182.5 73.5q-151 0 -249 -124t-128 -305l-6 -41 q-32 -195 24 -313.5t216 -118.5zM783 1471h138l2 -5l-268 -255h-94l-2 5z" />
<glyph unicode="&#x108;" horiz-adv-x="1205" d="M1097 437l2 -6q-61 -217 -195 -334.5t-340 -117.5q-211 0 -333.5 178.5t-68.5 443.5l46 233q59 293 210.5 453t374.5 160q201 0 321.5 -126t93.5 -339l-2 -5h-107q14 175 -69 273t-253 98q-159 0 -284.5 -143.5t-171.5 -368.5l-47 -235q-49 -240 38.5 -381.5 t265.5 -141.5q154 0 255 88.5t158 270.5h106zM1117 1608l-4 -18h-105l-117 165l-184 -165h-103l5 21l251 216h91z" />
<glyph unicode="&#x109;" horiz-adv-x="978" d="M460 78q104 0 198.5 67.5t112.5 184.5h100l2 -6q-20 -153 -148 -249t-281 -96q-194 0 -284.5 150t-53.5 381l7 41q38 240 170.5 384.5t334.5 144.5q158 0 252 -104t64 -270l-2 -5h-102q22 132 -44.5 205.5t-182.5 73.5q-151 0 -249 -124t-128 -305l-6 -41 q-32 -195 24 -313.5t216 -118.5zM889 1271l-4 -18h-105l-117 165l-184 -165h-103l5 21l251 216h91z" />
<glyph unicode="&#x10a;" horiz-adv-x="1205" d="M1097 437l2 -6q-61 -217 -195 -334.5t-340 -117.5q-211 0 -333.5 178.5t-68.5 443.5l46 233q59 293 210.5 453t374.5 160q201 0 321.5 -126t93.5 -339l-2 -5h-107q14 175 -69 273t-253 98q-159 0 -284.5 -143.5t-171.5 -368.5l-47 -235q-49 -240 38.5 -381.5 t265.5 -141.5q154 0 255 88.5t158 270.5h106zM935 1625h-142l32 165h142z" />
<glyph unicode="&#x10b;" horiz-adv-x="978" d="M460 78q104 0 198.5 67.5t112.5 184.5h100l2 -6q-20 -153 -148 -249t-281 -96q-194 0 -284.5 150t-53.5 381l7 41q38 240 170.5 384.5t334.5 144.5q158 0 252 -104t64 -270l-2 -5h-102q22 132 -44.5 205.5t-182.5 73.5q-151 0 -249 -124t-128 -305l-6 -41 q-32 -195 24 -313.5t216 -118.5zM707 1288h-142l32 165h142z" />
<glyph unicode="&#x10c;" horiz-adv-x="1205" d="M1097 437l2 -6q-61 -217 -195 -334.5t-340 -117.5q-211 0 -333.5 178.5t-68.5 443.5l46 233q59 293 210.5 453t374.5 160q201 0 321.5 -126t93.5 -339l-2 -5h-107q14 175 -69 273t-253 98q-159 0 -284.5 -143.5t-171.5 -368.5l-47 -235q-49 -240 38.5 -381.5 t265.5 -141.5q154 0 255 88.5t158 270.5h106zM873 1663l183 166h108l-4 -17l-258 -220h-89l-169 220l4 17h107z" />
<glyph unicode="&#x10d;" horiz-adv-x="978" d="M460 78q104 0 198.5 67.5t112.5 184.5h100l2 -6q-20 -153 -148 -249t-281 -96q-194 0 -284.5 150t-53.5 381l7 41q38 240 170.5 384.5t334.5 144.5q158 0 252 -104t64 -270l-2 -5h-102q22 132 -44.5 205.5t-182.5 73.5q-151 0 -249 -124t-128 -305l-6 -41 q-32 -195 24 -313.5t216 -118.5zM644 1326l183 166h108l-4 -17l-258 -220h-89l-169 220l4 17h107z" />
<glyph unicode="&#x10e;" horiz-adv-x="1234" d="M95 0l285 1427h351q232 0 378.5 -181t93.5 -445l-36 -185q-60 -295 -231.5 -455.5t-417.5 -160.5h-423zM472 1327l-245 -1228h311q179 0 324 145.5t192 371.5l37 188q47 235 -65 379t-315 144h-239zM800 1642l183 166h108l-4 -17l-258 -220h-89l-169 220l4 17h107z" />
<glyph unicode="&#x10f;" horiz-adv-x="1197" d="M129 541q54 271 170.5 405t298.5 134q98 0 172.5 -45.5t113.5 -128.5l124 623h113l-306 -1529h-100l20 141q-62 -77 -143 -119.5t-178 -42.5q-166 0 -250.5 154.5t-38.5 386.5zM240 520q-41 -202 14.5 -320.5t201.5 -118.5q94 0 170.5 55t133.5 149l99 499 q-22 85 -85.5 139.5t-173.5 54.5q-133 0 -225 -119t-131 -318zM1355 1408l-120 -205h-65l89 207l23 118h96z" />
<glyph unicode="&#x110;" horiz-adv-x="1264" d="M124 0l135 675h-140l20 100h140l131 652h350q233 0 379.5 -181t93.5 -445l-36 -185q-60 -295 -231.5 -455.5t-417.5 -160.5h-424zM678 675h-307l-114 -576h310q180 0 325 145.5t191 371.5l37 188q47 235 -64.5 379t-314.5 144h-239l-110 -552h307z" />
<glyph unicode="&#x111;" horiz-adv-x="1079" d="M1223 1232h-162l-246 -1232h-100l20 141q-62 -77 -143 -119.5t-178 -42.5q-166 0 -250.5 154.5t-38.5 386.5l4 21q54 271 170.5 405t298.5 134q98 0 172.5 -45.5t113.5 -128.5l65 326h-286l21 100h285l39 197h113l-39 -197h162zM240 520q-41 -202 14.5 -320.5 t201.5 -118.5q94 0 170.5 55t133.5 149l99 499q-22 85 -85.5 139.5t-173.5 54.5q-133 0 -225 -119t-131 -318z" />
<glyph unicode="&#x112;" horiz-adv-x="1085" d="M983 691h-637l-119 -592h730l-19 -99h-843l285 1427h838l-19 -100h-727l-106 -536h637zM1123 1655h-613l16 95h613z" />
<glyph unicode="&#x113;" horiz-adv-x="973" d="M449 -21q-179 0 -282 148t-67 372l9 54q37 236 181.5 381.5t319.5 145.5t262 -124.5t55 -328.5l-16 -100h-693l-4 -28q-30 -186 38 -303.5t213 -117.5q97 0 175.5 31t138.5 87l35 -80q-65 -63 -156.5 -100t-208.5 -37zM594 980q-115 0 -213.5 -100t-136.5 -248l2 -6h568 l5 30q23 144 -36 234t-189 90zM968 1341h-613l16 95h613z" />
<glyph unicode="&#x114;" horiz-adv-x="1085" d="M983 691h-637l-119 -592h730l-19 -99h-843l285 1427h838l-19 -100h-727l-106 -536h637zM1099 1817l2 -6q-14 -114 -94.5 -180.5t-202.5 -66.5q-118 0 -179.5 69.5t-39.5 178.5l2 5h89q-13 -78 20 -123t121 -45q81 0 132 47.5t63 120.5h87z" />
<glyph unicode="&#x115;" horiz-adv-x="973" d="M449 -21q-179 0 -282 148t-67 372l9 54q37 236 181.5 381.5t319.5 145.5t262 -124.5t55 -328.5l-16 -100h-693l-4 -28q-30 -186 38 -303.5t213 -117.5q97 0 175.5 31t138.5 87l35 -80q-65 -63 -156.5 -100t-208.5 -37zM594 980q-115 0 -213.5 -100t-136.5 -248l2 -6h568 l5 30q23 144 -36 234t-189 90zM944 1502l2 -6q-14 -114 -94.5 -180.5t-202.5 -66.5q-118 0 -179.5 69.5t-39.5 178.5l2 5h89q-13 -78 20 -123t121 -45q81 0 132 47.5t63 120.5h87z" />
<glyph unicode="&#x116;" horiz-adv-x="1085" d="M983 691h-637l-119 -592h730l-19 -99h-843l285 1427h838l-19 -100h-727l-106 -536h637zM880 1604h-142l32 165h142z" />
<glyph unicode="&#x117;" horiz-adv-x="973" d="M449 -21q-179 0 -282 148t-67 372l9 54q37 236 181.5 381.5t319.5 145.5t262 -124.5t55 -328.5l-16 -100h-693l-4 -28q-30 -186 38 -303.5t213 -117.5q97 0 175.5 31t138.5 87l35 -80q-65 -63 -156.5 -100t-208.5 -37zM594 980q-115 0 -213.5 -100t-136.5 -248l2 -6h568 l5 30q23 144 -36 234t-189 90zM726 1289h-142l32 165h142z" />
<glyph unicode="&#x118;" horiz-adv-x="1085" d="M983 691h-637l-119 -592h730l-19 -99h-843l285 1427h838l-19 -100h-727l-106 -536h637zM694 0q-77 -58 -121.5 -105.5t-54.5 -102.5q-7 -31 5.5 -57t59.5 -26q27 0 52.5 9.5t48.5 21.5l6 -81q-31 -19 -67 -31t-81 -12q-66 0 -105 44t-24 121q16 75 74.5 138.5 t157.5 116.5z" />
<glyph unicode="&#x119;" horiz-adv-x="973" d="M449 -21q-179 0 -282 148t-67 372l9 54q37 236 181.5 381.5t319.5 145.5t262 -124.5t55 -328.5l-16 -100h-693l-4 -28q-30 -186 38 -303.5t213 -117.5q97 0 175.5 31t138.5 87l35 -80q-65 -63 -156.5 -100t-208.5 -37zM594 980q-115 0 -213.5 -100t-136.5 -248l2 -6h568 l5 30q23 144 -36 234t-189 90zM722 59q-77 -58 -121.5 -105.5t-54.5 -102.5q-7 -31 5.5 -57t59.5 -26q27 0 52.5 9.5t48.5 21.5l6 -81q-31 -19 -67 -31t-81 -12q-66 0 -105 44t-24 121q16 75 74.5 138.5t157.5 116.5z" />
<glyph unicode="&#x11a;" horiz-adv-x="1085" d="M983 691h-637l-119 -592h730l-19 -99h-843l285 1427h838l-19 -100h-727l-106 -536h637zM818 1642l183 166h108l-4 -17l-258 -220h-89l-169 220l4 17h107z" />
<glyph unicode="&#x11b;" horiz-adv-x="973" d="M449 -21q-179 0 -282 148t-67 372l9 54q37 236 181.5 381.5t319.5 145.5t262 -124.5t55 -328.5l-16 -100h-693l-4 -28q-30 -186 38 -303.5t213 -117.5q97 0 175.5 31t138.5 87l35 -80q-65 -63 -156.5 -100t-208.5 -37zM594 980q-115 0 -213.5 -100t-136.5 -248l2 -6h568 l5 30q23 144 -36 234t-189 90zM663 1327l183 166h108l-4 -17l-258 -220h-89l-169 220l4 17h107z" />
<glyph unicode="&#x11c;" horiz-adv-x="1286" d="M1077 170q-60 -71 -189.5 -131t-309.5 -60q-217 0 -339 172t-68 437l51 262q57 282 227 439.5t400 157.5q200 0 305 -117t89 -297l-3 -6h-106q5 143 -64.5 232t-240.5 89q-165 0 -308 -142t-184 -354l-53 -264q-48 -238 39 -374t275 -136q120 0 225 40.5t147 86.5l75 372 h-349l19 100h463zM1124 1608l-4 -18h-105l-117 165l-184 -165h-103l5 21l251 216h91z" />
<glyph unicode="&#x11d;" d="M130 541q54 270 171 404.5t300 134.5q100 0 175.5 -48t113.5 -133l45 161h96l-209 -1046q-44 -219 -170 -330.5t-319 -111.5q-66 0 -145 19t-133 50l49 99q51 -30 113 -46.5t135 -16.5q134 0 229 91t127 246l23 119q-61 -74 -140 -114t-175 -40q-166 0 -251 154.5 t-39 386.5zM240 520q-41 -202 16 -320.5t203 -118.5q95 0 171.5 56.5t131.5 151.5l98 491q-20 86 -83.5 142t-173.5 56q-134 0 -227 -119.5t-132 -317.5zM946 1271l-4 -18h-105l-117 165l-184 -165h-103l5 21l251 216h91z" />
<glyph unicode="&#x11e;" horiz-adv-x="1286" d="M1077 170q-60 -71 -189.5 -131t-309.5 -60q-217 0 -339 172t-68 437l51 262q57 282 227 439.5t400 157.5q200 0 305 -117t89 -297l-3 -6h-106q5 143 -64.5 232t-240.5 89q-165 0 -308 -142t-184 -354l-53 -264q-48 -238 39 -374t275 -136q120 0 225 40.5t147 86.5l75 372 h-349l19 100h463zM1161 1838l2 -6q-14 -114 -94.5 -180.5t-202.5 -66.5q-118 0 -179.5 69.5t-39.5 178.5l2 5h89q-13 -78 20 -123t121 -45q81 0 132 47.5t63 120.5h87z" />
<glyph unicode="&#x11f;" d="M130 541q54 270 171 404.5t300 134.5q100 0 175.5 -48t113.5 -133l45 161h96l-209 -1046q-44 -219 -170 -330.5t-319 -111.5q-66 0 -145 19t-133 50l49 99q51 -30 113 -46.5t135 -16.5q134 0 229 91t127 246l23 119q-61 -74 -140 -114t-175 -40q-166 0 -251 154.5 t-39 386.5zM240 520q-41 -202 16 -320.5t203 -118.5q95 0 171.5 56.5t131.5 151.5l98 491q-20 86 -83.5 142t-173.5 56q-134 0 -227 -119.5t-132 -317.5zM982 1501l2 -6q-14 -114 -94.5 -180.5t-202.5 -66.5q-118 0 -179.5 69.5t-39.5 178.5l2 5h89q-13 -78 20 -123t121 -45 q81 0 132 47.5t63 120.5h87z" />
<glyph unicode="&#x120;" horiz-adv-x="1286" d="M1077 170q-60 -71 -189.5 -131t-309.5 -60q-217 0 -339 172t-68 437l51 262q57 282 227 439.5t400 157.5q200 0 305 -117t89 -297l-3 -6h-106q5 143 -64.5 232t-240.5 89q-165 0 -308 -142t-184 -354l-53 -264q-48 -238 39 -374t275 -136q120 0 225 40.5t147 86.5l75 372 h-349l19 100h463zM942 1625h-142l32 165h142z" />
<glyph unicode="&#x121;" d="M130 541q54 270 171 404.5t300 134.5q100 0 175.5 -48t113.5 -133l45 161h96l-209 -1046q-44 -219 -170 -330.5t-319 -111.5q-66 0 -145 19t-133 50l49 99q51 -30 113 -46.5t135 -16.5q134 0 229 91t127 246l23 119q-61 -74 -140 -114t-175 -40q-166 0 -251 154.5 t-39 386.5zM240 520q-41 -202 16 -320.5t203 -118.5q95 0 171.5 56.5t131.5 151.5l98 491q-20 86 -83.5 142t-173.5 56q-134 0 -227 -119.5t-132 -317.5zM764 1288h-142l32 165h142z" />
<glyph unicode="&#x122;" horiz-adv-x="1286" d="M1077 170q-60 -71 -189.5 -131t-309.5 -60q-217 0 -339 172t-68 437l51 262q57 282 227 439.5t400 157.5q200 0 305 -117t89 -297l-3 -6h-106q5 143 -64.5 232t-240.5 89q-165 0 -308 -142t-184 -354l-53 -264q-48 -238 39 -374t275 -136q120 0 225 40.5t147 86.5l75 372 h-349l19 100h463zM553 -253l-120 -205h-65l89 207l23 118h96z" />
<glyph unicode="&#x123;" d="M130 541q54 270 171 404.5t300 134.5q100 0 175.5 -48t113.5 -133l45 161h96l-209 -1046q-44 -219 -170 -330.5t-319 -111.5q-66 0 -145 19t-133 50l49 99q51 -30 113 -46.5t135 -16.5q134 0 229 91t127 246l23 119q-61 -74 -140 -114t-175 -40q-166 0 -251 154.5 t-39 386.5zM240 520q-41 -202 16 -320.5t203 -118.5q95 0 171.5 56.5t131.5 151.5l98 491q-20 86 -83.5 142t-173.5 56q-134 0 -227 -119.5t-132 -317.5zM651 1373l124 212h67l-79 -214l-26 -132h-113z" />
<glyph unicode="&#x124;" horiz-adv-x="1329" d="M1068 0h-112l131 657h-748l-131 -657h-113l285 1427h113l-134 -670h747l135 670h112zM1148 1587l-4 -18h-105l-117 165l-184 -165h-103l5 21l251 216h91z" />
<glyph unicode="&#x125;" d="M358 900l5 -4q62 88 152.5 136t198.5 48q146 0 214 -106t25 -320l-131 -654h-113l131 656q36 184 -10.5 253t-161.5 69q-104 0 -193.5 -65.5t-148.5 -172.5l-148 -740h-113l305 1529h114zM941 1586l-4 -18h-105l-117 165l-184 -165h-103l5 21l251 216h91z" />
<glyph unicode="&#x126;" horiz-adv-x="1298" d="M1268 1101h137l-19 -96h-136l-201 -1005h-113l131 657h-748l-131 -657h-113l201 1005h-130l20 96h129l66 326h112l-65 -326h747l66 326h113zM339 757h748l50 248h-748z" />
<glyph unicode="&#x127;" horiz-adv-x="1079" d="M757 1232h-303l-67 -332l5 -4q63 88 153 136t199 48q146 0 213.5 -106t24.5 -320l-130 -654h-114l131 656q37 184 -10 253t-161 69q-104 0 -193.5 -65.5t-148.5 -172.5l-148 -740h-114l246 1232h-143l21 100h143l39 197h114l-40 -197h303z" />
<glyph unicode="&#x128;" horiz-adv-x="516" d="M231 0h-113l285 1427h113zM818 1785q-14 -89 -73 -144.5t-136 -55.5q-62 0 -125.5 54t-113.5 54q-41 0 -76 -34.5t-43 -86.5l-72 17q14 89 72 144t134 55q56 0 123.5 -53.5t116.5 -53.5q40 0 76.5 35t45.5 89z" />
<glyph unicode="&#x129;" horiz-adv-x="429" d="M188 0h-114l211 1060h115zM707 1451q-14 -89 -73 -144.5t-136 -55.5q-62 0 -125.5 54t-113.5 54q-41 0 -76 -34.5t-43 -86.5l-72 17q14 89 72 144t134 55q56 0 123.5 -53.5t116.5 -53.5q40 0 76.5 35t45.5 89z" />
<glyph unicode="&#x12a;" horiz-adv-x="516" d="M231 0h-113l285 1427h113zM809 1655h-613l16 95h613z" />
<glyph unicode="&#x12b;" horiz-adv-x="429" d="M188 0h-114l211 1060h115zM698 1321h-613l16 95h613z" />
<glyph unicode="&#x12c;" horiz-adv-x="516" d="M231 0h-113l285 1427h113zM785 1817l2 -6q-14 -114 -94.5 -180.5t-202.5 -66.5q-118 0 -179.5 69.5t-39.5 178.5l2 5h89q-13 -78 20 -123t121 -45q81 0 132 47.5t63 120.5h87z" />
<glyph unicode="&#x12d;" horiz-adv-x="429" d="M188 0h-114l211 1060h115zM675 1481l2 -6q-14 -114 -94.5 -180.5t-202.5 -66.5q-118 0 -179.5 69.5t-39.5 178.5l2 5h89q-13 -78 20 -123t121 -45q81 0 132 47.5t63 120.5h87z" />
<glyph unicode="&#x12e;" horiz-adv-x="516" d="M231 0h-113l285 1427h113zM218 0q-77 -58 -121.5 -105.5t-54.5 -102.5q-7 -31 5.5 -57t59.5 -26q27 0 52.5 9.5t48.5 21.5l6 -81q-31 -19 -67 -31t-81 -12q-66 0 -105 44t-24 121q16 75 74.5 138.5t157.5 116.5z" />
<glyph unicode="&#x12f;" horiz-adv-x="436" d="M191 0h-113l212 1060h113zM464 1364h-113l33 165h113zM178 0q-77 -58 -121.5 -105.5t-54.5 -102.5q-7 -31 5.5 -57t59.5 -26q27 0 52.5 9.5t48.5 21.5l6 -81q-31 -19 -67 -31t-81 -12q-66 0 -105 44t-24 121q16 75 74.5 138.5t157.5 116.5z" />
<glyph unicode="&#x130;" horiz-adv-x="516" d="M231 0h-113l285 1427h113zM565 1604h-142l32 165h142z" />
<glyph unicode="&#x131;" horiz-adv-x="429" d="M188 0h-114l211 1060h115z" />
<glyph unicode="&#x132;" horiz-adv-x="1553" d="M231 0h-113l285 1427h113zM1472 1427h113l-204 -1022q-42 -209 -170 -317.5t-303 -108.5t-269.5 106.5t-53.5 307.5h113q-33 -165 26.5 -240t203.5 -75q111 0 210 90t130 237z" />
<glyph unicode="&#x133;" horiz-adv-x="889" d="M191 0h-113l212 1060h113zM464 1364h-113l33 165h113zM846 1060l-230 -1147q-35 -175 -122 -258t-222 -83q-25 0 -49.5 5t-49.5 13l33 99q13 -5 38 -9.5t43 -4.5q75 0 134 61t83 177l229 1147h113zM902 1368h-113l32 161h114z" />
<glyph unicode="&#x134;" horiz-adv-x="1036" d="M956 1427h113l-204 -1022q-42 -209 -170 -317.5t-303 -108.5t-269.5 106.5t-53.5 307.5h113q-33 -165 26.5 -240t203.5 -75q111 0 210 90t130 237zM1292 1565l-4 -18h-105l-117 165l-184 -165h-103l5 21l251 216h91z" />
<glyph unicode="&#x135;" horiz-adv-x="439" d="M409 1060l-230 -1147q-35 -175 -122 -258t-222 -83q-25 0 -49 5t-50 13l32 97q14 -5 41.5 -10t45.5 -5q73 0 131 64.5t81 176.5l229 1147h113zM643 1233l-4 -18h-105l-117 165l-184 -165h-103l5 21l251 216h91z" />
<glyph unicode="&#x136;" horiz-adv-x="1202" d="M500 677h-177l-135 -677h-114l285 1427h114l-129 -646h182l599 646h140l3 -6l-665 -702l409 -719h-132zM491 -241l-120 -205h-65l89 207l23 118h96z" />
<glyph unicode="&#x137;" horiz-adv-x="929" d="M407 516h-125l-103 -516h-113l305 1529h114l-182 -912h114l449 443h132l2 -6l-487 -477l321 -577h-136zM407 -239l-120 -205h-65l89 207l23 118h96z" />
<glyph unicode="&#x138;" horiz-adv-x="1024" d="M403 486h-123l-97 -486h-114l211 1060h115l-94 -470h119l494 470h132l2 -6l-535 -508l373 -546h-144z" />
<glyph unicode="&#x139;" horiz-adv-x="994" d="M228 99h655l-20 -99h-768l285 1427h114zM608 1724h138l2 -5l-268 -255h-94l-2 5z" />
<glyph unicode="&#x13a;" horiz-adv-x="436" d="M191 0h-113l306 1529h113zM616 1846h138l2 -5l-268 -255h-94l-2 5z" />
<glyph unicode="&#x13b;" horiz-adv-x="994" d="M228 99h655l-20 -99h-768l285 1427h114zM489 -239l-120 -205h-65l89 207l23 118h96z" />
<glyph unicode="&#x13c;" horiz-adv-x="436" d="M191 0h-113l306 1529h113zM135 -239l-120 -205h-65l89 207l23 118h96z" />
<glyph unicode="&#x13d;" horiz-adv-x="994" d="M228 99h655l-20 -99h-768l285 1427h114zM850 1307l-120 -205h-65l89 207l23 118h96z" />
<glyph unicode="&#x13e;" horiz-adv-x="583" d="M191 0h-113l306 1529h113zM743 1408l-120 -205h-65l89 207l23 118h96z" />
<glyph unicode="&#x13f;" horiz-adv-x="994" d="M228 99h655l-20 -99h-768l285 1427h114zM753 674h-142l32 165h142z" />
<glyph unicode="&#x140;" horiz-adv-x="651" d="M191 0h-113l306 1529h113zM603 687h-142l32 165h142z" />
<glyph unicode="&#x141;" horiz-adv-x="983" d="M358 800l302 97l-22 -107l-302 -97l-118 -594h654l-19 -99h-769l131 655l-150 -48l21 106l150 48l133 666h114z" />
<glyph unicode="&#x142;" horiz-adv-x="493" d="M391 844l174 67l-21 -106l-175 -68l-147 -737h-112l138 690l-177 -69l21 107l178 69l146 732h112z" />
<glyph unicode="&#x143;" horiz-adv-x="1335" d="M1074 0h-114l-501 1220h-6l-244 -1220h-114l285 1427h114l502 -1218h6l244 1218h113zM1051 1786h138l2 -5l-268 -255h-94l-2 5z" />
<glyph unicode="&#x144;" d="M352 886q65 94 155.5 144t201.5 50q149 0 217 -107.5t25 -326.5l-130 -646h-113l129 645q38 195 -8.5 264t-166.5 69q-105 0 -193 -68.5t-145 -179.5l-146 -730h-113l211 1060h101zM853 1471h138l2 -5l-268 -255h-94l-2 5z" />
<glyph unicode="&#x145;" horiz-adv-x="1335" d="M1074 0h-114l-501 1220h-6l-244 -1220h-114l285 1427h114l502 -1218h6l244 1218h113zM581 -239l-120 -205h-65l89 207l23 118h96z" />
<glyph unicode="&#x146;" d="M352 886q65 94 155.5 144t201.5 50q149 0 217 -107.5t25 -326.5l-130 -646h-113l129 645q38 195 -8.5 264t-166.5 69q-105 0 -193 -68.5t-145 -179.5l-146 -730h-113l211 1060h101zM446 -239l-120 -205h-65l89 207l23 118h96z" />
<glyph unicode="&#x147;" horiz-adv-x="1335" d="M1074 0h-114l-501 1220h-6l-244 -1220h-114l285 1427h114l502 -1218h6l244 1218h113zM912 1642l183 166h108l-4 -17l-258 -220h-89l-169 220l4 17h107z" />
<glyph unicode="&#x148;" d="M352 886q65 94 155.5 144t201.5 50q149 0 217 -107.5t25 -326.5l-130 -646h-113l129 645q38 195 -8.5 264t-166.5 69q-105 0 -193 -68.5t-145 -179.5l-146 -730h-113l211 1060h101zM714 1326l183 166h108l-4 -17l-258 -220h-89l-169 220l4 17h107z" />
<glyph unicode="&#x149;" d="M352 886q65 94 155.5 144t201.5 50q149 0 217 -107.5t25 -326.5l-130 -646h-113l129 645q38 195 -8.5 264t-166.5 69q-105 0 -193 -68.5t-145 -179.5l-146 -730h-113l211 1060h101zM330 1406l-120 -205h-65l89 207l23 118h96z" />
<glyph unicode="&#x14a;" horiz-adv-x="1316" d="M1351 1427l-302 -1514q-36 -175 -124.5 -258t-222.5 -83q-27 0 -50.5 5t-48.5 13l32 97q14 -5 41 -10t45 -5q74 0 132.5 64.5t81.5 176.5l18 87l-505 1213h-6l-242 -1213h-114l285 1427h114l504 -1214h6l243 1214h113z" />
<glyph unicode="&#x14b;" d="M352 892q65 92 154 140t199 48q150 0 217.5 -107.5t24.5 -326.5l-147 -733q-36 -175 -124 -258t-222 -83q-29 0 -56 5t-54 13l34 101q13 -5 43.5 -9.5t52.5 -4.5q74 0 131.5 62t80.5 174l147 732q38 195 -8.5 264t-165.5 69q-106 0 -191.5 -62.5t-141.5 -166.5l-149 -749 h-113l211 1060h102z" />
<glyph unicode="&#x14c;" horiz-adv-x="1267" d="M1185 592q-61 -298 -217 -455.5t-395 -157.5q-221 0 -347 177t-71 445l46 233q60 297 213 455t388 158q224 0 353.5 -177.5t75.5 -444.5zM1119 827q48 242 -45.5 380t-292.5 138q-171 0 -295.5 -139.5t-169.5 -369.5l-47 -235q-50 -244 40.5 -382t284.5 -138 q176 0 303.5 139t174.5 372zM1185 1676h-613l16 95h613z" />
<glyph unicode="&#x14d;" d="M107 546q38 243 179.5 388.5t341.5 145.5q190 0 289.5 -151.5t62.5 -382.5l-5 -32q-39 -244 -180 -389.5t-340 -145.5q-191 0 -291 151t-62 384zM216 514q-32 -192 34 -314t220 -122q144 0 253 127t138 309l5 32q30 188 -35.5 311t-218.5 123q-146 0 -255 -128t-137 -306 zM985 1340h-613l16 95h613z" />
<glyph unicode="&#x14e;" horiz-adv-x="1267" d="M1185 592q-61 -298 -217 -455.5t-395 -157.5q-221 0 -347 177t-71 445l46 233q60 297 213 455t388 158q224 0 353.5 -177.5t75.5 -444.5zM1119 827q48 242 -45.5 380t-292.5 138q-171 0 -295.5 -139.5t-169.5 -369.5l-47 -235q-50 -244 40.5 -382t284.5 -138 q176 0 303.5 139t174.5 372zM1162 1838l2 -6q-14 -114 -94.5 -180.5t-202.5 -66.5q-118 0 -179.5 69.5t-39.5 178.5l2 5h89q-13 -78 20 -123t121 -45q81 0 132 47.5t63 120.5h87z" />
<glyph unicode="&#x14f;" d="M107 546q38 243 179.5 388.5t341.5 145.5q190 0 289.5 -151.5t62.5 -382.5l-5 -32q-39 -244 -180 -389.5t-340 -145.5q-191 0 -291 151t-62 384zM216 514q-32 -192 34 -314t220 -122q144 0 253 127t138 309l5 32q30 188 -35.5 311t-218.5 123q-146 0 -255 -128t-137 -306 zM962 1501l2 -6q-14 -114 -94.5 -180.5t-202.5 -66.5q-118 0 -179.5 69.5t-39.5 178.5l2 5h89q-13 -78 20 -123t121 -45q81 0 132 47.5t63 120.5h87z" />
<glyph unicode="&#x150;" horiz-adv-x="1267" d="M1185 592q-61 -298 -217 -455.5t-395 -157.5q-221 0 -347 177t-71 445l46 233q60 297 213 455t388 158q224 0 353.5 -177.5t75.5 -444.5zM1119 827q48 242 -45.5 380t-292.5 138q-171 0 -295.5 -139.5t-169.5 -369.5l-47 -235q-50 -244 40.5 -382t284.5 -138 q176 0 303.5 139t174.5 372zM1197 1851h135l2 -6l-322 -255h-105l-2 6zM926 1851h126l2 -6l-276 -255h-94l-3 6z" />
<glyph unicode="&#x151;" d="M107 546q38 243 179.5 388.5t341.5 145.5q190 0 289.5 -151.5t62.5 -382.5l-5 -32q-39 -244 -180 -389.5t-340 -145.5q-191 0 -291 151t-62 384zM216 514q-32 -192 34 -314t220 -122q144 0 253 127t138 309l5 32q30 188 -35.5 311t-218.5 123q-146 0 -255 -128t-137 -306 zM997 1514h135l2 -6l-322 -255h-105l-2 6zM726 1514h126l2 -6l-276 -255h-94l-3 6z" />
<glyph unicode="&#x152;" horiz-adv-x="1756" d="M1586 0h-792q-90 -10 -155.5 -15.5t-130.5 -5.5q-205 0 -316 165.5t-60 419.5l60 298q55 277 219 431t388 154q62 0 135 -5.5t145 -14.5h787l-20 -100h-726l-107 -536h637l-19 -100h-637l-119 -592h730zM527 79q56 0 117.5 3.5t116.5 11.5l248 1239q-52 7 -110 11t-120 4 q-162 0 -295.5 -132t-177.5 -352l-60 -300q-48 -238 28.5 -361.5t252.5 -123.5z" />
<glyph unicode="&#x153;" horiz-adv-x="1731" d="M117 546q50 249 195.5 391.5t346.5 142.5q122 0 208.5 -70.5t118.5 -192.5q77 125 189 194t231 69q171 0 255.5 -125.5t44.5 -327.5l-19 -100h-693l-6 -28q-39 -190 24.5 -305.5t208.5 -115.5q94 0 176.5 31.5t142.5 86.5l33 -80q-68 -63 -161 -100t-211 -37 q-115 0 -202.5 70t-119.5 189q-76 -125 -189.5 -192t-248.5 -67q-185 0 -280.5 152t-49.5 383zM224 514q-40 -196 20.5 -316t216.5 -120q140 0 255.5 127.5t152.5 308.5l6 32q38 192 -22 313t-214 121q-141 0 -257 -129t-152 -305zM1387 980q-110 0 -215 -101t-149 -247 l2 -6h567l6 30q29 147 -26 235.5t-185 88.5z" />
<glyph unicode="&#x154;" horiz-adv-x="1238" d="M335 645l-129 -645h-114l285 1426h452q200 0 300 -102.5t63 -291.5q-26 -123 -104.5 -210t-200.5 -126q112 -34 152.5 -121.5t15.5 -210.5l-26 -135q-15 -70 -10.5 -120.5t32.5 -84.5l-5 -24h-116q-26 35 -27 98.5t12 132.5l27 131q27 139 -34.5 211t-202.5 72h-370z M355 745h324q166 0 270 80t129 208q29 150 -35.5 221.5t-233.5 71.5h-338zM947 1786h138l2 -5l-268 -255h-94l-2 5z" />
<glyph unicode="&#x155;" horiz-adv-x="645" d="M712 959l-82 6q-96 0 -176 -65.5t-132 -176.5l-144 -723h-113l211 1060h100l-21 -175q61 93 142 144t180 51q19 0 39.5 -3.5t32.5 -7.5zM702 1471h138l2 -5l-268 -255h-94l-2 5z" />
<glyph unicode="&#x156;" horiz-adv-x="1238" d="M335 645l-129 -645h-114l285 1426h452q200 0 300 -102.5t63 -291.5q-26 -123 -104.5 -210t-200.5 -126q112 -34 152.5 -121.5t15.5 -210.5l-26 -135q-15 -70 -10.5 -120.5t32.5 -84.5l-5 -24h-116q-26 35 -27 98.5t12 132.5l27 131q27 139 -34.5 211t-202.5 72h-370z M355 745h324q166 0 270 80t129 208q29 150 -35.5 221.5t-233.5 71.5h-338zM477 -239l-120 -205h-65l89 207l23 118h96z" />
<glyph unicode="&#x157;" horiz-adv-x="645" d="M712 959l-82 6q-96 0 -176 -65.5t-132 -176.5l-144 -723h-113l211 1060h100l-21 -175q61 93 142 144t180 51q19 0 39.5 -3.5t32.5 -7.5zM129 -235l-120 -205h-65l89 207l23 118h96z" />
<glyph unicode="&#x158;" horiz-adv-x="1238" d="M335 645l-129 -645h-114l285 1426h452q200 0 300 -102.5t63 -291.5q-26 -123 -104.5 -210t-200.5 -126q112 -34 152.5 -121.5t15.5 -210.5l-26 -135q-15 -70 -10.5 -120.5t32.5 -84.5l-5 -24h-116q-26 35 -27 98.5t12 132.5l27 131q27 139 -34.5 211t-202.5 72h-370z M355 745h324q166 0 270 80t129 208q29 150 -35.5 221.5t-233.5 71.5h-338zM808 1642l183 166h108l-4 -17l-258 -220h-89l-169 220l4 17h107z" />
<glyph unicode="&#x159;" horiz-adv-x="645" d="M712 959l-82 6q-96 0 -176 -65.5t-132 -176.5l-144 -723h-113l211 1060h100l-21 -175q61 93 142 144t180 51q19 0 39.5 -3.5t32.5 -7.5zM564 1326l183 166h108l-4 -17l-258 -220h-89l-169 220l4 17h107z" />
<glyph unicode="&#x15a;" horiz-adv-x="1132" d="M925 311q27 131 -37.5 203.5t-259.5 147.5q-208 76 -297 172t-52 279q33 161 159.5 247.5t305.5 86.5q196 0 306 -115t67 -311l-2 -5h-107q31 151 -47 241.5t-237 90.5q-121 0 -216.5 -69.5t-114.5 -163.5q-27 -133 32 -203.5t259 -147.5q208 -76 299.5 -175t56.5 -276 q-34 -166 -167 -250t-324 -84q-194 0 -326 104t-84 321l3 6h105q-37 -186 62.5 -259t258.5 -73q126 0 232 68.5t125 164.5zM959 1807h138l2 -5l-268 -255h-94l-2 5z" />
<glyph unicode="&#x15b;" horiz-adv-x="962" d="M712 270q12 77 -35 131.5t-189 89.5q-170 41 -244.5 108.5t-54.5 191.5q20 126 128 207.5t267 81.5q161 0 247.5 -89.5t61.5 -221.5l-2 -6h-106q14 91 -43.5 154t-173.5 63q-112 0 -183 -56.5t-82 -128.5q-13 -76 30 -123t191 -83q170 -42 246 -115t56 -199 q-22 -137 -134 -216.5t-278 -79.5q-173 0 -264.5 93.5t-66.5 218.5l2 6h105q-12 -115 59.5 -167t179.5 -52q112 0 191.5 56.5t91.5 135.5zM764 1471h138l2 -5l-268 -255h-94l-2 5z" />
<glyph unicode="&#x15c;" horiz-adv-x="1132" d="M925 311q27 131 -37.5 203.5t-259.5 147.5q-208 76 -297 172t-52 279q33 161 159.5 247.5t305.5 86.5q196 0 306 -115t67 -311l-2 -5h-107q31 151 -47 241.5t-237 90.5q-121 0 -216.5 -69.5t-114.5 -163.5q-27 -133 32 -203.5t259 -147.5q208 -76 299.5 -175t56.5 -276 q-34 -166 -167 -250t-324 -84q-194 0 -326 104t-84 321l3 6h105q-37 -186 62.5 -259t258.5 -73q126 0 232 68.5t125 164.5zM1064 1608l-4 -18h-105l-117 165l-184 -165h-103l5 21l251 216h91z" />
<glyph unicode="&#x15d;" horiz-adv-x="962" d="M712 270q12 77 -35 131.5t-189 89.5q-170 41 -244.5 108.5t-54.5 191.5q20 126 128 207.5t267 81.5q161 0 247.5 -89.5t61.5 -221.5l-2 -6h-106q14 91 -43.5 154t-173.5 63q-112 0 -183 -56.5t-82 -128.5q-13 -76 30 -123t191 -83q170 -42 246 -115t56 -199 q-22 -137 -134 -216.5t-278 -79.5q-173 0 -264.5 93.5t-66.5 218.5l2 6h105q-12 -115 59.5 -167t179.5 -52q112 0 191.5 56.5t91.5 135.5zM869 1271l-4 -18h-105l-117 165l-184 -165h-103l5 21l251 216h91z" />
<glyph unicode="&#x15e;" horiz-adv-x="1132" d="M925 311q27 131 -37.5 203.5t-259.5 147.5q-208 76 -297 172t-52 279q33 161 159.5 247.5t305.5 86.5q196 0 306 -115t67 -311l-2 -5h-107q31 151 -47 241.5t-237 90.5q-121 0 -216.5 -69.5t-114.5 -163.5q-27 -133 32 -203.5t259 -147.5q208 -76 299.5 -175t56.5 -276 q-34 -166 -167 -250t-324 -84q-194 0 -326 104t-84 321l3 6h105q-37 -186 62.5 -259t258.5 -73q126 0 232 68.5t125 164.5zM533 -8l-25 -63q70 -9 106 -47.5t20 -119.5q-20 -95 -100 -145.5t-217 -50.5l9 76q77 0 140 30t75 88q12 60 -20 80t-127 28l51 124h88z" />
<glyph unicode="&#x15f;" horiz-adv-x="962" d="M712 270q12 77 -35 131.5t-189 89.5q-170 41 -244.5 108.5t-54.5 191.5q20 126 128 207.5t267 81.5q161 0 247.5 -89.5t61.5 -221.5l-2 -6h-106q14 91 -43.5 154t-173.5 63q-112 0 -183 -56.5t-82 -128.5q-13 -76 30 -123t191 -83q170 -42 246 -115t56 -199 q-22 -137 -134 -216.5t-278 -79.5q-173 0 -264.5 93.5t-66.5 218.5l2 6h105q-12 -115 59.5 -167t179.5 -52q112 0 191.5 56.5t91.5 135.5zM458 -5l-25 -63q70 -9 106 -47.5t20 -119.5q-20 -95 -100 -145.5t-217 -50.5l9 76q77 0 140 30t75 88q12 60 -20 80t-127 28l51 124 h88z" />
<glyph unicode="&#x160;" horiz-adv-x="1132" d="M925 311q27 131 -37.5 203.5t-259.5 147.5q-208 76 -297 172t-52 279q33 161 159.5 247.5t305.5 86.5q196 0 306 -115t67 -311l-2 -5h-107q31 151 -47 241.5t-237 90.5q-121 0 -216.5 -69.5t-114.5 -163.5q-27 -133 32 -203.5t259 -147.5q208 -76 299.5 -175t56.5 -276 q-34 -166 -167 -250t-324 -84q-194 0 -326 104t-84 321l3 6h105q-37 -186 62.5 -259t258.5 -73q126 0 232 68.5t125 164.5zM820 1663l183 166h108l-4 -17l-258 -220h-89l-169 220l4 17h107z" />
<glyph unicode="&#x161;" horiz-adv-x="962" d="M712 270q12 77 -35 131.5t-189 89.5q-170 41 -244.5 108.5t-54.5 191.5q20 126 128 207.5t267 81.5q161 0 247.5 -89.5t61.5 -221.5l-2 -6h-106q14 91 -43.5 154t-173.5 63q-112 0 -183 -56.5t-82 -128.5q-13 -76 30 -123t191 -83q170 -42 246 -115t56 -199 q-22 -137 -134 -216.5t-278 -79.5q-173 0 -264.5 93.5t-66.5 218.5l2 6h105q-12 -115 59.5 -167t179.5 -52q112 0 191.5 56.5t91.5 135.5zM625 1326l183 166h108l-4 -17l-258 -220h-89l-169 220l4 17h107z" />
<glyph unicode="&#x162;" horiz-adv-x="1114" d="M1250 1327h-455l-265 -1327h-114l265 1327h-454l20 100h1023zM471 -245l-120 -205h-65l89 207l23 118h96z" />
<glyph unicode="&#x163;" horiz-adv-x="632" d="M507 1332l-55 -272h215l-18 -96h-216l-138 -691q-23 -111 3 -151t86 -40q25 0 53 3t58 8l-1 -87q-28 -13 -69.5 -20t-81.5 -7q-98 0 -146 71.5t-17 222.5l138 691h-169l19 96h169l55 272h115zM335 -249l-120 -205h-65l89 207l23 118h96z" />
<glyph unicode="&#x164;" horiz-adv-x="1114" d="M1250 1327h-455l-265 -1327h-114l265 1327h-454l20 100h1023zM800 1637l183 166h108l-4 -17l-258 -220h-89l-169 220l4 17h107z" />
<glyph unicode="&#x165;" horiz-adv-x="671" d="M507 1332l-55 -272h215l-18 -96h-216l-138 -691q-23 -111 3 -151t86 -40q25 0 53 3t58 8l-1 -87q-28 -13 -69.5 -20t-81.5 -7q-98 0 -146 71.5t-17 222.5l138 691h-169l19 96h169l55 272h115zM802 1411l-120 -205h-65l89 207l23 118h96z" />
<glyph unicode="&#x166;" horiz-adv-x="1114" d="M906 817h-213l-163 -817h-114l163 817h-232l21 100h232l81 410h-454l20 100h1023l-20 -100h-455l-82 -410h214z" />
<glyph unicode="&#x167;" horiz-adv-x="632" d="M507 1332l-55 -272h215l-18 -96h-216l-52 -259h257l-21 -100h-256l-66 -332q-23 -111 3 -151t86 -40q25 0 53 3t58 8l-1 -87q-28 -13 -69.5 -20t-81.5 -7q-98 0 -146 71.5t-17 222.5l66 332h-188l20 100h189l51 259h-169l19 96h169l55 272h115z" />
<glyph unicode="&#x168;" horiz-adv-x="1262" d="M1310 1427l-193 -967q-50 -249 -203.5 -365t-372.5 -116q-198 0 -310.5 125.5t-65.5 355.5l193 967h113l-193 -967q-39 -195 40 -288.5t243 -93.5q153 0 280 100.5t163 281.5l194 967h112zM1198 1785q-14 -89 -73 -144.5t-136 -55.5q-62 0 -125.5 54t-113.5 54 q-41 0 -76 -34.5t-43 -86.5l-72 17q14 89 72 144t134 55q56 0 123.5 -53.5t116.5 -53.5q40 0 76.5 35t45.5 89z" />
<glyph unicode="&#x169;" d="M719 0l24 163q-65 -90 -154 -137t-199 -47q-147 0 -217.5 116t-22.5 351l122 614h114l-122 -616q-43 -207 1 -285t159 -78t202.5 62.5t140.5 167.5l150 749h114l-212 -1060h-100zM1025 1451q-14 -89 -73 -144.5t-136 -55.5q-62 0 -125.5 54t-113.5 54q-41 0 -76 -34.5 t-43 -86.5l-72 17q14 89 72 144t134 55q56 0 123.5 -53.5t116.5 -53.5q40 0 76.5 35t45.5 89z" />
<glyph unicode="&#x16a;" horiz-adv-x="1262" d="M1310 1427l-193 -967q-50 -249 -203.5 -365t-372.5 -116q-198 0 -310.5 125.5t-65.5 355.5l193 967h113l-193 -967q-39 -195 40 -288.5t243 -93.5q153 0 280 100.5t163 281.5l194 967h112zM1189 1655h-613l16 95h613z" />
<glyph unicode="&#x16b;" d="M719 0l24 163q-65 -90 -154 -137t-199 -47q-147 0 -217.5 116t-22.5 351l122 614h114l-122 -616q-43 -207 1 -285t159 -78t202.5 62.5t140.5 167.5l150 749h114l-212 -1060h-100zM1016 1321h-613l16 95h613z" />
<glyph unicode="&#x16c;" horiz-adv-x="1262" d="M1310 1427l-193 -967q-50 -249 -203.5 -365t-372.5 -116q-198 0 -310.5 125.5t-65.5 355.5l193 967h113l-193 -967q-39 -195 40 -288.5t243 -93.5q153 0 280 100.5t163 281.5l194 967h112zM1166 1817l2 -6q-14 -114 -94.5 -180.5t-202.5 -66.5q-118 0 -179.5 69.5 t-39.5 178.5l2 5h89q-13 -78 20 -123t121 -45q81 0 132 47.5t63 120.5h87z" />
<glyph unicode="&#x16d;" d="M719 0l24 163q-65 -90 -154 -137t-199 -47q-147 0 -217.5 116t-22.5 351l122 614h114l-122 -616q-43 -207 1 -285t159 -78t202.5 62.5t140.5 167.5l150 749h114l-212 -1060h-100zM992 1481l2 -6q-14 -114 -94.5 -180.5t-202.5 -66.5q-118 0 -179.5 69.5t-39.5 178.5l2 5 h89q-13 -78 20 -123t121 -45q81 0 132 47.5t63 120.5h87z" />
<glyph unicode="&#x16e;" horiz-adv-x="1262" d="M1310 1427l-193 -967q-50 -249 -203.5 -365t-372.5 -116q-198 0 -310.5 125.5t-65.5 355.5l193 967h113l-193 -967q-39 -195 40 -288.5t243 -93.5q153 0 280 100.5t163 281.5l194 967h112zM738 1696q14 72 68 117t120 45q60 0 97.5 -48t24.5 -114q-16 -74 -69 -117 t-117 -43q-62 0 -100 45.5t-24 114.5zM811 1696q-9 -41 10.5 -65.5t54.5 -24.5q33 0 62 25.5t37 64.5q8 42 -10 66.5t-53 24.5q-33 0 -63.5 -26.5t-37.5 -64.5z" />
<glyph unicode="&#x16f;" d="M719 0l24 163q-65 -90 -154 -137t-199 -47q-147 0 -217.5 116t-22.5 351l122 614h114l-122 -616q-43 -207 1 -285t159 -78t202.5 62.5t140.5 167.5l150 749h114l-212 -1060h-100zM564 1360q14 72 68 117t120 45q60 0 97.5 -48t24.5 -114q-16 -74 -69 -117t-117 -43 q-62 0 -100 45.5t-24 114.5zM637 1360q-9 -41 10.5 -65.5t54.5 -24.5q33 0 62 25.5t37 64.5q8 42 -10 66.5t-53 24.5q-33 0 -63.5 -26.5t-37.5 -64.5z" />
<glyph unicode="&#x170;" horiz-adv-x="1262" d="M1310 1427l-193 -967q-50 -249 -203.5 -365t-372.5 -116q-198 0 -310.5 125.5t-65.5 355.5l193 967h113l-193 -967q-39 -195 40 -288.5t243 -93.5q153 0 280 100.5t163 281.5l194 967h112zM1201 1830h135l2 -6l-322 -255h-105l-2 6zM930 1830h126l2 -6l-276 -255h-94 l-3 6z" />
<glyph unicode="&#x171;" d="M719 0l24 163q-65 -90 -154 -137t-199 -47q-147 0 -217.5 116t-22.5 351l122 614h114l-122 -616q-43 -207 1 -285t159 -78t202.5 62.5t140.5 167.5l150 749h114l-212 -1060h-100zM1027 1494h135l2 -6l-322 -255h-105l-2 6zM756 1494h126l2 -6l-276 -255h-94l-3 6z" />
<glyph unicode="&#x172;" horiz-adv-x="1262" d="M1310 1427l-193 -967q-50 -249 -203.5 -365t-372.5 -116q-198 0 -310.5 125.5t-65.5 355.5l193 967h113l-193 -967q-39 -195 40 -288.5t243 -93.5q153 0 280 100.5t163 281.5l194 967h112zM782 0q-77 -58 -121.5 -105.5t-54.5 -102.5q-7 -31 5.5 -57t59.5 -26 q27 0 52.5 9.5t48.5 21.5l6 -81q-31 -19 -67 -31t-81 -12q-66 0 -105 44t-24 121q16 75 74.5 138.5t157.5 116.5z" />
<glyph unicode="&#x173;" d="M719 0l24 163q-65 -90 -154 -137t-199 -47q-147 0 -217.5 116t-22.5 351l122 614h114l-122 -616q-43 -207 1 -285t159 -78t202.5 62.5t140.5 167.5l150 749h114l-212 -1060h-100zM804 0q-77 -58 -121.5 -105.5t-54.5 -102.5q-7 -31 5.5 -57t59.5 -26q27 0 52.5 9.5 t48.5 21.5l6 -81q-31 -19 -67 -31t-81 -12q-66 0 -105 44t-24 121q16 75 74.5 138.5t157.5 116.5z" />
<glyph unicode="&#x174;" horiz-adv-x="1679" d="M408 404l6 -214l5 -1l83 215l442 1023h107l114 -1023l13 -214l6 -1l76 215l401 1023h115l-568 -1427h-106l-121 1095l-11 145l-6 1l-56 -146l-473 -1095h-108l-110 1427h116zM1277 1587l-4 -18h-105l-117 165l-184 -165h-103l5 21l251 216h91z" />
<glyph unicode="&#x175;" horiz-adv-x="1422" d="M348 344v-183l6 -2l81 185l352 716h97l66 -716l7 -190l6 -1l79 191l320 716h118l-499 -1060h-96l-72 725l-6 181h-6l-80 -181l-358 -725h-97l-75 1060h118zM1132 1251l-4 -18h-105l-117 165l-184 -165h-103l5 21l251 216h91z" />
<glyph unicode="&#x176;" horiz-adv-x="1144" d="M615 640l565 787h131l-664 -906l-104 -521h-113l106 529l-300 898h132zM1058 1580l-4 -18h-105l-117 165l-184 -165h-103l5 21l251 216h91z" />
<glyph unicode="&#x177;" horiz-adv-x="925" d="M404 287l9 -119l5 -1l474 893h127l-673 -1230q-60 -107 -136.5 -182.5t-193.5 -75.5q-18 0 -45.5 4.5t-41.5 8.5l34 98q12 -1 35.5 -3.5t33.5 -2.5q65 0 122.5 56.5t101.5 137.5l80 144l-171 1045h126zM896 1251l-4 -18h-105l-117 165l-184 -165h-103l5 21l251 216h91z " />
<glyph unicode="&#x178;" horiz-adv-x="1144" d="M615 640l565 787h131l-664 -906l-104 -521h-113l106 529l-300 898h132zM1104 1601h-161l25 154h161zM677 1601h-162l25 154h161z" />
<glyph unicode="&#x179;" horiz-adv-x="1125" d="M159 99h747l-19 -99h-871l6 90l907 1237h-677l19 100h816l-17 -85zM943 1786h138l2 -5l-268 -255h-94l-2 5z" />
<glyph unicode="&#x17a;" horiz-adv-x="925" d="M167 104l2 -5h631l-20 -99h-776l18 86l761 869l-2 4h-567l19 101h716l-17 -87zM799 1450h138l2 -5l-268 -255h-94l-2 5z" />
<glyph unicode="&#x17b;" horiz-adv-x="1125" d="M159 99h747l-19 -99h-871l6 90l907 1237h-677l19 100h816l-17 -85zM867 1604h-142l32 165h142z" />
<glyph unicode="&#x17c;" horiz-adv-x="925" d="M167 104l2 -5h631l-20 -99h-776l18 86l761 869l-2 4h-567l19 101h716l-17 -87zM723 1268h-142l32 165h142z" />
<glyph unicode="&#x17d;" horiz-adv-x="1125" d="M159 99h747l-19 -99h-871l6 90l907 1237h-677l19 100h816l-17 -85zM804 1642l183 166h108l-4 -17l-258 -220h-89l-169 220l4 17h107z" />
<glyph unicode="&#x17e;" horiz-adv-x="925" d="M167 104l2 -5h631l-20 -99h-776l18 86l761 869l-2 4h-567l19 101h716l-17 -87zM660 1306l183 166h108l-4 -17l-258 -220h-89l-169 220l4 17h107z" />
<glyph unicode="&#x17f;" horiz-adv-x="436" d="M74 0l243 1215q34 171 123.5 252.5t226.5 81.5q28 0 60 -5t61 -13l-33 -94q-22 6 -43 9t-50 3q-83 0 -147 -63t-86 -171l-243 -1215h-112z" />
<glyph unicode="&#x192;" horiz-adv-x="622" d="M637 964h-219l-167 -1051q-28 -170 -114.5 -255.5t-219.5 -85.5q-26 0 -49 5t-49 13l28 97q14 -5 41 -10t44 -5q76 0 131 64t73 177l168 1051h-164l16 96h163l25 155q26 166 114 250t224 84q29 0 60 -4.5t63 -13.5l-31 -97q-20 6 -43 9t-54 3q-85 0 -143.5 -61 t-74.5 -170l-25 -155h219z" />
<glyph unicode="&#x1a0;" horiz-adv-x="1310" d="M1199 597q-60 -294 -231 -456t-413 -162q-219 0 -331 173.5t-57 444.5l46 232q58 294 227 456t407 162q114 0 204.5 -50.5t144.5 -143.5q121 8 208.5 97.5t118.5 242.5h107l2 -4q-38 -197 -138 -303.5t-257 -128.5q21 -71 23 -153.5t-15 -174.5zM1133 831q49 246 -31 380 t-276 134q-175 0 -315 -144t-184 -370l-47 -234q-50 -248 27 -382t268 -134q180 0 322.5 143.5t188.5 372.5z" />
<glyph unicode="&#x1a1;" horiz-adv-x="1055" d="M107 546q38 243 179.5 388.5t341.5 145.5q90 0 162.5 -37.5t120.5 -104.5q105 4 179.5 78t100.5 199h98l3 -6q-31 -159 -116 -246t-222 -104q26 -65 33 -145t-7 -168l-5 -32q-39 -244 -180 -389.5t-340 -145.5q-191 0 -291 151t-62 384zM216 514q-32 -192 34 -314 t220 -122q144 0 253 127t138 309l5 32q30 188 -35.5 311t-218.5 123q-146 0 -255 -128t-137 -306z" />
<glyph unicode="&#x1af;" horiz-adv-x="1282" d="M1310 1427l-40 -199l6 -2q107 16 186 103t108 229h106l2 -6q-37 -201 -146.5 -307t-282.5 -124l-132 -661q-50 -249 -203.5 -365t-372.5 -116q-198 0 -310.5 125.5t-65.5 355.5l193 967h113l-193 -967q-39 -195 40 -288.5t243 -93.5q153 0 280 100.5t163 281.5l194 967 h112z" />
<glyph unicode="&#x1b0;" horiz-adv-x="1117" d="M1318 1187l2 -6q-28 -158 -110.5 -239t-220.5 -92l-170 -850h-100l24 163q-65 -90 -154 -137t-199 -47q-147 0 -217.5 116t-22.5 351l122 614h114l-122 -616q-43 -207 1 -285t159 -78t202.5 62.5t140.5 167.5l150 749h114l-25 -119l6 -2q82 9 137.5 72.5t79.5 175.5h89z " />
<glyph unicode="&#x1f0;" horiz-adv-x="439" d="M409 1060l-230 -1147q-35 -175 -122 -258t-222 -83q-25 0 -49 5t-50 13l32 97q14 -5 41.5 -10t45.5 -5q73 0 131 64.5t81 176.5l229 1147h113zM398 1288l183 166h108l-4 -17l-258 -220h-89l-169 220l4 17h107z" />
<glyph unicode="&#x1fa;" horiz-adv-x="1178" d="M888 398h-604l-216 -398h-117l790 1427h106l215 -1427h-117zM341 503h532l-110 765l-5 1zM1044 2041h122l2 -6l-220 -194h-82l-2 5zM709 1639q13 68 63 109.5t111 41.5q54 0 87.5 -44t20.5 -107q-13 -66 -61 -106.5t-107 -40.5q-56 0 -91.5 43t-22.5 104zM773 1639 q-8 -38 10.5 -61t52.5 -23q29 0 57.5 24.5t36.5 59.5q8 40 -10 64.5t-50 24.5q-31 0 -60 -26t-37 -63z" />
<glyph unicode="&#x1fb;" horiz-adv-x="1014" d="M688 0q2 73 4 102.5t10 68.5q-71 -83 -172 -137.5t-213 -54.5q-136 0 -203.5 84t-39.5 219q30 157 162 240.5t337 83.5h215l26 131q25 121 -28.5 182t-175.5 61q-106 0 -196.5 -62.5t-106.5 -150.5l-103 1l-2 6q19 128 141.5 217t290.5 89q154 0 240 -90.5t54 -254.5 l-104 -521q-13 -59 -17 -110t0 -104h-119zM351 83q108 0 212.5 60t162.5 150l44 222h-217q-137 0 -242.5 -69t-125.5 -168q-18 -92 25 -143.5t141 -51.5zM875 1727h122l2 -6l-220 -194h-82l-2 5zM540 1325q13 68 63 109.5t111 41.5q54 0 87.5 -44t20.5 -107 q-13 -66 -61 -106.5t-107 -40.5q-56 0 -91.5 43t-22.5 104zM604 1325q-8 -38 10.5 -61t52.5 -23q29 0 57.5 24.5t36.5 59.5q8 40 -10 64.5t-50 24.5q-31 0 -60 -26t-37 -63z" />
<glyph unicode="&#x1fc;" horiz-adv-x="1713" d="M1587 0h-749l61 381h-540l-285 -381h-139l1088 1427h794l-20 -100h-634l-85 -534h537l-21 -100h-533l-95 -594h640zM441 492h475l132 812l-6 2l-17 -34zM1257 1786h138l2 -5l-268 -255h-94l-2 5z" />
<glyph unicode="&#x1fd;" horiz-adv-x="1588" d="M1070 -21q-117 0 -200.5 56.5t-121.5 157.5q-61 -86 -175.5 -150t-261.5 -64q-145 0 -218 84.5t-45 223.5q32 165 150.5 248.5t315.5 83.5h238l17 87q28 139 -14.5 206.5t-154.5 67.5q-114 0 -202 -66.5t-107 -163.5l-101 11l-1 6q24 144 140.5 228.5t289.5 84.5 q103 0 174 -51t93 -147q74 95 171 146.5t204 51.5q172 0 255 -124t42 -331l-19 -98h-685l-6 -28q-40 -198 17.5 -309.5t224.5 -111.5q87 0 170 33t148 84l27 -85q-63 -54 -152 -92.5t-213 -38.5zM347 77q84 0 184.5 53t145.5 113l56 282h-235q-130 0 -223.5 -71t-112.5 -171 q-21 -101 25.5 -153.5t159.5 -52.5zM1242 980q-116 0 -216.5 -100.5t-143.5 -250.5l2 -6h561l5 31q31 152 -20 239t-188 87zM1109 1472h138l2 -5l-268 -255h-94l-2 5z" />
<glyph unicode="&#x1fe;" horiz-adv-x="1268" d="M1186 597q-60 -294 -231 -456t-413 -162q-79 0 -147 24.5t-119 71.5l-121 -157h-97l166 215q-61 84 -80.5 203t10.5 261l46 232q59 294 227.5 456t406.5 162q93 0 170.5 -33.5t133.5 -96.5l121 158h97l-172 -224q46 -82 59 -190t-11 -232zM268 597q-26 -121 -19.5 -215 t41.5 -153l6 -2l777 1007q-41 54 -106 82.5t-154 28.5q-175 0 -314.5 -144t-183.5 -370zM1120 831q20 100 18 181.5t-25 139.5l-6 1l-768 -995q39 -38 95 -57.5t129 -19.5q179 0 321.5 143.5t188.5 372.5zM1044 1847h138l2 -5l-268 -255h-94l-2 5z" />
<glyph unicode="&#x1ff;" horiz-adv-x="1051" d="M107 546q38 243 179.5 388.5t341.5 145.5q59 0 111 -16t95 -47l113 173h87l-146 -222q64 -73 88.5 -182.5t3.5 -239.5l-5 -32q-39 -244 -180 -389.5t-340 -145.5q-52 0 -98 12t-86 35l-107 -163h-87l137 208q-76 71 -106 186t-6 257zM216 514q-19 -111 -4.5 -200.5 t61.5 -141.5l6 -1l495 755q-32 26 -72 40t-90 14q-146 0 -255 -128t-137 -306zM866 546q15 97 4.5 179.5t-46.5 134.5l-6 2l-489 -746q29 -19 64 -28.5t77 -9.5q144 0 253 127t138 309zM803 1470h138l2 -5l-268 -255h-94l-2 5z" />
<glyph unicode="&#x218;" horiz-adv-x="1132" d="M925 311q27 131 -37.5 203.5t-259.5 147.5q-208 76 -297 172t-52 279q33 161 159.5 247.5t305.5 86.5q196 0 306 -115t67 -311l-2 -5h-107q31 151 -47 241.5t-237 90.5q-121 0 -216.5 -69.5t-114.5 -163.5q-27 -133 32 -203.5t259 -147.5q208 -76 299.5 -175t56.5 -276 q-34 -166 -167 -250t-324 -84q-194 0 -326 104t-84 321l3 6h105q-37 -186 62.5 -259t258.5 -73q126 0 232 68.5t125 164.5zM480 -259l-120 -205h-65l89 207l23 118h96z" />
<glyph unicode="&#x219;" horiz-adv-x="962" d="M712 270q12 77 -35 131.5t-189 89.5q-170 41 -244.5 108.5t-54.5 191.5q20 126 128 207.5t267 81.5q161 0 247.5 -89.5t61.5 -221.5l-2 -6h-106q14 91 -43.5 154t-173.5 63q-112 0 -183 -56.5t-82 -128.5q-13 -76 30 -123t191 -83q170 -42 246 -115t56 -199 q-22 -137 -134 -216.5t-278 -79.5q-173 0 -264.5 93.5t-66.5 218.5l2 6h105q-12 -115 59.5 -167t179.5 -52q112 0 191.5 56.5t91.5 135.5zM405 -256l-120 -205h-65l89 207l23 118h96z" />
<glyph unicode="&#x21a;" horiz-adv-x="1114" d="M1250 1327h-455l-265 -1327h-114l265 1327h-454l20 100h1023zM523 4l-25 -63q70 -9 106 -47.5t20 -119.5q-20 -95 -100 -145.5t-217 -50.5l9 76q77 0 140 30t75 88q12 60 -20 80t-127 28l51 124h88z" />
<glyph unicode="&#x21b;" horiz-adv-x="632" d="M507 1332l-55 -272h215l-18 -96h-216l-138 -691q-23 -111 3 -151t86 -40q25 0 53 3t58 8l-1 -87q-28 -13 -69.5 -20t-81.5 -7q-98 0 -146 71.5t-17 222.5l138 691h-169l19 96h169l55 272h115zM388 0l-25 -63q70 -9 106 -47.5t20 -119.5q-20 -95 -100 -145.5t-217 -50.5 l9 76q77 0 140 30t75 88q12 60 -20 80t-127 28l51 124h88z" />
<glyph unicode="&#x237;" horiz-adv-x="439" d="M409 1060l-230 -1147q-35 -175 -122 -258t-222 -83q-25 0 -49 5t-50 13l32 97q14 -5 41.5 -10t45.5 -5q73 0 131 64.5t81 176.5l229 1147h113z" />
<glyph unicode="&#x2c6;" horiz-adv-x="817" d="M826 1245l-4 -18h-105l-117 165l-184 -165h-103l5 21l251 216h91z" />
<glyph unicode="&#x2c7;" horiz-adv-x="777" d="M564 1298l183 166h108l-4 -17l-258 -220h-89l-169 220l4 17h107z" />
<glyph unicode="&#x2d8;" horiz-adv-x="798" d="M809 1427l2 -6q-14 -114 -94.5 -180.5t-202.5 -66.5q-118 0 -179.5 69.5t-39.5 178.5l2 5h89q-13 -78 20 -123t121 -45q81 0 132 47.5t63 120.5h87z" />
<glyph unicode="&#x2d9;" horiz-adv-x="457" d="M460 1262h-142l32 165h142z" />
<glyph unicode="&#x2da;" horiz-adv-x="627" d="M335 1298q14 72 68 117t120 45q60 0 97.5 -48t24.5 -114q-16 -74 -69 -117t-117 -43q-62 0 -100 45.5t-24 114.5zM408 1298q-9 -41 10.5 -65.5t54.5 -24.5q33 0 62 25.5t37 64.5q8 42 -10 66.5t-53 24.5q-33 0 -63.5 -26.5t-37.5 -64.5z" />
<glyph unicode="&#x2db;" horiz-adv-x="479" d="M240 0q-77 -58 -121.5 -105.5t-54.5 -102.5q-7 -31 5.5 -57t59.5 -26q27 0 52.5 9.5t48.5 21.5l6 -81q-31 -19 -67 -31t-81 -12q-66 0 -105 44t-24 121q16 75 74.5 138.5t157.5 116.5z" />
<glyph unicode="&#x2dc;" horiz-adv-x="828" d="M871 1451q-14 -89 -73 -144.5t-136 -55.5q-62 0 -125.5 54t-113.5 54q-41 0 -76 -34.5t-43 -86.5l-72 17q14 89 72 144t134 55q56 0 123.5 -53.5t116.5 -53.5q40 0 76.5 35t45.5 89z" />
<glyph unicode="&#x2dd;" horiz-adv-x="713" d="M804 1488h135l2 -6l-322 -255h-105l-2 6zM533 1488h126l2 -6l-276 -255h-94l-3 6z" />
<glyph unicode="&#x2f3;" horiz-adv-x="607" d="M45 -221q11 58 57.5 94.5t102.5 36.5q50 0 81.5 -38.5t22.5 -92.5q-12 -58 -56.5 -93t-99.5 -35q-52 0 -85.5 37.5t-22.5 90.5zM112 -221q-6 -27 9.5 -44t44.5 -17q25 0 48 17.5t29 43.5q5 29 -9.5 46t-42.5 17q-26 0 -50 -18t-29 -45z" />
<glyph unicode="&#x309;" horiz-adv-x="9" d="M-408 1209l25 123q85 7 122.5 25.5t46.5 66.5q10 47 -40 70t-122 23l21 75q128 0 189.5 -43.5t44.5 -125.5q-13 -73 -65 -109.5t-125 -43.5l-12 -61h-85z" />
<glyph unicode="&#x30f;" horiz-adv-x="9" d="M-335 1227h-114l-217 256l2 5h137zM-113 1227h-102l-174 261h132z" />
<glyph unicode="&#x323;" horiz-adv-x="9" d="M-606 -309h-141l34 165h141z" />
<glyph unicode="&#x384;" horiz-adv-x="483" d="M483 1585h143l-210 -323h-66z" />
<glyph unicode="&#x385;" horiz-adv-x="907" d="M923 1278h-147l30 149h147zM474 1278h-149l30 149h149zM691 1657h162l-155 -214h-84z" />
<glyph unicode="&#x386;" horiz-adv-x="1178" d="M888 398h-604l-216 -398h-117l790 1427h106l215 -1427h-117zM341 503h532l-110 765l-5 1zM490 1585h143l-210 -323h-66z" />
<glyph unicode="&#x388;" horiz-adv-x="1183" d="M1081 691h-637l-119 -592h730l-19 -99h-843l285 1427h838l-19 -100h-727l-106 -536h637zM303 1587h143l-210 -323h-66z" />
<glyph unicode="&#x389;" horiz-adv-x="1427" d="M1166 0h-112l131 657h-748l-131 -657h-113l285 1427h113l-134 -670h747l135 670h112zM330 1587h143l-210 -323h-66z" />
<glyph unicode="&#x38a;" horiz-adv-x="614" d="M329 0h-113l285 1427h113zM344 1585h143l-210 -323h-66z" />
<glyph unicode="&#x38c;" horiz-adv-x="1286" d="M1205 592q-61 -298 -217 -455.5t-395 -157.5q-221 0 -347 177t-71 445l46 233q60 297 213 455t388 158q224 0 353.5 -177.5t75.5 -444.5zM1139 827q48 242 -45.5 380t-292.5 138q-171 0 -295.5 -139.5t-169.5 -369.5l-47 -235q-50 -244 40.5 -382t284.5 -138 q176 0 303.5 139t174.5 372zM363 1585h143l-210 -323h-66z" />
<glyph unicode="&#x38e;" horiz-adv-x="1242" d="M713 640l565 787h131l-664 -906l-104 -521h-113l106 529l-300 898h132zM216 1585h143l-210 -323h-66z" />
<glyph unicode="&#x38f;" horiz-adv-x="1253" d="M629 25l17 89q141 47 255 195t165 403l23 117q49 249 -25 384t-249 135q-162 0 -298 -144.5t-182 -374.5l-24 -117q-55 -274 1 -411.5t185 -186.5l-17 -89l-5 -25h-425l20 99h273q-103 88 -145 248t-1 365l24 115q59 295 224.5 457.5t388.5 162.5q204 0 313.5 -174 t55.5 -446l-24 -115q-44 -218 -146 -373t-237 -240h271l-20 -99h-423zM388 1585h143l-210 -323h-66z" />
<glyph unicode="&#x390;" horiz-adv-x="572" d="M414 1059l-158 -790q-23 -112 2.5 -150t89.5 -38q21 0 44.5 4.5t49.5 12.5l6 -87q-34 -18 -68.5 -25t-73.5 -7q-105 0 -149.5 71t-13.5 223l157 786h114zM689 1207h-147l30 149h147zM240 1207h-149l30 149h149zM457 1586h162l-155 -214h-84z" />
<glyph unicode="&#x391;" horiz-adv-x="1178" d="M888 398h-604l-216 -398h-117l790 1427h106l215 -1427h-117zM341 503h532l-110 765l-5 1z" />
<glyph unicode="&#x392;" horiz-adv-x="1169" d="M95 0l285 1427h390q194 0 297 -95.5t67 -279.5q-24 -117 -97.5 -196t-178.5 -108q116 -25 171.5 -123.5t29.5 -227.5q-41 -204 -172.5 -300.5t-330.5 -96.5h-461zM345 688l-118 -589h348q136 0 239 79t132 217q26 136 -32 214.5t-204 78.5h-365zM365 787h318 q127 3 219.5 72t117.5 196q29 145 -39 208.5t-230 63.5h-278z" />
<glyph unicode="&#x393;" horiz-adv-x="1039" d="M1156 1327h-686l-265 -1327h-114l285 1427h800z" />
<glyph unicode="&#x394;" horiz-adv-x="1311" d="M914 1427l259 -1427h-1211l846 1427h106zM137 99h900l-204 1174l-5 1z" />
<glyph unicode="&#x395;" horiz-adv-x="1085" d="M983 691h-637l-119 -592h730l-19 -99h-843l285 1427h838l-19 -100h-727l-106 -536h637z" />
<glyph unicode="&#x396;" horiz-adv-x="1125" d="M159 99h747l-19 -99h-871l6 90l907 1237h-677l19 100h816l-17 -85z" />
<glyph unicode="&#x397;" horiz-adv-x="1329" d="M1068 0h-112l131 657h-748l-131 -657h-113l285 1427h113l-134 -670h747l135 670h112z" />
<glyph unicode="&#x398;" horiz-adv-x="1268" d="M934 662h-503l20 99h503zM1185 592q-61 -298 -217 -455.5t-395 -157.5q-221 0 -347 177t-71 445l46 233q60 297 213 455t388 158q224 0 353.5 -177.5t75.5 -444.5zM1119 827q48 242 -45.5 380t-292.5 138q-171 0 -295.5 -139.5t-169.5 -369.5l-47 -235 q-50 -244 40.5 -382t284.5 -138q176 0 303.5 139t174.5 372z" />
<glyph unicode="&#x399;" horiz-adv-x="516" d="M231 0h-113l285 1427h113z" />
<glyph unicode="&#x39a;" horiz-adv-x="1202" d="M500 677h-177l-135 -677h-114l285 1427h114l-129 -646h182l599 646h140l3 -6l-665 -702l409 -719h-132z" />
<glyph unicode="&#x39b;" horiz-adv-x="1220" d="M775 1250h-6l-667 -1250h-119l773 1427h106l202 -1427h-117z" />
<glyph unicode="&#x39c;" horiz-adv-x="1628" d="M529 1427l231 -1255l6 -1l737 1256h149l-285 -1427h-113l127 630l132 618l-6 2l-738 -1250h-78l-239 1244h-6l-112 -614l-126 -630h-113l285 1427h149z" />
<glyph unicode="&#x39d;" horiz-adv-x="1335" d="M1074 0h-114l-501 1220h-6l-244 -1220h-114l285 1427h114l502 -1218h6l244 1218h113z" />
<glyph unicode="&#x39e;" horiz-adv-x="1055" d="M48 99h839l-20 -99h-839zM270 768h656l-20 -100h-657zM323 1427h807l-20 -100h-806z" />
<glyph unicode="&#x39f;" horiz-adv-x="1267" d="M1185 592q-61 -298 -217 -455.5t-395 -157.5q-221 0 -347 177t-71 445l46 233q60 297 213 455t388 158q224 0 353.5 -177.5t75.5 -444.5zM1119 827q48 242 -45.5 380t-292.5 138q-171 0 -295.5 -139.5t-169.5 -369.5l-47 -235q-50 -244 40.5 -382t284.5 -138 q176 0 303.5 139t174.5 372z" />
<glyph unicode="&#x3a0;" horiz-adv-x="1330" d="M1069 0h-113l266 1327h-749l-265 -1327h-113l285 1427h974z" />
<glyph unicode="&#x3a1;" horiz-adv-x="1167" d="M326 593l-118 -593h-113l285 1427h460q195 0 293 -116.5t62 -300.5q-41 -202 -175 -309.5t-347 -107.5h-347zM346 693h347q151 0 256 91.5t133 223.5q28 146 -34 232.5t-228 86.5h-347z" />
<glyph unicode="&#x3a3;" horiz-adv-x="1055" d="M711 728l-568 -623l2 -5h773l-19 -100h-920l19 91l599 653l-350 592l18 91h869l-20 -100h-724l328 -564z" />
<glyph unicode="&#x3a4;" horiz-adv-x="1114" d="M1250 1327h-455l-265 -1327h-114l265 1327h-454l20 100h1023z" />
<glyph unicode="&#x3a5;" horiz-adv-x="1144" d="M615 640l565 787h131l-664 -906l-104 -521h-113l106 529l-300 898h132z" />
<glyph unicode="&#x3a6;" horiz-adv-x="1344" d="M893 1243h3q217 0 342 -152t81 -374q-48 -243 -222.5 -385.5t-411.5 -142.5h-3l-37 -189h-114l37 189q-219 0 -343.5 151t-79.5 375q48 241 222 384.5t412 143.5l37 184h114zM873 1143l-171 -855h5q178 0 319 121t179 308q41 200 -46.5 313t-281.5 113h-4zM759 1143 q-181 0 -323 -121.5t-178 -306.5q-41 -203 45 -314.5t281 -106.5l5 1l171 848h-1z" />
<glyph unicode="&#x3a7;" horiz-adv-x="1156" d="M640 817l468 610h139l-553 -704l338 -723h-135l-285 629l-484 -629h-138l571 723l-329 704h137z" />
<glyph unicode="&#x3a8;" horiz-adv-x="1305" d="M708 452l4 -3q154 11 282 127.5t165 301.5l110 549h114l-110 -549q-51 -257 -208 -390.5t-380 -146.5l-68 -341h-114l68 342q-198 17 -304 159.5t-59 376.5l110 549h113l-110 -549q-41 -201 33.5 -310.5t232.5 -118.5l6 1l195 977h115z" />
<glyph unicode="&#x3a9;" horiz-adv-x="1233" d="M609 25l17 89q141 47 255 195t165 403l23 117q49 249 -25 384t-249 135q-162 0 -298 -144.5t-182 -374.5l-24 -117q-55 -274 1 -411.5t185 -186.5l-17 -89l-5 -25h-425l20 99h273q-103 88 -145 248t-1 365l24 115q59 295 224.5 457.5t388.5 162.5q204 0 313.5 -174 t55.5 -446l-24 -115q-44 -218 -146 -373t-237 -240h271l-20 -99h-423z" />
<glyph unicode="&#x3aa;" horiz-adv-x="516" d="M231 0h-113l285 1427h113zM795 1608h-161l25 154h161zM368 1608h-162l25 154h161z" />
<glyph unicode="&#x3ab;" horiz-adv-x="1144" d="M615 640l565 787h131l-664 -906l-104 -521h-113l106 529l-300 898h132zM1104 1601h-161l25 154h161zM677 1601h-162l25 154h161z" />
<glyph unicode="&#x3ac;" horiz-adv-x="1061" d="M1027 1060l-158 -791q-22 -109 -6.5 -146.5t59.5 -37.5q10 0 22 2t24 6l-2 -91q-24 -13 -46.5 -18t-48.5 -5q-67 0 -101.5 46t-28.5 144q-68 -92 -154.5 -141t-191.5 -49q-166 0 -243 145t-30 377l3 20q54 271 181.5 415t309.5 144q97 0 164 -54t99 -150l50 184h98z M236 501q-41 -204 7 -313.5t193 -109.5q98 0 181.5 64t145.5 173l84 413q-17 112 -71.5 182t-157.5 70q-133 0 -236 -131t-142 -328zM814 1548h143l-210 -323h-66z" />
<glyph unicode="&#x3ad;" horiz-adv-x="1023" d="M691 514l-4 -22h-171q-133 0 -219 -50.5t-106 -152.5q-20 -101 44.5 -155t203.5 -54q123 0 222.5 65.5t118.5 158.5h104l2 -6q-28 -164 -161.5 -240t-305.5 -76q-169 0 -270 83.5t-73 225.5q21 102 85.5 165t173.5 91q-81 34 -120 96t-23 135q30 153 146.5 226t300.5 73 q154 0 255.5 -84t70.5 -213l-2 -6h-105q19 95 -49 149.5t-190 54.5q-127 0 -211.5 -57t-100.5 -141q-20 -95 34.5 -142.5t194.5 -47.5h171l-5 -23h1l-6 -24l-5 -29h-1zM747 1547h143l-210 -323h-66z" />
<glyph unicode="&#x3ae;" d="M353 893q65 91 154 139t198 48q152 0 219 -105t23 -329l-211 -1053h-114l211 1052q38 195 -8.5 265t-165.5 70q-105 0 -190 -62t-141 -165l-150 -753h-113l211 1060h101zM772 1548h143l-210 -323h-66z" />
<glyph unicode="&#x3af;" horiz-adv-x="572" d="M414 1059l-158 -790q-23 -112 2.5 -150t89.5 -38q21 0 44.5 4.5t49.5 12.5l6 -87q-34 -18 -68.5 -25t-73.5 -7q-105 0 -149.5 71t-13.5 223l157 786h114zM469 1527h143l-210 -323h-66z" />
<glyph unicode="&#x3b0;" d="M387 1060l-117 -592q-44 -214 10 -302t184 -88q138 0 237 130t136 310q26 142 24.5 275.5t-23.5 266.5h122q21 -120 22 -246t-32 -294q-52 -257 -174 -399t-327 -142q-175 0 -258.5 122t-34.5 369l117 590h114zM982 1207h-147l30 149h147zM533 1207h-149l30 149h149z M750 1586h162l-155 -214h-84z" />
<glyph unicode="&#x3b1;" horiz-adv-x="1061" d="M1027 1060l-158 -791q-22 -109 -6.5 -146.5t59.5 -37.5q10 0 22 2t24 6l-2 -91q-24 -13 -46.5 -18t-48.5 -5q-67 0 -101.5 46t-28.5 144q-68 -92 -154.5 -141t-191.5 -49q-166 0 -243 145t-30 377l3 20q54 271 181.5 415t309.5 144q97 0 164 -54t99 -150l50 184h98z M236 501q-41 -204 7 -313.5t193 -109.5q98 0 181.5 64t145.5 173l84 413q-17 112 -71.5 182t-157.5 70q-133 0 -236 -131t-142 -328z" />
<glyph unicode="&#x3b2;" horiz-adv-x="1115" d="M753 1447q157 0 244 -106.5t56 -269.5q-23 -107 -86 -186.5t-159 -121.5q112 -40 162 -139t25 -228q-42 -209 -173.5 -313t-319.5 -104q-82 0 -160 32.5t-124 95.5l-100 -498h-115l287 1433q36 182 168.5 293.5t294.5 111.5zM537 807h84q128 0 210.5 72t109.5 197 q22 117 -30 194.5t-178 77.5q-107 0 -205 -89t-123 -217l-164 -819q28 -68 99.5 -106.5t172.5 -38.5q135 0 236.5 86t130.5 228q28 146 -32 230.5t-201 84.5h-131l17 80z" />
<glyph unicode="&#x3b3;" horiz-adv-x="925" d="M896 1060h117l-567 -1026l-88 -441h-114l88 439l-159 1028h118l111 -794l7 -119l6 -1l56 120z" />
<glyph unicode="&#x3b4;" d="M1071 1427l-19 -98h-486q241 -174 352 -371.5t69 -411.5l-6 -32q-51 -251 -196 -393t-346 -142q-186 0 -281.5 152t-49.5 383l6 32q46 230 185 367.5t333 149.5q11 0 30 -2t32 -7l3 6q-50 63 -129 134.5t-169 141.5l17 91h655zM221 514q-40 -196 21 -316t217 -120 q140 0 255.5 128t152.5 308l6 32q31 152 -9 254t-107 161q-25 7 -60 13t-60 6q-142 0 -258 -129t-152 -305z" />
<glyph unicode="&#x3b5;" horiz-adv-x="1023" d="M691 514l-4 -22h-171q-133 0 -219 -50.5t-106 -152.5q-20 -101 44.5 -155t203.5 -54q123 0 222.5 65.5t118.5 158.5h104l2 -6q-28 -164 -161.5 -240t-305.5 -76q-169 0 -270 83.5t-73 225.5q21 102 85.5 165t173.5 91q-81 34 -120 96t-23 135q30 153 146.5 226t300.5 73 q154 0 255.5 -84t70.5 -213l-2 -6h-105q19 95 -49 149.5t-190 54.5q-127 0 -211.5 -57t-100.5 -141q-20 -95 34.5 -142.5t194.5 -47.5h171l-5 -23h1l-6 -24l-5 -29h-1z" />
<glyph unicode="&#x3b6;" horiz-adv-x="942" d="M1053 1427l-14 -72l-458 -498q-145 -153 -216.5 -268t-94.5 -233q-25 -123 25.5 -190t178.5 -67h61q113 0 169 -55.5t38 -153.5q-21 -96 -104 -172t-173 -110l-27 85q61 25 120 76t74 117q11 59 -17.5 86.5t-106.5 27.5h-71q-160 0 -235 103.5t-45 249.5 q23 120 104.5 256t242.5 304l390 408l-3 6h-635l19 100h778z" />
<glyph unicode="&#x3b7;" d="M353 893q65 91 154 139t198 48q152 0 219 -105t23 -329l-211 -1053h-114l211 1052q38 195 -8.5 265t-165.5 70q-105 0 -190 -62t-141 -165l-150 -753h-113l211 1060h101z" />
<glyph unicode="&#x3b8;" horiz-adv-x="1078" d="M981 554q-59 -294 -194 -434.5t-333 -140.5q-182 0 -268.5 152t-31.5 423l64 318q57 293 193 434t334 141q182 0 268 -152t32 -423zM309 760h599l27 132q46 233 -7.5 344.5t-202.5 111.5q-136 0 -242 -121t-148 -335zM888 660h-600l-24 -124q-46 -231 7 -344.5 t202 -113.5q137 0 242 122t148 336z" />
<glyph unicode="&#x3b9;" horiz-adv-x="572" d="M414 1059l-158 -790q-23 -112 2.5 -150t89.5 -38q21 0 44.5 4.5t49.5 12.5l6 -87q-34 -18 -68.5 -25t-73.5 -7q-105 0 -149.5 71t-13.5 223l157 786h114z" />
<glyph unicode="&#x3ba;" horiz-adv-x="1024" d="M403 486h-123l-97 -486h-114l211 1060h115l-94 -470h119l494 470h132l2 -6l-535 -508l373 -546h-144z" />
<glyph unicode="&#x3bb;" d="M97 0h-126l582 1032l-24 158q-11 93 -39 145.5t-91 52.5q-9 0 -29 -2.5t-34 -3.5l15 93q13 4 39.5 8.5t45.5 4.5q101 0 148 -79.5t60 -179.5l140 -946q10 -87 34.5 -138.5t69.5 -51.5q11 0 25.5 1.5t27.5 4.5l-16 -99q-11 -4 -31 -7.5t-34 -3.5q-86 0 -131 72t-63 186 l-92 629l-5 1l-52 -109z" />
<glyph unicode="&#x3bc;" d="M393 1060l-124 -621l1 1q-45 -218 2.5 -290t161.5 -72q116 0 197 61t132 172l150 749h114l-212 -1060h-98l19 141q-59 -80 -137 -121t-178 -41q-74 0 -132 30.5t-87 96.5l-102 -514h-113l293 1468h113z" />
<glyph unicode="&#x3bd;" horiz-adv-x="925" d="M406 266l11 -119l6 -1l52 120l393 794h118l-544 -1060h-90l-206 1060h118z" />
<glyph unicode="&#x3be;" horiz-adv-x="963" d="M1036 1427l-20 -100h-231q-142 -5 -236.5 -75t-114.5 -175q-23 -115 42 -170t234 -55h119l-17 -82l-4 -19h-119q-172 0 -301.5 -88t-163.5 -258q-31 -152 52 -233.5t256 -81.5h47q122 0 182 -58t41 -161q-20 -93 -102.5 -166t-172.5 -106l-25 86q61 23 119 70.5t72 111.5 q13 64 -17.5 94.5t-111.5 30.5h-51q-212 0 -327 111.5t-76 305.5q32 161 129.5 259.5t249.5 137.5q-96 37 -142 108.5t-29 158.5q18 89 63.5 152t116.5 102h-222l20 100h740z" />
<glyph unicode="&#x3bf;" d="M107 546q38 243 179.5 388.5t341.5 145.5q190 0 289.5 -151.5t62.5 -382.5l-5 -32q-39 -244 -180 -389.5t-340 -145.5q-191 0 -291 151t-62 384zM216 514q-32 -192 34 -314t220 -122q144 0 253 127t138 309l5 32q30 188 -35.5 311t-218.5 123q-146 0 -255 -128t-137 -306 z" />
<glyph unicode="&#x3c0;" horiz-adv-x="1122" d="M1129 959h-142l-137 -690q-23 -112 2.5 -150t89.5 -38q21 0 44 4.5t50 12.5l6 -87q-35 -18 -69 -25t-73 -7q-105 0 -149.5 71t-13.5 223l136 686h-440l-191 -959h-114l191 959h-132l20 101h942z" />
<glyph unicode="&#x3c1;" d="M959 501q-51 -253 -174.5 -387.5t-304.5 -134.5q-96 0 -166 41.5t-108 115.5l-109 -544h-114l199 995h1l1 9q48 245 182 364.5t311 119.5q178 0 257 -154.5t29 -404.5zM850 521q43 216 -2.5 337.5t-189.5 121.5q-133 0 -233.5 -122.5t-129.5 -273.5l-65 -322 q21 -86 80 -135t163 -49q134 0 234.5 118t138.5 305z" />
<glyph unicode="&#x3c2;" horiz-adv-x="1008" d="M660 1080q150 0 240 -101.5t55 -277.5h-109q27 138 -29.5 208.5t-176.5 70.5q-140 0 -249.5 -126.5t-144.5 -302.5l-8 -41q-37 -186 27.5 -295t235.5 -128q135 -16 190 -66t35 -152q-19 -93 -101.5 -165.5t-172.5 -106.5l-27 85q62 24 120.5 71.5t70.5 110.5 q12 62 -21.5 88.5t-125.5 36.5q-211 24 -301 161t-45 360l8 41q48 243 189.5 386t339.5 143z" />
<glyph unicode="&#x3c3;" d="M1146 959h-285q87 -67 119 -178t4 -253l-7 -32q-47 -235 -193 -376t-345 -141q-186 0 -281.5 152t-49.5 383l6 32q48 239 192.5 376t345.5 138h513zM221 514q-40 -196 21 -316t217 -120q140 0 255.5 128t152.5 308l6 32q37 183 -24.5 298t-215.5 115q-142 0 -257 -122.5 t-149 -290.5z" />
<glyph unicode="&#x3c4;" horiz-adv-x="965" d="M998 960h-357l-191 -960h-114l191 960h-343l20 100h813z" />
<glyph unicode="&#x3c5;" d="M387 1060l-117 -592q-44 -214 10 -302t184 -88q138 0 237 130t136 310q26 142 24.5 275.5t-23.5 266.5h122q21 -120 22 -246t-32 -294q-52 -257 -174 -399t-327 -142q-175 0 -258.5 122t-34.5 369l117 590h114z" />
<glyph unicode="&#x3c6;" horiz-adv-x="1291" d="M826 1060q196 0 312 -157t70 -389q-46 -229 -197.5 -373t-399.5 -160l-91 -449h-114l90 450q-225 19 -318.5 175t-46.5 386q35 171 88.5 281.5t141.5 235.5h122q-88 -127 -149.5 -256t-88.5 -262q-39 -192 20 -316.5t247 -137.5l5 1l194 971h115zM632 90l5 -3 q173 14 299 140t159 287q34 181 -43 312t-242 127l-5 -1z" />
<glyph unicode="&#x3c7;" horiz-adv-x="1008" d="M279 1071q93 0 140.5 -75t69.5 -174l64 -318l6 -2l382 558h117l-476 -698l99 -486q25 -103 43 -145.5t61 -42.5q12 0 26.5 2t28.5 4l-18 -101q-11 -5 -30.5 -8t-33.5 -3q-80 0 -123 61.5t-70 196.5l-76 375l-6 2l-423 -623h-121l521 763l-87 424q-22 98 -46 142.5 t-85 44.5q-11 0 -32 -2t-32 -4l15 97q14 4 40.5 8t45.5 4z" />
<glyph unicode="&#x3c8;" horiz-adv-x="1287" d="M821 1059l-194 -968l5 -2q185 14 308 152t162 325q23 127 13.5 250.5t-42.5 243.5h124q31 -111 40 -226t-22 -267q-55 -268 -202.5 -420t-406.5 -166l-84 -415h-113l83 416q-206 19 -304 169t-41 430l95 479h114l-96 -481q-51 -254 17.5 -368.5t230.5 -122.5l6 1l194 970 h113z" />
<glyph unicode="&#x3c9;" horiz-adv-x="1611" d="M509 1060q-93 -133 -157.5 -266.5t-93.5 -275.5q-40 -200 -1.5 -320t170.5 -120q108 0 199.5 96t132.5 294l56 287h115l-57 -287q-43 -214 6 -302t169 -88t214 128t132 312q26 142 14.5 275.5t-50.5 266.5h123q38 -120 49 -246t-23 -294q-51 -252 -170.5 -396.5 t-302.5 -144.5q-110 0 -179 63.5t-84 188.5q-62 -132 -154.5 -192t-214.5 -60q-169 0 -237 154.5t-21 386.5q35 181 93 297t149 243h123z" />
<glyph unicode="&#x3ca;" horiz-adv-x="572" d="M414 1059l-158 -790q-23 -112 2.5 -150t89.5 -38q21 0 44.5 4.5t49.5 12.5l6 -87q-34 -18 -68.5 -25t-73.5 -7q-105 0 -149.5 71t-13.5 223l157 786h114zM702 1273h-161l25 154h161zM275 1273h-162l25 154h161z" />
<glyph unicode="&#x3cb;" d="M387 1060l-117 -592q-44 -214 10 -302t184 -88q138 0 237 130t136 310q26 142 24.5 275.5t-23.5 266.5h122q21 -120 22 -246t-32 -294q-52 -257 -174 -399t-327 -142q-175 0 -258.5 122t-34.5 369l117 590h114zM995 1273h-161l25 154h161zM568 1273h-162l25 154h161z" />
<glyph unicode="&#x3cc;" d="M107 546q38 243 179.5 388.5t341.5 145.5q190 0 289.5 -151.5t62.5 -382.5l-5 -32q-39 -244 -180 -389.5t-340 -145.5q-191 0 -291 151t-62 384zM216 514q-32 -192 34 -314t220 -122q144 0 253 127t138 309l5 32q30 188 -35.5 311t-218.5 123q-146 0 -255 -128t-137 -306 zM739 1548h143l-210 -323h-66z" />
<glyph unicode="&#x3cd;" d="M387 1060l-117 -592q-44 -214 10 -302t184 -88q138 0 237 130t136 310q26 142 24.5 275.5t-23.5 266.5h122q21 -120 22 -246t-32 -294q-52 -257 -174 -399t-327 -142q-175 0 -258.5 122t-34.5 369l117 590h114zM762 1527h143l-210 -323h-66z" />
<glyph unicode="&#x3ce;" horiz-adv-x="1611" d="M509 1060q-93 -133 -157.5 -266.5t-93.5 -275.5q-40 -200 -1.5 -320t170.5 -120q108 0 199.5 96t132.5 294l56 287h115l-57 -287q-43 -214 6 -302t169 -88t214 128t132 312q26 142 14.5 275.5t-50.5 266.5h123q38 -120 49 -246t-23 -294q-51 -252 -170.5 -396.5 t-302.5 -144.5q-110 0 -179 63.5t-84 188.5q-62 -132 -154.5 -192t-214.5 -60q-169 0 -237 154.5t-21 386.5q35 181 93 297t149 243h123zM1034 1527h143l-210 -323h-66z" />
<glyph unicode="&#x3d1;" horiz-adv-x="1157" d="M516 81q160 0 285.5 120.5t168.5 336.5l7 35q-188 9 -292.5 133.5t-68.5 308.5l13 61q35 180 131.5 275.5t223.5 95.5q121 0 180.5 -100.5t26.5 -270.5l-108 -538q-56 -277 -211.5 -418t-375.5 -141q-192 0 -293.5 157.5t-52.5 401.5l137 689l115 2l-138 -691 q-45 -220 22.5 -338.5t229.5 -118.5zM730 1013q-30 -150 39 -239t225 -92l5 1l79 393q27 140 -2 204.5t-113 64.5q-72 0 -133.5 -69.5t-86.5 -199.5z" />
<glyph unicode="&#x3d2;" horiz-adv-x="1010" d="M873 1214q71 122 136.5 173t143.5 51q26 0 50.5 -7t42.5 -19l-41 -92q-6 5 -21 10t-32 5q-42 0 -84 -29t-90 -111l-378 -605l-118 -590h-114l118 588l-138 607q-18 83 -47.5 111.5t-71.5 28.5q-18 0 -34 -5t-25 -10l-2 92q22 12 47.5 19t53.5 7q72 0 120 -52.5t71 -171.5 l90 -417l10 -103l5 -1l53 104z" />
<glyph unicode="&#x3d6;" horiz-adv-x="1476" d="M1546 959h-150q17 -96 17 -202t-25 -237q-51 -252 -162 -396.5t-275 -144.5q-102 0 -167 62t-78 184q-60 -129 -148 -187.5t-201 -58.5q-153 0 -211.5 154.5t-11.5 386.5q28 140 69 242.5t98 196.5h-135l19 101h1381zM1275 518q22 114 19.5 224t-24.5 217h-844 q-64 -108 -110 -218t-69 -223q-40 -199 -9.5 -319.5t143.5 -120.5q101 0 187 96t126 294l52 264h114l-52 -264q-43 -214 1.5 -302t155.5 -88q102 0 187.5 129t122.5 311z" />
<glyph unicode="&#x400;" horiz-adv-x="1085" d="M983 691h-637l-119 -592h730l-19 -99h-843l285 1427h838l-19 -100h-727l-106 -536h637zM862 1530h-110l-183 260h151z" />
<glyph unicode="&#x401;" horiz-adv-x="1085" d="M983 691h-637l-119 -592h730l-19 -99h-843l285 1427h838l-19 -100h-727l-106 -536h637zM1108 1608h-161l25 154h161zM681 1608h-162l25 154h161z" />
<glyph unicode="&#x402;" horiz-adv-x="1399" d="M1258 1327h-514l-105 -528q87 29 170 48.5t143 19.5q199 0 304 -115t61 -337q-39 -193 -171.5 -308.5t-341.5 -111.5l-5 3l15 86q148 0 254.5 95t134.5 236q34 175 -38.5 261.5t-233.5 86.5q-62 0 -145 -19t-168 -48l-139 -696h-113l264 1327h-395l20 100h1023z" />
<glyph unicode="&#x403;" horiz-adv-x="1039" d="M1156 1327h-686l-265 -1327h-114l285 1427h800zM951 1786h138l2 -5l-268 -255h-94l-2 5z" />
<glyph unicode="&#x404;" horiz-adv-x="1244" d="M1104 438l2 -6q-60 -217 -194 -334.5t-341 -117.5q-210 0 -332.5 178.5t-68.5 443.5l46 233q58 293 210 453t375 160q201 0 321.5 -126t93.5 -339l-2 -5h-108q15 174 -68 272t-253 98q-159 0 -285 -143t-171 -368l-12 -65h550l-20 -99h-551l-14 -71q-49 -240 38.5 -381.5 t265.5 -141.5q154 0 255 88.5t158 270.5h105z" />
<glyph unicode="&#x405;" horiz-adv-x="1132" d="M925 311q27 131 -37.5 203.5t-259.5 147.5q-208 76 -297 172t-52 279q33 161 159.5 247.5t305.5 86.5q196 0 306 -115t67 -311l-2 -5h-107q31 151 -47 241.5t-237 90.5q-121 0 -216.5 -69.5t-114.5 -163.5q-27 -133 32 -203.5t259 -147.5q208 -76 299.5 -175t56.5 -276 q-34 -166 -167 -250t-324 -84q-194 0 -326 104t-84 321l3 6h105q-37 -186 62.5 -259t258.5 -73q126 0 232 68.5t125 164.5z" />
<glyph unicode="&#x406;" horiz-adv-x="516" d="M231 0h-113l285 1427h113z" />
<glyph unicode="&#x407;" horiz-adv-x="516" d="M231 0h-113l285 1427h113zM795 1608h-161l25 154h161zM368 1608h-162l25 154h161z" />
<glyph unicode="&#x408;" horiz-adv-x="1036" d="M956 1427h113l-204 -1022q-42 -209 -170 -317.5t-303 -108.5t-269.5 106.5t-53.5 307.5h113q-33 -165 26.5 -240t203.5 -75q111 0 210 90t130 237z" />
<glyph unicode="&#x409;" horiz-adv-x="2018" d="M1348 1427l-120 -598h332q195 0 293 -117t63 -297q-40 -197 -175 -306t-346 -109h-447l264 1327h-507l-126 -546q-100 -427 -223.5 -604t-348.5 -177h-38l19 99h35q149 0 250 149t193 533l148 646h734zM1208 730l-126 -631h332q150 0 256.5 93t132.5 224 q28 139 -35.5 226.5t-226.5 87.5h-333z" />
<glyph unicode="&#x40a;" horiz-adv-x="2023" d="M359 769h747l133 658h113l-124 -619h333q195 0 294 -113t64 -289q-39 -193 -173 -299.5t-347 -106.5h-445l133 670h-748l-133 -670h-114l285 1427h114zM1208 708l-120 -604h332q151 0 256 88t130 216q27 134 -37.5 217t-227.5 83h-333z" />
<glyph unicode="&#x40b;" horiz-adv-x="1512" d="M1261 1327h-510l-107 -535q89 24 173.5 37.5t177.5 13.5q205 0 302.5 -105.5t51.5 -332.5l-81 -405h-114l82 405q38 194 -25.5 266t-235.5 72q-81 0 -171.5 -13.5t-179.5 -37.5l-138 -692h-114l265 1327h-399l20 100h1023z" />
<glyph unicode="&#x40c;" horiz-adv-x="1202" d="M500 677h-177l-135 -677h-114l285 1427h114l-129 -646h182l599 646h140l3 -6l-665 -702l409 -719h-132zM926 1786h138l2 -5l-268 -255h-94l-2 5z" />
<glyph unicode="&#x40d;" horiz-adv-x="1335" d="M1246 1427h113l-285 -1427h-114l242 1212l-5 2l-989 -1214h-113l285 1427h113l-243 -1212l6 -2zM962 1530h-110l-183 260h151z" />
<glyph unicode="&#x40e;" horiz-adv-x="1180" d="M599 647l29 -139l6 -1l558 920h133l-741 -1184q-81 -122 -161.5 -193t-212.5 -71q-21 0 -48 3.5t-35 7.5l28 95q10 -3 34.5 -5t41.5 -2q73 0 132 51.5t117 140.5l69 103l-288 1054h129zM1120 1817l2 -6q-14 -114 -94.5 -180.5t-202.5 -66.5q-118 0 -179.5 69.5 t-39.5 178.5l2 5h89q-13 -78 20 -123t121 -45q81 0 132 47.5t63 120.5h87z" />
<glyph unicode="&#x40f;" horiz-adv-x="1326" d="M377 1427h114l-266 -1328h748l266 1328h113l-285 -1427h-425l-70 -346h-113l69 346h-436z" />
<glyph unicode="&#x410;" horiz-adv-x="1178" d="M888 398h-604l-216 -398h-117l790 1427h106l215 -1427h-117zM341 503h532l-110 765l-5 1z" />
<glyph unicode="&#x411;" horiz-adv-x="1180" d="M1149 1327h-686l-104 -521h331q196 0 295.5 -111t64.5 -290q-40 -195 -174 -300t-347 -105h-446l285 1427h800zM338 706l-120 -607h331q152 0 255.5 88.5t130.5 219.5q26 136 -37 217.5t-228 81.5h-332z" />
<glyph unicode="&#x412;" horiz-adv-x="1169" d="M95 0l285 1427h390q194 0 297 -95.5t67 -279.5q-24 -117 -97.5 -196t-178.5 -108q116 -25 171.5 -123.5t29.5 -227.5q-41 -204 -172.5 -300.5t-330.5 -96.5h-461zM345 688l-118 -589h348q136 0 239 79t132 217q26 136 -32 214.5t-204 78.5h-365zM365 787h318 q127 3 219.5 72t117.5 196q29 145 -39 208.5t-230 63.5h-278z" />
<glyph unicode="&#x413;" horiz-adv-x="1039" d="M1156 1327h-686l-265 -1327h-114l285 1427h800z" />
<glyph unicode="&#x414;" horiz-adv-x="1364" d="M1092 99h144l-98 -445h-105l69 346h-1003l-70 -346h-100l77 445h90q91 82 203.5 277t194.5 537l127 514h736zM608 913q-69 -279 -172.5 -489t-211.5 -325h754l245 1228h-513z" />
<glyph unicode="&#x415;" horiz-adv-x="1085" d="M983 691h-637l-119 -592h730l-19 -99h-843l285 1427h838l-19 -100h-727l-106 -536h637z" />
<glyph unicode="&#x416;" horiz-adv-x="1656" d="M1087 681h-150l-136 -681h-113l136 681h-153l-584 -681h-137l-2 5l633 732l-318 690h136l284 -646h161l129 646h113l-130 -646h157l543 646h130l2 -5l-590 -684l345 -738h-145z" />
<glyph unicode="&#x417;" horiz-adv-x="1120" d="M467 778h159q163 0 267 74.5t129 202.5q28 139 -42 216t-244 77q-131 0 -247.5 -83.5t-141.5 -210.5h-105l-1 5q31 185 177.5 286.5t337.5 101.5q199 0 307 -104t72 -291q-25 -116 -103 -200.5t-201 -124.5q116 -39 166.5 -126t25.5 -214q-41 -203 -192 -305.5 t-368 -102.5q-178 0 -299 107.5t-77 304.5l2 5h107q-29 -146 49.5 -232t236.5 -86q161 0 279.5 84t145.5 221q33 162 -42 228t-259 66h-159l11 53l6 28z" />
<glyph unicode="&#x418;" horiz-adv-x="1335" d="M1246 1427h113l-285 -1427h-114l242 1212l-5 2l-989 -1214h-113l285 1427h113l-243 -1212l6 -2z" />
<glyph unicode="&#x419;" horiz-adv-x="1335" d="M1246 1427h113l-285 -1427h-114l242 1212l-5 2l-989 -1214h-113l285 1427h113l-243 -1212l6 -2zM1199 1817l2 -6q-14 -114 -94.5 -180.5t-202.5 -66.5q-118 0 -179.5 69.5t-39.5 178.5l2 5h89q-13 -78 20 -123t121 -45q81 0 132 47.5t63 120.5h87z" />
<glyph unicode="&#x41a;" horiz-adv-x="1202" d="M500 677h-177l-135 -677h-114l285 1427h114l-129 -646h182l599 646h140l3 -6l-665 -702l409 -719h-132z" />
<glyph unicode="&#x41b;" horiz-adv-x="1321" d="M1348 1427l-286 -1427h-114l264 1327h-563l-126 -546q-97 -426 -211.5 -603.5t-314.5 -177.5h-37l19 99h34q127 0 218 149.5t179 532.5l149 646h789z" />
<glyph unicode="&#x41c;" horiz-adv-x="1628" d="M529 1427l231 -1255l6 -1l737 1256h149l-285 -1427h-113l127 630l132 618l-6 2l-738 -1250h-78l-239 1244h-6l-112 -614l-126 -630h-113l285 1427h149z" />
<glyph unicode="&#x41d;" horiz-adv-x="1329" d="M1068 0h-112l131 657h-748l-131 -657h-113l285 1427h113l-134 -670h747l135 670h112z" />
<glyph unicode="&#x41e;" horiz-adv-x="1267" d="M1185 592q-61 -298 -217 -455.5t-395 -157.5q-221 0 -347 177t-71 445l46 233q60 297 213 455t388 158q224 0 353.5 -177.5t75.5 -444.5zM1119 827q48 242 -45.5 380t-292.5 138q-171 0 -295.5 -139.5t-169.5 -369.5l-47 -235q-50 -244 40.5 -382t284.5 -138 q176 0 303.5 139t174.5 372z" />
<glyph unicode="&#x41f;" horiz-adv-x="1330" d="M1069 0h-113l266 1327h-749l-265 -1327h-113l285 1427h974z" />
<glyph unicode="&#x420;" horiz-adv-x="1167" d="M326 593l-118 -593h-113l285 1427h460q195 0 293 -116.5t62 -300.5q-41 -202 -175 -309.5t-347 -107.5h-347zM346 693h347q151 0 256 91.5t133 223.5q28 146 -34 232.5t-228 86.5h-347z" />
<glyph unicode="&#x421;" horiz-adv-x="1205" d="M1097 437l2 -6q-61 -217 -195 -334.5t-340 -117.5q-211 0 -333.5 178.5t-68.5 443.5l46 233q59 293 210.5 453t374.5 160q201 0 321.5 -126t93.5 -339l-2 -5h-107q14 175 -69 273t-253 98q-159 0 -284.5 -143.5t-171.5 -368.5l-47 -235q-49 -240 38.5 -381.5 t265.5 -141.5q154 0 255 88.5t158 270.5h106z" />
<glyph unicode="&#x422;" horiz-adv-x="1114" d="M1250 1327h-455l-265 -1327h-114l265 1327h-454l20 100h1023z" />
<glyph unicode="&#x423;" horiz-adv-x="1180" d="M599 647l29 -139l6 -1l558 920h133l-741 -1184q-81 -122 -161.5 -193t-212.5 -71q-21 0 -48 3.5t-35 7.5l28 95q10 -3 34.5 -5t41.5 -2q73 0 132 51.5t117 140.5l69 103l-288 1054h129z" />
<glyph unicode="&#x424;" horiz-adv-x="1400" d="M932 1282h25q225 0 353 -163t81 -402q-52 -260 -233.5 -413.5t-426.5 -153.5h-25l-42 -209h-114l41 209h-23q-226 0 -353.5 162.5t-79.5 402.5q51 260 232.5 413.5t427.5 153.5h22l41 204h115zM912 1183l-186 -933h27q186 0 334 132t189 335q44 220 -45 343t-292 123h-27 zM774 1183q-188 0 -337 -133t-189 -335q-44 -222 45 -343.5t295 -121.5h24l186 933h-24z" />
<glyph unicode="&#x425;" horiz-adv-x="1156" d="M640 817l468 610h139l-553 -704l338 -723h-135l-285 629l-484 -629h-138l571 723l-329 704h137z" />
<glyph unicode="&#x426;" horiz-adv-x="1343" d="M372 1427h113l-265 -1328h747l1 2l266 1326h113l-266 -1326h130l-98 -445h-103l69 344h-992z" />
<glyph unicode="&#x427;" horiz-adv-x="1254" d="M1281 1427l-285 -1427h-114l130 651q-97 -29 -186.5 -43t-188.5 -14q-206 0 -303 105t-50 333l79 395h114l-78 -395q-40 -195 23.5 -266.5t235.5 -71.5q87 0 183 14t191 43l135 676h114z" />
<glyph unicode="&#x428;" horiz-adv-x="1739" d="M488 1427l-266 -1328h529l265 1328h114l-266 -1328h526l265 1328h115l-285 -1427h-1396l285 1427h114z" />
<glyph unicode="&#x429;" horiz-adv-x="1773" d="M488 1427l-266 -1328h529l265 1328h114l-266 -1328h526l265 1328h115l-266 -1327h130l-97 -444h-105l68 344h-1411l285 1427h114z" />
<glyph unicode="&#x42a;" horiz-adv-x="1453" d="M200 1427h554l-125 -621h331q196 0 295.5 -111t64.5 -290q-39 -195 -173.5 -300t-346.5 -105h-446l264 1327h-438zM610 706l-122 -607h331q152 0 256 88.5t130 219.5q27 136 -36.5 217.5t-227.5 81.5h-331z" />
<glyph unicode="&#x42b;" horiz-adv-x="1572" d="M367 806h331q196 0 295.5 -111t63.5 -290q-39 -195 -173 -300t-347 -105h-446l285 1427h115zM347 706l-122 -607h332q152 0 255.5 88.5t130.5 219.5q26 136 -37 217.5t-228 81.5h-331zM1309 0h-113l285 1427h113z" />
<glyph unicode="&#x42c;" horiz-adv-x="1154" d="M359 806h331q196 0 295.5 -111t64.5 -290q-40 -195 -174 -300t-347 -105h-446l285 1427h115zM339 706l-121 -607h331q152 0 255.5 88.5t130.5 219.5q26 136 -37 217.5t-228 81.5h-331z" />
<glyph unicode="&#x42d;" horiz-adv-x="1243" d="M273 981l-2 6q41 223 193.5 342t372.5 119q206 0 314 -175.5t55 -442.5l-46 -232q-58 -291 -225 -454.5t-392 -163.5q-204 0 -315.5 123.5t-64.5 336.5l2 5h106q-37 -184 40 -275t252 -91q160 0 299.5 146.5t185.5 370.5l18 95h-555l19 100h556l8 39q48 243 -27 380.5 t-251 137.5q-160 0 -281 -96t-157 -271h-105z" />
<glyph unicode="&#x42e;" horiz-adv-x="1706" d="M1624 592q-61 -298 -217 -455.5t-395 -157.5q-221 0 -347 177t-71 445l10 50h-245l-130 -651h-113l285 1427h113l-136 -677h245l17 84q60 297 213 455t388 158q224 0 353.5 -177.5t75.5 -444.5zM1558 827q48 242 -45.5 380t-292.5 138q-171 0 -295.5 -139.5 t-169.5 -369.5l-47 -235q-50 -244 40.5 -382t284.5 -138q176 0 303.5 139t174.5 372z" />
<glyph unicode="&#x42f;" horiz-adv-x="1154" d="M132 0h-122l440 618q-124 47 -173 139.5t-18 240.5q39 201 188 315t347 114h406l-285 -1427h-114l116 583h-377zM1066 1327h-292q-168 0 -269 -82t-134 -245q-27 -139 41.5 -227.5t204.5 -88.5h320z" />
<glyph unicode="&#x430;" horiz-adv-x="1014" d="M688 0q2 73 4 102.5t10 68.5q-71 -83 -172 -137.5t-213 -54.5q-136 0 -203.5 84t-39.5 219q30 157 162 240.5t337 83.5h215l26 131q25 121 -28.5 182t-175.5 61q-106 0 -196.5 -62.5t-106.5 -150.5l-103 1l-2 6q19 128 141.5 217t290.5 89q154 0 240 -90.5t54 -254.5 l-104 -521q-13 -59 -17 -110t0 -104h-119zM351 83q108 0 212.5 60t162.5 150l44 222h-217q-137 0 -242.5 -69t-125.5 -168q-18 -92 25 -143.5t141 -51.5z" />
<glyph unicode="&#x431;" horiz-adv-x="1036" d="M636 990q183 0 279.5 -134.5t64.5 -340.5l-5 -32q-37 -230 -176.5 -367t-339.5 -137q-190 0 -291 143t-66 361l5 32l3 16v4l16 102q51 319 198.5 500t360.5 216q139 23 201.5 60.5t73.5 108.5h88l2 -6q-18 -138 -104.5 -191t-254.5 -75q-142 -19 -256 -126.5t-162 -289.5 l3 -5q63 73 158.5 117t201.5 44zM602 891q-145 0 -251 -111t-131 -265l-4 -32q-29 -177 37.5 -291t220.5 -114q145 0 252.5 118.5t134.5 286.5l5 32q26 164 -42 270t-222 106z" />
<glyph unicode="&#x432;" horiz-adv-x="1055" d="M74 0l212 1060h364q173 0 267 -72t67 -211q-19 -86 -75 -146.5t-146 -85.5q92 -20 136.5 -90.5t26.5 -160.5q-31 -153 -141 -223.5t-284 -70.5h-427zM285 488l-77 -390h312q113 0 193 52t99 146t-36.5 143t-176.5 49h-314zM305 586h260q123 0 205 48.5t100 139.5 q20 101 -40 143.5t-200 42.5h-250z" />
<glyph unicode="&#x433;" horiz-adv-x="795" d="M870 959h-495l-192 -959h-113l211 1060h609z" />
<glyph unicode="&#x434;" horiz-adv-x="1083" d="M61 99q98 104 167.5 220.5t128.5 357.5l93 383h586l-192 -961h104l-91 -411h-104l62 312h-737l-62 -312h-100l73 411h72zM469 677q-49 -208 -121 -348t-159 -230h541l171 852h-365z" />
<glyph unicode="&#x435;" horiz-adv-x="973" d="M449 -21q-179 0 -282 148t-67 372l9 54q37 236 181.5 381.5t319.5 145.5t262 -124.5t55 -328.5l-16 -100h-693l-4 -28q-30 -186 38 -303.5t213 -117.5q97 0 175.5 31t138.5 87l35 -80q-65 -63 -156.5 -100t-208.5 -37zM594 980q-115 0 -213.5 -100t-136.5 -248l2 -6h568 l5 30q23 144 -36 234t-189 90z" />
<glyph unicode="&#x436;" horiz-adv-x="1441" d="M916 490h-129l-98 -490h-115l98 490h-128l-457 -490h-136l-3 6l515 545l-263 509h137l226 -465h130l93 465h115l-93 -465h131l411 465h133l2 -5l-463 -505l300 -550h-145z" />
<glyph unicode="&#x437;" horiz-adv-x="955" d="M515 592q119 0 190 50t89 138q18 93 -30.5 145.5t-174.5 52.5q-99 0 -188 -58.5t-107 -145.5h-103l-2 6q23 140 143.5 218.5t276.5 78.5q158 0 242.5 -79t55.5 -220q-16 -83 -72.5 -144.5t-145.5 -91.5q84 -31 121 -95.5t18 -155.5q-31 -154 -148 -231.5t-291 -77.5 q-145 0 -246.5 83t-67.5 233l3 6h107q-20 -101 42.5 -162.5t181.5 -61.5q117 0 201 58t102 151q22 112 -30 156.5t-187 44.5h-152l5 24l16 78h151z" />
<glyph unicode="&#x438;" horiz-adv-x="1061" d="M921 1060h115l-212 -1060h-114l171 857l-6 1l-692 -858h-112l211 1060h113l-173 -859l6 -2z" />
<glyph unicode="&#x439;" horiz-adv-x="1061" d="M921 1060h115l-212 -1060h-114l171 857l-6 1l-692 -858h-112l211 1060h113l-173 -859l6 -2zM986 1481l2 -6q-14 -114 -94.5 -180.5t-202.5 -66.5q-118 0 -179.5 69.5t-39.5 178.5l2 5h89q-13 -78 20 -123t121 -45q81 0 132 47.5t63 120.5h87z" />
<glyph unicode="&#x43a;" horiz-adv-x="980" d="M430 486h-149l-97 -486h-114l211 1060h115l-94 -470h147l454 470h134l3 -6l-503 -507l340 -547h-150z" />
<glyph unicode="&#x43b;" horiz-adv-x="1062" d="M1037 1060l-212 -1060h-115l192 959h-412l-73 -367q-66 -331 -158.5 -461.5t-258.5 -130.5h-40l22 105l35 1q94 0 163.5 110t123.5 376l93 468h640z" />
<glyph unicode="&#x43c;" horiz-adv-x="1375" d="M640 167l6 -1l563 894h141l-211 -1060h-114l170 848l-6 2l-539 -850h-81l-202 867h-6l-173 -867h-114l212 1060h149z" />
<glyph unicode="&#x43d;" horiz-adv-x="1061" d="M824 0h-114l97 486h-526l-97 -486h-113l211 1060h114l-95 -475h525l95 475h115z" />
<glyph unicode="&#x43e;" d="M107 546q38 243 179.5 388.5t341.5 145.5q190 0 289.5 -151.5t62.5 -382.5l-5 -32q-39 -244 -180 -389.5t-340 -145.5q-191 0 -291 151t-62 384zM216 514q-32 -192 34 -314t220 -122q144 0 253 127t138 309l5 32q30 188 -35.5 311t-218.5 123q-146 0 -255 -128t-137 -306 z" />
<glyph unicode="&#x43f;" horiz-adv-x="1061" d="M824 0h-114l191 959h-526l-191 -959h-113l211 1060h754z" />
<glyph unicode="&#x440;" d="M957 481q-51 -254 -165 -378t-293 -124q-99 0 -176 41.5t-118 115.5l-109 -544h-114l293 1468h96l-16 -151q62 82 144 126.5t181 44.5q168 0 249.5 -165t31.5 -413zM848 502q42 212 -13.5 344t-200.5 132q-98 0 -174 -60t-130 -156l-103 -510q25 -80 91.5 -127t173.5 -47 q132 0 223.5 108t128.5 295z" />
<glyph unicode="&#x441;" horiz-adv-x="978" d="M460 78q104 0 198.5 67.5t112.5 184.5h100l2 -6q-20 -153 -148 -249t-281 -96q-194 0 -284.5 150t-53.5 381l7 41q38 240 170.5 384.5t334.5 144.5q158 0 252 -104t64 -270l-2 -5h-102q22 132 -44.5 205.5t-182.5 73.5q-151 0 -249 -124t-128 -305l-6 -41 q-32 -195 24 -313.5t216 -118.5z" />
<glyph unicode="&#x442;" horiz-adv-x="912" d="M971 960h-358l-191 -960h-112l191 960h-344l19 100h815z" />
<glyph unicode="&#x443;" horiz-adv-x="925" d="M404 287l9 -119l5 -1l474 893h127l-673 -1230q-60 -107 -136.5 -182.5t-193.5 -75.5q-18 0 -45.5 4.5t-41.5 8.5l34 98q12 -1 35.5 -3.5t33.5 -2.5q65 0 122.5 56.5t101.5 137.5l80 144l-171 1045h126z" />
<glyph unicode="&#x444;" horiz-adv-x="1362" d="M125 521q54 272 174.5 415.5t293.5 143.5q46 0 84 -13t68 -35l99 497h112l-98 -496q36 22 80 34.5t95 12.5q158 0 226.5 -155t18.5 -404l-4 -20q-51 -254 -169 -388t-290 -134q-50 0 -89.5 12.5t-68.5 35.5l-88 -435h-112l86 431q-37 -22 -80 -33t-92 -11 q-156 0 -226.5 144.5t-22.5 377.5zM1164 521q43 215 1 337t-177 122q-46 0 -84 -12t-66 -32l-164 -821q22 -17 55 -27t80 -10q124 0 219 118t132 305zM236 501q-41 -205 1 -314t178 -109q41 0 78.5 11.5t69.5 30.5l163 821q-19 17 -51 28t-79 11q-125 0 -221 -130.5 t-135 -328.5z" />
<glyph unicode="&#x445;" horiz-adv-x="925" d="M491 627l333 433h128l3 -5l-414 -515l261 -540h-133l-203 452l-350 -452h-128l-3 5l431 535l-250 520h133z" />
<glyph unicode="&#x446;" horiz-adv-x="1076" d="M282 1060h114l-192 -961h525l192 961h115l-192 -961h101l-91 -414h-104l62 315h-741z" />
<glyph unicode="&#x447;" horiz-adv-x="1004" d="M767 0h-113l88 445q-66 -25 -134.5 -38.5t-131.5 -13.5q-178 0 -258.5 93.5t-37.5 305.5l53 268h113l-53 -268q-36 -178 12.5 -238t191.5 -60q65 1 134 14.5t131 35.5l103 516h114z" />
<glyph unicode="&#x448;" horiz-adv-x="1492" d="M396 1060l-192 -961h432l192 961h115l-192 -961h429l192 961h114l-212 -1060h-1203l211 1060h114z" />
<glyph unicode="&#x449;" horiz-adv-x="1511" d="M391 1060l-192 -961h432l192 961h115l-192 -961h429l192 961h114l-192 -960h119l-91 -415h-104l63 315h-1210l211 1060h114z" />
<glyph unicode="&#x44a;" horiz-adv-x="1183" d="M514 675h280q160 0 241.5 -95t52.5 -241q-33 -160 -144.5 -249.5t-284.5 -89.5h-393l191 960h-312l20 100h426zM494 575l-95 -476h279q117 0 196.5 69.5t99.5 168.5q21 104 -26.5 171t-174.5 67h-279z" />
<glyph unicode="&#x44b;" horiz-adv-x="1415" d="M322 675h281q159 0 241 -95t53 -241q-33 -160 -144.5 -249.5t-285.5 -89.5h-393l212 1060h114zM303 575l-95 -476h279q117 0 196 69.5t100 168.5q21 104 -26.5 171t-174.5 67h-279zM1165 0h-114l211 1060h115z" />
<glyph unicode="&#x44c;" horiz-adv-x="1009" d="M322 675h281q159 0 241 -95t53 -241q-33 -160 -144.5 -249.5t-285.5 -89.5h-393l212 1060h114zM303 575l-95 -476h279q117 0 196 69.5t100 168.5q21 104 -26.5 171t-174.5 67h-279z" />
<glyph unicode="&#x44d;" horiz-adv-x="1008" d="M589 980q-99 0 -193.5 -67t-117.5 -184h-102l-2 6q27 157 155 251t280 94q180 0 270 -153t45 -376l-8 -41q-49 -245 -189.5 -388t-336.5 -143q-150 0 -240.5 105t-56.5 275h111q-28 -139 31.5 -210t174.5 -71q133 0 240 118.5t143 283.5l-3 6h-433l19 99h440 q30 179 -26 287t-201 108z" />
<glyph unicode="&#x44e;" horiz-adv-x="1527" d="M304 577h271q44 230 183.5 366.5t332.5 136.5q190 0 289.5 -151.5t62.5 -382.5l-5 -32q-40 -244 -181 -389.5t-340 -145.5q-183 0 -283 140t-74 359h-276l-95 -478h-115l212 1060h115zM678 514q-31 -192 34.5 -314t220.5 -122q144 0 253 127t138 309l5 32q29 188 -36 311 t-218 123q-146 0 -255.5 -128t-136.5 -306z" />
<glyph unicode="&#x44f;" horiz-adv-x="1024" d="M996 1060l-212 -1060h-114l86 427h-300l-328 -427h-125l339 444q-92 30 -133.5 111t-20.5 189q30 148 139 232t279 84h390zM301 742q-20 -95 22 -155t148 -60h304l87 433h-276q-112 0 -190 -64.5t-95 -153.5z" />
<glyph unicode="&#x450;" horiz-adv-x="973" d="M449 -21q-179 0 -282 148t-67 372l9 54q37 236 181.5 381.5t319.5 145.5t262 -124.5t55 -328.5l-16 -100h-693l-4 -28q-30 -186 38 -303.5t213 -117.5q97 0 175.5 31t138.5 87l35 -80q-65 -63 -156.5 -100t-208.5 -37zM594 980q-115 0 -213.5 -100t-136.5 -248l2 -6h568 l5 30q23 144 -36 234t-189 90zM708 1215h-110l-183 260h151z" />
<glyph unicode="&#x451;" horiz-adv-x="973" d="M449 -21q-179 0 -282 148t-67 372l9 54q37 236 181.5 381.5t319.5 145.5t262 -124.5t55 -328.5l-16 -100h-693l-4 -28q-30 -186 38 -303.5t213 -117.5q97 0 175.5 31t138.5 87l35 -80q-65 -63 -156.5 -100t-208.5 -37zM594 980q-115 0 -213.5 -100t-136.5 -248l2 -6h568 l5 30q23 144 -36 234t-189 90zM953 1294h-161l25 154h161zM526 1294h-162l25 154h161z" />
<glyph unicode="&#x452;" horiz-adv-x="1051" d="M699 1210h-279l-62 -310l5 -4q62 88 152.5 136t198.5 48q146 0 214 -106t25 -320l-47 -229h1l-85 -425l-17 -87q-36 -175 -123.5 -258t-222.5 -83q-29 0 -56 5t-53 13l33 96q13 -4 43.5 -9t51.5 -5q74 0 132 64.5t81 176.5l18 87l85 425l46 231q36 184 -10.5 253 t-161.5 69q-104 0 -193.5 -65.5t-148.5 -172.5l-148 -740h-113l242 1210h-168l21 100h166l44 219h114l-44 -219h279z" />
<glyph unicode="&#x453;" horiz-adv-x="795" d="M870 959h-495l-192 -959h-113l211 1060h609zM710 1450h138l2 -5l-268 -255h-94l-2 5z" />
<glyph unicode="&#x454;" horiz-adv-x="1008" d="M471 78q104 0 198.5 67.5t113.5 184.5h100l2 -6q-21 -153 -148.5 -249t-280.5 -96q-194 0 -285 150t-53 381l6 41q39 240 171 384.5t335 144.5q158 0 252 -104t64 -270l-2 -5h-102q21 132 -45 205.5t-183 73.5q-145 0 -241 -113.5t-125 -280.5l3 -6h442l-20 -99h-446 q-24 -183 33.5 -293t210.5 -110z" />
<glyph unicode="&#x455;" horiz-adv-x="962" d="M712 270q12 77 -35 131.5t-189 89.5q-170 41 -244.5 108.5t-54.5 191.5q20 126 128 207.5t267 81.5q161 0 247.5 -89.5t61.5 -221.5l-2 -6h-106q14 91 -43.5 154t-173.5 63q-112 0 -183 -56.5t-82 -128.5q-13 -76 30 -123t191 -83q170 -42 246 -115t56 -199 q-22 -137 -134 -216.5t-278 -79.5q-173 0 -264.5 93.5t-66.5 218.5l2 6h105q-12 -115 59.5 -167t179.5 -52q112 0 191.5 56.5t91.5 135.5z" />
<glyph unicode="&#x456;" horiz-adv-x="436" d="M191 0h-113l212 1060h113zM464 1364h-113l33 165h113z" />
<glyph unicode="&#x457;" horiz-adv-x="429" d="M188 0h-114l211 1060h115zM684 1273h-161l25 154h161zM257 1273h-162l25 154h161z" />
<glyph unicode="&#x458;" horiz-adv-x="453" d="M410 1060l-230 -1147q-35 -175 -122 -258t-222 -83q-25 0 -49.5 5t-49.5 13l33 99q13 -5 38 -9.5t43 -4.5q75 0 134 61t83 177l229 1147h113zM466 1368h-113l32 161h114z" />
<glyph unicode="&#x459;" horiz-adv-x="1604" d="M1019 1060l-85 -424h280q160 0 242.5 -89.5t55.5 -227.5q-30 -149 -141 -234t-284 -85h-394l191 959h-394l-73 -367q-66 -330 -160.5 -461t-262.5 -131h-39l22 101h35q94 0 166 113t125 378l93 468h623zM914 537l-87 -439h279q116 0 195.5 66t97.5 157q19 95 -30 155.5 t-174 60.5h-281z" />
<glyph unicode="&#x45a;" horiz-adv-x="1617" d="M312 639h525l84 421h115l-85 -424h280q159 0 241 -89.5t56 -227.5q-31 -149 -141 -234t-284 -85h-393l107 540h-525l-108 -540h-113l211 1060h114zM931 537l-87 -439h279q116 0 194.5 66t97.5 157q19 95 -29.5 155.5t-174.5 60.5h-280z" />
<glyph unicode="&#x45b;" horiz-adv-x="1051" d="M711 1222h-289l-64 -322l5 -4q62 88 152.5 136t198.5 48q146 0 214 -106t25 -320l-131 -654h-113l131 656q36 184 -10.5 253t-161.5 69q-104 0 -193.5 -65.5t-148.5 -172.5l-148 -740h-113l244 1222h-157l20 100h157l41 207h114l-41 -207h289z" />
<glyph unicode="&#x45c;" horiz-adv-x="980" d="M430 486h-149l-97 -486h-114l211 1060h115l-94 -470h147l454 470h134l3 -6l-503 -507l340 -547h-150zM813 1449h138l2 -5l-268 -255h-94l-2 5z" />
<glyph unicode="&#x45d;" horiz-adv-x="1061" d="M921 1060h115l-212 -1060h-114l171 857l-6 1l-692 -858h-112l211 1060h113l-173 -859l6 -2zM750 1194h-110l-183 260h151z" />
<glyph unicode="&#x45e;" horiz-adv-x="925" d="M404 287l9 -119l5 -1l474 893h127l-673 -1230q-60 -107 -136.5 -182.5t-193.5 -75.5q-18 0 -45.5 4.5t-41.5 8.5l34 98q12 -1 35.5 -3.5t33.5 -2.5q65 0 122.5 56.5t101.5 137.5l80 144l-171 1045h126zM932 1481l2 -6q-14 -114 -94.5 -180.5t-202.5 -66.5 q-118 0 -179.5 69.5t-39.5 178.5l2 5h89q-13 -78 20 -123t121 -45q81 0 132 47.5t63 120.5h87z" />
<glyph unicode="&#x45f;" horiz-adv-x="1061" d="M396 1060l-192 -961h525l192 961h115l-212 -1060h-316l-70 -346h-115l70 346h-322l211 1060h114z" />
<glyph unicode="&#x460;" horiz-adv-x="1665" d="M1702 1427l-205 -1024q-44 -221 -162 -322.5t-283 -101.5q-99 0 -170.5 52.5t-94.5 152.5q-62 -106 -153.5 -155.5t-205.5 -49.5q-150 0 -230.5 110.5t-39.5 313.5l205 1024h113l-205 -1024q-33 -166 16.5 -245.5t160.5 -79.5q107 0 199 86t122 239l205 1024h117 l-205 -1024q-33 -166 18.5 -245.5t166.5 -79.5q104 0 193 86t120 239l205 1024h113z" />
<glyph unicode="&#x461;" horiz-adv-x="1538" d="M1503 1060l-137 -686q-41 -205 -150.5 -300t-262.5 -95q-89 0 -153.5 46.5t-88.5 135.5q-56 -94 -139.5 -138t-185.5 -44q-139 0 -213 102.5t-36 292.5l137 686h113l-137 -686q-30 -152 13.5 -224t142.5 -72q96 0 178.5 78.5t110.5 217.5l137 686h114l-138 -686 q-30 -152 15.5 -224t148.5 -72q92 0 172.5 78.5t107.5 217.5l138 686h113z" />
<glyph unicode="&#x462;" horiz-adv-x="1154" d="M695 1104h-277l-59 -298h331q196 0 295.5 -111t64.5 -290q-40 -195 -174 -300t-347 -105h-446l221 1104h-169l21 100h167l45 223h115l-44 -223h276zM339 706l-121 -607h331q152 0 255.5 88.5t130.5 219.5q26 136 -37 217.5t-228 81.5h-331z" />
<glyph unicode="&#x463;" horiz-adv-x="1008" d="M696 1060h-296l-74 -367h279q159 0 240.5 -97.5t52.5 -247.5q-34 -164 -146 -256t-286 -92h-392l211 1060h-178l20 99h178l74 371h115l-75 -371h297zM307 593l-99 -494h278q117 0 197 72t101 175q22 108 -25.5 177.5t-173.5 69.5h-278z" />
<glyph unicode="&#x464;" horiz-adv-x="1677" d="M389 797h236l8 38q59 293 211 453t374 160q201 0 321.5 -126t94.5 -339l-2 -5h-108q15 174 -68.5 272t-253.5 98q-158 0 -284 -143t-171 -368l-8 -40h484l-21 -100h-484l-18 -95q-49 -240 38 -381.5t266 -141.5q153 0 254 88.5t158 270.5h106l2 -6 q-61 -217 -194.5 -334.5t-340.5 -117.5q-211 0 -333.5 178.5t-68.5 443.5l19 95h-237l-139 -697h-113l285 1427h113z" />
<glyph unicode="&#x465;" horiz-adv-x="1398" d="M304 589h215q45 224 174.5 357.5t324.5 133.5q158 0 252 -104t64 -270l-2 -5h-102q21 132 -45 205.5t-182 73.5q-144 0 -239 -110.5t-126 -274.5l3 -6h427l-19 -99h-433q-26 -187 31 -299.5t212 -112.5q104 0 198.5 67.5t113.5 184.5h100l2 -6q-21 -153 -148.5 -249 t-280.5 -96q-190 0 -281 144t-60 367h-219l-98 -490h-114l211 1060h115z" />
<glyph unicode="&#x466;" horiz-adv-x="1129" d="M854 466h-215l-93 -466h-113l93 466h-204l-248 -466h-117l772 1427h106l198 -1427h-118zM378 569h462l-90 681l-6 1z" />
<glyph unicode="&#x467;" horiz-adv-x="994" d="M684 340h-152l-67 -340h-114l67 340h-157l-200 -340h-118l623 1060h100l200 -1060h-117zM319 440h345l-66 353l-10 113h-6l-55 -113z" />
<glyph unicode="&#x468;" horiz-adv-x="1648" d="M361 569h386l464 858h106l198 -1427h-118l-61 466h-215l-93 -466h-113l93 466h-203l-249 -466h-117l252 466h-351l-93 -466h-114l285 1427h114zM860 569h462l-90 681l-6 1z" />
<glyph unicode="&#x469;" horiz-adv-x="1415" d="M307 440h303l364 620h100l200 -1060h-118l-64 340h-152l-68 -340h-113l67 340h-158l-200 -340h-117l200 340h-265l-67 -340h-115l212 1060h114zM727 440h345l-67 353l-9 113h-6l-55 -113z" />
<glyph unicode="&#x46a;" horiz-adv-x="1535" d="M967 769l3 -5h80q187 0 277.5 -94.5t50.5 -297.5l-75 -372h-113l74 372q34 172 -21 232t-213 60h-146l-13 -16l-129 -648h-114l132 655l-4 9h-150q-145 0 -233 -67t-119 -225l-75 -372h-114l74 372q43 220 162 306t324 86h91l-261 663h1029l3 -5zM834 764h12l436 563 h-659z" />
<glyph unicode="&#x46b;" horiz-adv-x="1332" d="M65 0l38 191q43 220 157.5 305.5t311.5 85.5h4l-201 478h838l3 -5l-388 -473q177 -1 263.5 -95.5t46.5 -295.5l-38 -191h-114l38 191q34 171 -17.5 231t-199.5 60h-61l-12 -15l-93 -467h-113l94 472l-4 10h-66q-137 0 -220 -66.5t-114 -224.5l-39 -191h-114zM696 582h14 l296 373l-2 4h-458z" />
<glyph unicode="&#x46c;" horiz-adv-x="2034" d="M562 0l74 372q20 102 56 173.5t90 118.5h-420l-133 -664h-113l285 1427h113l-132 -663h831l-261 663h1029l3 -5l-520 -653l3 -5h79q188 0 278.5 -94.5t50.5 -297.5l-75 -372h-113l74 372q34 172 -21 232t-213 60h-146l-13 -16l-129 -648h-114l131 655l-4 9h-163 q-139 -3 -223.5 -70.5t-114.5 -221.5l-75 -372h-114zM1331 764h12l436 563h-659z" />
<glyph unicode="&#x46d;" horiz-adv-x="1747" d="M479 0l38 191q20 101 55.5 172.5t87.5 118.5h-376l-96 -482h-114l211 1060h115l-96 -478h664h19h4l-201 478h838l3 -5l-388 -473q177 -1 263 -95.5t46 -295.5l-38 -191h-114l39 191q34 171 -18 231t-200 60h-61l-11 -15l-94 -467h-112l94 472l-4 10h-79 q-132 -4 -212 -70.5t-110 -220.5l-38 -191h-115zM1110 582h14l297 373l-3 4h-458z" />
<glyph unicode="&#x46e;" horiz-adv-x="971" d="M638 1427q184 0 288.5 -100.5t70.5 -274.5q-24 -116 -104.5 -200t-203.5 -123q117 -39 168 -126.5t27 -214.5q-40 -197 -186.5 -297t-350.5 -100h-60q-77 0 -122.5 -32.5t-56.5 -92.5q-14 -68 24.5 -113t93.5 -69l-60 -85q-78 33 -131.5 106t-35.5 165q23 112 100 166 t211 54h57q146 0 261 81.5t141 212.5q33 162 -42 229t-258 67h-121l8 39l12 62h121q163 0 266 73.5t128 200.5q25 129 -39.5 200.5t-225.5 71.5h-291l20 100h291zM774 1682l183 165h108l-4 -16l-257 -221h-90l-168 221l4 16h107z" />
<glyph unicode="&#x46f;" horiz-adv-x="913" d="M526 1060q163 0 259.5 -76t71.5 -206q-18 -83 -80.5 -145.5t-161.5 -94.5q95 -31 138.5 -92.5t26.5 -147.5q-30 -151 -160 -229t-311 -78h-41q-77 0 -123 -32.5t-57 -92.5q-14 -68 25 -113t95 -69l-62 -85q-77 33 -130 106t-37 165q23 112 100.5 166t211.5 54h37 q127 0 223 56.5t114 147.5q21 107 -46.5 150.5t-226.5 43.5h-121l4 19h-1l17 82h121q141 0 227 51.5t105 141.5q16 83 -42.5 130t-194.5 47h-267l20 101h266zM603 1359l183 166h108l-4 -17l-258 -220h-89l-169 220l4 17h107z" />
<glyph unicode="&#x470;" horiz-adv-x="1305" d="M708 452l4 -3q154 11 282 127.5t165 301.5l110 549h114l-110 -549q-51 -257 -208 -390.5t-380 -146.5l-68 -341h-114l68 342q-198 17 -304 159.5t-59 376.5l110 549h113l-110 -549q-41 -201 33.5 -310.5t232.5 -118.5l6 1l195 977h115z" />
<glyph unicode="&#x471;" horiz-adv-x="1287" d="M821 1059l-194 -968l5 -2q185 14 308 152t162 325q23 127 13.5 250.5t-42.5 243.5h124q31 -111 40 -226t-22 -267q-55 -268 -202.5 -420t-406.5 -166l-84 -415h-113l83 416q-206 19 -304 169t-41 430l95 479h114l-96 -481q-51 -254 17.5 -368.5t230.5 -122.5l6 1l194 970 h113z" />
<glyph unicode="&#x472;" horiz-adv-x="1268" d="M1186 597q-60 -294 -231 -456t-413 -162q-219 0 -331 173.5t-57 444.5l46 232q59 294 227.5 456t406.5 162q221 0 336.5 -174t61.5 -444zM300 759h805l15 72q49 246 -31 380t-276 134q-175 0 -314.5 -144t-183.5 -370zM1086 660h-806l-12 -63q-50 -248 26.5 -382 t268.5 -134q179 0 321.5 143.5t188.5 372.5z" />
<glyph unicode="&#x473;" horiz-adv-x="1065" d="M107 546q38 243 179.5 388.5t341.5 145.5q190 0 289.5 -151.5t62.5 -382.5l-5 -32q-39 -244 -180 -389.5t-340 -145.5q-191 0 -291 151t-62 384zM470 78q138 0 243 115.5t138 282.5l-3 6h-637q-22 -179 44 -291.5t215 -112.5zM612 980q-138 0 -243 -114.5t-137 -277.5 l3 -6h636q19 175 -47 286.5t-212 111.5z" />
<glyph unicode="&#x474;" horiz-adv-x="1161" d="M468 250l7 -96l6 -1l46 97l464 934q68 142 142 202t173 60h28l-22 -103h-11q-55 0 -106 -37t-104 -146l-590 -1160h-106l-162 1427h123z" />
<glyph unicode="&#x475;" horiz-adv-x="931" d="M372 266l8 -120l6 -1l57 121l284 581q63 123 130 177.5t147 54.5q25 0 49.5 -7t42.5 -19l-41 -92q-7 5 -21 10t-31 5q-43 0 -86 -32t-85 -117l-433 -827h-91l-135 1060h118z" />
<glyph unicode="&#x476;" horiz-adv-x="1161" d="M468 250l7 -96l6 -1l46 97l464 934q68 142 142 202t173 60h28l-22 -103h-11q-55 0 -106 -37t-104 -146l-590 -1160h-106l-162 1427h123zM711 1555h-114l-217 256l2 5h137zM933 1555h-102l-174 261h132z" />
<glyph unicode="&#x477;" horiz-adv-x="931" d="M372 266l8 -120l6 -1l57 121l284 581q63 123 130 177.5t147 54.5q25 0 49.5 -7t42.5 -19l-41 -92q-7 5 -21 10t-31 5q-43 0 -86 -32t-85 -117l-433 -827h-91l-135 1060h118zM563 1265h-114l-217 256l2 5h137zM785 1265h-102l-174 261h132z" />
<glyph unicode="&#x478;" horiz-adv-x="2192" d="M1185 592q-61 -298 -217 -455.5t-395 -157.5q-221 0 -347 177t-71 445l46 233q60 297 213 455t388 158q224 0 353.5 -177.5t75.5 -444.5zM1119 827q48 242 -45.5 380t-292.5 138q-171 0 -295.5 -139.5t-169.5 -369.5l-47 -235q-50 -244 40.5 -382t284.5 -138 q176 0 303.5 139t174.5 372zM1671 287l9 -119l5 -1l474 893h127l-673 -1230q-60 -107 -136.5 -182.5t-193.5 -75.5q-18 0 -45.5 4.5t-41.5 8.5l34 98q12 -1 35.5 -3.5t33.5 -2.5q65 0 122.5 56.5t101.5 137.5l80 144l-171 1045h126z" />
<glyph unicode="&#x479;" horiz-adv-x="1975" d="M107 546q38 243 179.5 388.5t341.5 145.5q190 0 289.5 -151.5t62.5 -382.5l-5 -32q-39 -244 -180 -389.5t-340 -145.5q-191 0 -291 151t-62 384zM216 514q-32 -192 34 -314t220 -122q144 0 253 127t138 309l5 32q30 188 -35.5 311t-218.5 123q-146 0 -255 -128t-137 -306 zM1455 287l9 -119l5 -1l474 893h127l-673 -1230q-60 -107 -136.5 -182.5t-193.5 -75.5q-18 0 -45.5 4.5t-41.5 8.5l34 98q12 -1 35.5 -3.5t33.5 -2.5q65 0 122.5 56.5t101.5 137.5l80 144l-171 1045h126z" />
<glyph unicode="&#x47a;" horiz-adv-x="1268" d="M1185 592q-61 -298 -217 -456q-146 -147 -365 -156l-25 -120h-112l25 126q-164 28 -266 170q-125 177 -70 445l46 233q60 297 213 455q148 152 369 157l24 116h112l-24 -123q159 -31 260 -170q130 -177 76 -444zM1119 827q48 242 -46 379q-69 103 -199 130l-22 -113h-113 l23 121q-159 -7 -277 -139q-124 -139 -169 -369l-47 -235q-50 -244 40 -382q70 -107 203 -131l23 116h113l-25 -122q158 11 275 138q127 139 174 372z" />
<glyph unicode="&#x47b;" horiz-adv-x="1051" d="M473 -130h-113l23 115q-139 24 -219 145q-100 151 -62 384l5 32q38 243 179 388q132 136 316 145l21 109h114l-24 -117q129 -27 204 -143q100 -151 63 -382l-5 -32q-39 -244 -180 -390q-127 -129 -299 -143zM216 514q-32 -192 34 -314q50 -93 153 -115l23 115h114 l-25 -119q117 18 208 124q109 127 138 309l5 32q30 188 -36 311q-46 88 -137 112l-22 -111h-113l23 120q-126 -12 -224 -126q-109 -128 -137 -306z" />
<glyph unicode="&#x47c;" horiz-adv-x="1656" d="M1344 1417l5 1q145 5 224 -109.5t38 -324.5l-113 -564q-47 -229 -163.5 -335t-278.5 -106q-100 0 -173 51.5t-97 151.5q-62 -105 -153.5 -154t-204.5 -49q-150 0 -229 115.5t-37 325.5l112 564q45 228 161.5 333.5t274.5 100.5l5 -3l-17 -89q-101 0 -190 -91t-120 -251 l-113 -564q-35 -174 13.5 -258t159.5 -84q107 0 199 86t122 239l93 463h114l-93 -463q-33 -166 20.5 -245.5t172.5 -79.5q100 0 188.5 91t121.5 251l112 564q35 173 -13.5 257.5t-158.5 84.5zM1493 1649l-17 -83h-30q-104 0 -217 77t-168 77q-59 0 -105 -40.5t-57 -103.5 l-4 -18h-86l6 31q22 106 89.5 162t170.5 56q65 0 177 -79t214 -79h27zM963 1303l-44 45l80 119l27 137h128l-25 -130z" />
<glyph unicode="&#x47d;" horiz-adv-x="1495" d="M1163 1064l6 1q134 5 206.5 -101.5t34.5 -303.5l-54 -268q-43 -215 -150.5 -314t-258.5 -99q-92 0 -158.5 46.5t-89.5 136.5q-57 -94 -141 -138.5t-186 -44.5q-139 0 -212 107.5t-33 305.5l54 268q42 213 149.5 311.5t253.5 93.5l5 -3l-18 -89q-91 0 -169.5 -83 t-107.5 -230l-54 -268q-32 -161 10.5 -237.5t141.5 -76.5q96 0 179 78.5t110 217.5l48 239h113l-48 -239q-31 -151 17.5 -223.5t154.5 -72.5q89 0 167.5 83t109.5 231l54 268q31 159 -11 236t-140 77zM1354 1328l-16 -83h-29q-107 0 -219 76.5t-166 76.5q-60 0 -105.5 -40.5 t-57.5 -102.5l-2 -17h-86l6 29q21 107 88.5 163.5t170.5 56.5q64 0 175.5 -79.5t215.5 -79.5h25zM852 983l-49 45l78 119l21 137h136l-20 -131z" />
<glyph unicode="&#x47e;" horiz-adv-x="1665" d="M725 1663l17 79h693l-16 -79h-302l-21 -112h-106l21 112h-286zM1702 1427l-205 -1024q-44 -221 -162 -322.5t-283 -101.5q-99 0 -170.5 52.5t-94.5 152.5q-62 -106 -153.5 -155.5t-205.5 -49.5q-150 0 -230.5 110.5t-39.5 313.5l205 1024h113l-205 -1024 q-33 -166 16.5 -245.5t160.5 -79.5q107 0 199 86t122 239l205 1024h117l-205 -1024q-33 -166 18.5 -245.5t166.5 -79.5q104 0 193 86t120 239l205 1024h113z" />
<glyph unicode="&#x47f;" horiz-adv-x="1539" d="M603 1348l16 79h693l-14 -79h-303l-26 -128h-105l26 128h-287zM1503 1060l-137 -686q-41 -205 -150.5 -300t-262.5 -95q-89 0 -153.5 46.5t-88.5 135.5q-56 -94 -139.5 -138t-185.5 -44q-139 0 -213 102.5t-36 292.5l137 686h113l-137 -686q-30 -152 13.5 -224t142.5 -72 q96 0 178.5 78.5t110.5 217.5l137 686h114l-138 -686q-30 -152 15.5 -224t148.5 -72q92 0 172.5 78.5t107.5 217.5l138 686h113z" />
<glyph unicode="&#x480;" horiz-adv-x="1193" d="M537 -359h-114l68 340q-190 19 -286 190.5t-44 425.5l46 232q58 290 224.5 454t392.5 164q203 0 315 -124t66 -336l-3 -5h-106q37 183 -40 274.5t-251 91.5q-161 0 -300.5 -147t-184.5 -370l-47 -234q-49 -244 26.5 -381.5t251.5 -137.5h73z" />
<glyph unicode="&#x481;" horiz-adv-x="987" d="M442 -359h-114l68 341q-162 20 -238.5 168.5t-34.5 359.5l8 41q48 243 189.5 386t339.5 143q148 0 238 -105.5t57 -273.5h-109q26 136 -33.5 207.5t-172.5 71.5q-140 0 -249.5 -126.5t-144.5 -302.5l-8 -41q-39 -195 15 -313.5t208 -118.5h68z" />
<glyph unicode="&#x482;" horiz-adv-x="1150" d="M533 423l230 -168l-68 -93l-232 166l-236 -328h-124l283 390l-230 168l67 92l234 -168l276 386l-230 168l70 94l232 -168l253 353h123l-301 -413l233 -168l-72 -92l-229 166z" />
<glyph unicode="&#x483;" horiz-adv-x="9" d="M-499 1312l-24 -120h-106l40 198h467l20 105h105l-36 -183h-466z" />
<glyph unicode="&#x484;" horiz-adv-x="9" d="M-597 1367q102 0 245 79.5t208 79.5q103 0 148.5 -56.5t24.5 -163.5l-5 -29h-87l3 18q13 61 -16 102t-89 41q-55 0 -198 -77t-248 -77h-29l17 83h26z" />
<glyph unicode="&#x485;" horiz-adv-x="9" d="M-379 1470l26 130h129l-28 -137l32 -118l-62 -46z" />
<glyph unicode="&#x486;" horiz-adv-x="9" d="M-314 1299l-44 46l81 118l26 137h130l-26 -130z" />
<glyph unicode="&#x488;" horiz-adv-x="0" d="M-561 1242l-2 6q12 82 72 130t149 48q81 0 125.5 -51.5t24.5 -127.5l-2 -5h-95q9 45 -7.5 72t-62.5 27q-42 0 -71 -29t-36 -70h-95zM-77 970l-2 6q11 82 71.5 130t149.5 48q82 0 127 -51t25 -128l-2 -5h-96q9 45 -7.5 72t-64.5 27q-42 0 -70.5 -29t-35.5 -70h-95zM-6 477 l-2 6q12 82 72 130.5t150 48.5q82 0 126 -51.5t25 -128.5l-2 -5h-96q8 45 -7.5 72t-62.5 27q-42 0 -71.5 -29t-37.5 -70h-94zM-286 -31l-2 6q11 82 71 130t149 48q83 0 127 -51.5t24 -127.5l-2 -5h-95q8 45 -7.5 72t-62.5 27q-42 0 -71.5 -29t-36.5 -70h-94zM-866 -310l-2 6 q12 84 72 131.5t148 47.5q82 0 126.5 -51.5t24.5 -128.5l-2 -5h-95q8 46 -7.5 72.5t-62.5 26.5q-42 0 -71 -28.5t-37 -70.5h-94zM-1137 970l-2 6q13 82 73.5 130t149.5 48q82 0 126 -51t24 -128l-2 -5h-95q9 45 -7.5 72t-63.5 27q-41 0 -70 -29t-38 -70h-95zM-1396 477l-2 6 q12 82 72.5 130.5t148.5 48.5q83 0 127.5 -51.5t23.5 -128.5l-2 -5h-96q10 45 -6 72t-64 27q-41 0 -70.5 -29t-37.5 -70h-94zM-1347 -31l-1 6q11 82 72 130t149 48q83 0 127.5 -52t24.5 -127l-2 -5h-96q9 45 -7 72t-64 27q-41 0 -70.5 -29t-36.5 -70h-96z" />
<glyph unicode="&#x489;" horiz-adv-x="0" d="M-541 -59l7 -14l-177 -332h-88l134 346h124zM-485 1103l-9 14l177 331h88l-134 -345h-122zM34 618l15 12l279 -121l-19 -96l-302 69zM-1063 424l-15 -11l-279 121l19 96l301 -69zM-112 982l6 16l322 150l50 -67q-40 -23 -308 -196zM-926 21l-5 -17l-322 -150l-49 68 l307 196zM-889 843l-16 2l-70 319l72 68l123 -293zM-151 158l16 -2l72 -319l-74 -69l-122 293z" />
<glyph unicode="&#x48a;" horiz-adv-x="1335" d="M1246 1427h113l-285 -1427h-114l242 1212l-5 2l-989 -1214h-113l285 1427h113l-243 -1212l6 -2zM1199 1817l2 -6q-14 -114 -94.5 -180.5t-202.5 -66.5q-118 0 -179.5 69.5t-39.5 178.5l2 5h89q-13 -78 20 -123t121 -45q81 0 132 47.5t63 120.5h87zM1170 -11l-154 -271 h-77l118 274l33 163h114z" />
<glyph unicode="&#x48b;" horiz-adv-x="1061" d="M921 1060h115l-212 -1060h-114l171 857l-6 1l-692 -858h-112l211 1060h113l-173 -859l6 -2zM986 1481l2 -6q-14 -114 -94.5 -180.5t-202.5 -66.5q-118 0 -179.5 69.5t-39.5 178.5l2 5h89q-13 -78 20 -123t121 -45q81 0 132 47.5t63 120.5h87zM920 -11l-154 -271h-77 l118 274l33 163h114z" />
<glyph unicode="&#x48c;" horiz-adv-x="1154" d="M695 1104h-277l-59 -298h331q196 0 295.5 -111t64.5 -290q-40 -195 -174 -300t-347 -105h-446l221 1104h-169l21 100h167l45 223h115l-44 -223h276zM339 706l-121 -607h331q152 0 255.5 88.5t130.5 219.5q26 136 -37 217.5t-228 81.5h-331z" />
<glyph unicode="&#x48d;" horiz-adv-x="1008" d="M750 1327h-297l-127 -634h279q159 0 240.5 -97.5t52.5 -247.5q-34 -164 -146 -256t-286 -92h-392l265 1327h-178l19 100h179l35 175h115l-36 -175h296zM307 593l-99 -494h278q117 0 197 72t101 175q22 108 -25.5 177.5t-173.5 69.5h-278z" />
<glyph unicode="&#x48e;" horiz-adv-x="1189" d="M322 593l-118 -593h-113l285 1427h460q195 0 293 -116.5t62 -300.5q-40 -202 -175 -309l-12 -10l92 -144l-85 -67l-99 158q-104 -45 -243 -45h-347zM342 693h347q92 0 168 34l-78 124l83 66l84 -132q105 91 132 223q28 146 -34 232.5t-228 86.5h-347z" />
<glyph unicode="&#x48f;" horiz-adv-x="1063" d="M957 481q-51 -254 -165 -378q-7 -7 -14 -15l64 -112l-85 -66l-65 114q-84 -45 -193 -45q-99 0 -176 41.5t-118 115.5l-109 -544h-114l293 1468h96l-16 -151q62 82 144 126.5t181 44.5q168 0 249.5 -165t31.5 -413zM848 502q42 212 -13.5 344t-200.5 132q-98 0 -174 -60 t-130 -156l-103 -510q25 -80 91.5 -127t173.5 -47q81 0 147 42l-79 143l85 64l75 -135q88 107 124 289z" />
<glyph unicode="&#x490;" horiz-adv-x="1032" d="M1151 1326h-113v1h-575l-266 -1327h-114l285 1427h689l70 347h113z" />
<glyph unicode="&#x491;" horiz-adv-x="828" d="M869 959h-498l-192 -959h-113l211 1060h499l68 338h112z" />
<glyph unicode="&#x492;" horiz-adv-x="1039" d="M655 693h-312l-138 -693h-114l138 693h-134l21 100h134l126 634h800l-20 -100h-686l-106 -534h311z" />
<glyph unicode="&#x493;" horiz-adv-x="795" d="M578 492h-297l-98 -492h-113l98 492h-149l20 100h148l94 468h609l-20 -101h-495l-73 -367h297z" />
<glyph unicode="&#x494;" horiz-adv-x="1091" d="M1156 1327h-686l-103 -517h192q230 0 350 -143t66 -416q-48 -235 -182 -381t-334 -141l-5 2l15 87q141 0 248.5 125.5t143.5 307.5q45 228 -41 342t-282 114h-192l-141 -707h-114l285 1427h800z" />
<glyph unicode="&#x495;" horiz-adv-x="938" d="M866 959h-495l-69 -347h128q199 0 311.5 -116t68.5 -334q-25 -130 -134.5 -259.5t-292.5 -166.5l-12 92q144 33 222.5 124.5t104.5 209.5q36 171 -45.5 259t-242.5 88h-129l-102 -509h-113l211 1060h609z" />
<glyph unicode="&#x496;" horiz-adv-x="1656" d="M1087 681h-150l-136 -681h-113l136 681h-153l-584 -681h-137l-2 5l633 732l-318 690h136l284 -646h161l129 646h113l-130 -646h157l543 646h130l2 -5l-590 -684l345 -738h-145zM1510 -348h-114l95 470h113z" />
<glyph unicode="&#x497;" horiz-adv-x="1441" d="M916 490h-129l-98 -490h-115l98 490h-128l-457 -490h-136l-3 6l515 545l-263 509h137l226 -465h130l93 465h115l-93 -465h131l411 465h133l2 -5l-463 -505l300 -550h-145zM1267 -348h-114l95 470h113z" />
<glyph unicode="&#x498;" horiz-adv-x="1120" d="M467 778h159q163 0 267 74.5t129 202.5q28 139 -42 216t-244 77q-131 0 -247.5 -83.5t-141.5 -210.5h-105l-1 5q31 185 177.5 286.5t337.5 101.5q199 0 307 -104t72 -291q-25 -116 -103 -200.5t-201 -124.5q116 -39 166.5 -126t25.5 -214q-41 -203 -192 -305.5 t-368 -102.5q-178 0 -299 107.5t-77 304.5l2 5h107q-29 -146 49.5 -232t236.5 -86q161 0 279.5 84t145.5 221q33 162 -42 228t-259 66h-159l11 53l6 28zM456 -421h-114l95 470h113z" />
<glyph unicode="&#x499;" horiz-adv-x="955" d="M515 592q119 0 190 50t89 138q18 93 -30.5 145.5t-174.5 52.5q-99 0 -188 -58.5t-107 -145.5h-103l-2 6q23 140 143.5 218.5t276.5 78.5q158 0 242.5 -79t55.5 -220q-16 -83 -72.5 -144.5t-145.5 -91.5q84 -31 121 -95.5t18 -155.5q-31 -154 -148 -231.5t-291 -77.5 q-145 0 -246.5 83t-67.5 233l3 6h107q-20 -101 42.5 -162.5t181.5 -61.5q117 0 201 58t102 151q22 112 -30 156.5t-187 44.5h-152l5 24l16 78h151zM361 -420h-114l95 470h113z" />
<glyph unicode="&#x49a;" horiz-adv-x="1202" d="M500 677h-177l-135 -677h-114l285 1427h114l-129 -646h182l599 646h140l3 -6l-665 -702l409 -719h-132zM1048 -348h-114l95 470h113z" />
<glyph unicode="&#x49b;" horiz-adv-x="980" d="M430 486h-149l-97 -486h-114l211 1060h115l-94 -470h147l454 470h134l3 -6l-503 -507l340 -547h-150zM827 -348h-114l95 470h113z" />
<glyph unicode="&#x49c;" horiz-adv-x="1156" d="M1279 1427l-533 -689l301 -738h-143l-261 677h-83l-56 -280h-96l56 280h-130l-135 -677h-114l285 1427h114l-130 -651h129l56 277h96l-56 -277h88l476 651h136z" />
<glyph unicode="&#x49d;" horiz-adv-x="1021" d="M1077 1060l3 -5l-414 -505l250 -550h-149l-203 486h-66l-46 -233h-96l46 233h-122l-97 -486h-114l211 1060h115l-94 -470h121l48 236h96l-48 -236h68l355 470h136z" />
<glyph unicode="&#x49e;" horiz-adv-x="1222" d="M519 677h-176l-135 -677h-115l231 1156h-179l21 100h178l34 171h115l-34 -171h266l-20 -100h-267l-74 -375h182l599 646h140l3 -6l-666 -702l410 -719h-132z" />
<glyph unicode="&#x49f;" horiz-adv-x="948" d="M426 516h-124l-103 -516h-114l243 1215h-156l20 100h156l43 214h114l-43 -214h290l-21 -100h-289l-120 -598h115l449 443h131l2 -6l-487 -477l322 -577h-137z" />
<glyph unicode="&#x4a0;" horiz-adv-x="1519" d="M845 677h-177l-135 -677h-115l265 1327h-423l19 100h539l-129 -646h182l599 646h140l3 -6l-665 -702l409 -719h-132z" />
<glyph unicode="&#x4a1;" horiz-adv-x="1245" d="M695 486h-149l-97 -486h-115l191 960h-364l19 100h481l-95 -470h147l454 470h134l3 -6l-502 -507l340 -547h-150z" />
<glyph unicode="&#x4a2;" horiz-adv-x="1329" d="M1068 0h-112l131 657h-748l-131 -657h-113l285 1427h113l-134 -670h747l135 670h112zM1089 -348h-114l95 470h113z" />
<glyph unicode="&#x4a3;" horiz-adv-x="1061" d="M824 0h-114l97 486h-526l-97 -486h-113l211 1060h114l-95 -475h525l95 475h115zM844 -348h-114l95 470h113z" />
<glyph unicode="&#x4a4;" horiz-adv-x="1886" d="M356 757h747l135 670h773l-20 -100h-659l-1 1l-266 -1328h-112l131 657h-748l-131 -657h-113l285 1427h113z" />
<glyph unicode="&#x4a5;" horiz-adv-x="1360" d="M296 585h525l95 475h501l-20 -101h-387l-191 -959h-114l97 486h-526l-97 -486h-113l211 1060h114z" />
<glyph unicode="&#x4a6;" horiz-adv-x="1912" d="M1221 818h153q230 0 350 -143t66 -416q-48 -235 -182 -381.5t-334 -141.5l-5 3l16 87q140 0 248 125t144 308q45 228 -41.5 341.5t-282.5 113.5h-153l-142 -714h-112l265 1327h-748l-266 -1327h-113l285 1427h975z" />
<glyph unicode="&#x4a7;" horiz-adv-x="1602" d="M941 612h152q202 0 317 -116t72 -334q-28 -137 -136 -263t-292 -163l-12 92q144 33 222.5 125t102.5 209q37 171 -46.5 259t-248.5 88h-152l-101 -509h-114l191 959h-526l-191 -959h-113l211 1060h754z" />
<glyph unicode="&#x4a8;" horiz-adv-x="1396" d="M1219 -25q-88 0 -168 17.5t-148 52.5q-72 -33 -151 -49.5t-162 -16.5q-239 0 -360 197t-63 487l41 202q52 266 196 423.5t326 151.5l5 -3l-17 -92q-127 0 -242 -141t-155 -337l-41 -204q-54 -268 35 -425t296 -157q47 0 93 8.5t91 25.5q-114 93 -161.5 235.5t-13.5 311.5 l50 251q48 243 174.5 384.5t291.5 141.5q152 0 228 -149.5t31 -376.5l-52 -261q-37 -184 -122 -322t-210 -224q49 -16 106 -23t123 -7zM734 661q-35 -175 5 -302.5t153 -198.5q126 74 216.5 204t121.5 288l53 263q38 198 -5.5 310t-162.5 112q-106 0 -200.5 -122.5 t-129.5 -299.5z" />
<glyph unicode="&#x4a9;" horiz-adv-x="1119" d="M971 -12q-80 0 -149 13.5t-126 40.5q-56 -31 -115 -47t-116 -16q-199 0 -290 151.5t-39 408.5l15 75q39 197 156 330t242 127l6 -2l-19 -92q-86 0 -162 -98t-108 -263l-16 -77q-39 -194 28 -326t207 -132q31 0 62 4.5t60 14.5q-85 72 -114.5 185.5t0.5 262.5l21 104 q36 185 140 306.5t221 121.5q127 0 177.5 -121.5t10.5 -327.5l-20 -102q-26 -120 -86.5 -225.5t-147.5 -181.5q40 -16 85.5 -24t96.5 -8zM929 529l21 105q28 142 0.5 241.5t-93.5 94.5l-6 1q-77 4 -135.5 -80.5t-89.5 -236.5l-21 -108q-25 -123 8.5 -221t114.5 -152h6 q70 53 120.5 145t74.5 211z" />
<glyph unicode="&#x4aa;" horiz-adv-x="1205" d="M1097 437l2 -6q-61 -217 -195 -334.5t-340 -117.5q-211 0 -333.5 178.5t-68.5 443.5l46 233q59 293 210.5 453t374.5 160q201 0 321.5 -126t93.5 -339l-2 -5h-107q14 175 -69 273t-253 98q-159 0 -284.5 -143.5t-171.5 -368.5l-47 -235q-49 -240 38.5 -381.5 t265.5 -141.5q154 0 255 88.5t158 270.5h106zM513 -421h-114l95 470h113z" />
<glyph unicode="&#x4ab;" horiz-adv-x="978" d="M460 78q104 0 198.5 67.5t112.5 184.5h100l2 -6q-20 -153 -148 -249t-281 -96q-194 0 -284.5 150t-53.5 381l7 41q38 240 170.5 384.5t334.5 144.5q158 0 252 -104t64 -270l-2 -5h-102q22 132 -44.5 205.5t-182.5 73.5q-151 0 -249 -124t-128 -305l-6 -41 q-32 -195 24 -313.5t216 -118.5zM404 -421h-114l95 470h113z" />
<glyph unicode="&#x4ac;" horiz-adv-x="1114" d="M1250 1327h-455l-265 -1327h-114l265 1327h-454l20 100h1023zM551 -348h-114l95 470h113z" />
<glyph unicode="&#x4ad;" horiz-adv-x="912" d="M971 960h-358l-191 -960h-112l191 960h-344l19 100h815zM444 -348h-114l95 470h113z" />
<glyph unicode="&#x4ae;" horiz-adv-x="1144" d="M615 640l565 787h131l-664 -906l-104 -521h-113l106 529l-300 898h132z" />
<glyph unicode="&#x4af;" horiz-adv-x="925" d="M896 1060h117l-567 -1026l-88 -441h-114l88 439l-159 1028h118l111 -794l7 -119l6 -1l56 120z" />
<glyph unicode="&#x4b0;" horiz-adv-x="1144" d="M615 640l565 787h131l-583 -795h156l-21 -100h-208l-8 -11l-104 -521h-113l106 530l-1 2h-231l20 100h178l-266 795h132z" />
<glyph unicode="&#x4b1;" horiz-adv-x="925" d="M661 -4h-223l-80 -403h-114l80 403h-223l21 100h200l-149 964h118l111 -794l7 -119l6 -1l56 120l425 794h117l-533 -964h201z" />
<glyph unicode="&#x4b2;" horiz-adv-x="1156" d="M640 817l468 610h139l-553 -704l338 -723h-135l-285 629l-484 -629h-138l571 723l-329 704h137zM977 -348h-114l95 470h113z" />
<glyph unicode="&#x4b3;" horiz-adv-x="925" d="M491 627l333 433h128l3 -5l-414 -515l261 -540h-133l-203 452l-350 -452h-128l-3 5l431 535l-250 520h133zM768 -348h-114l95 470h113z" />
<glyph unicode="&#x4b4;" horiz-adv-x="1634" d="M583 1327h-363l20 99h865l-19 -99h-389l-246 -1228h748l1 2l265 1326h113l-266 -1326h131l-98 -445h-103l68 344h-992z" />
<glyph unicode="&#x4b5;" horiz-adv-x="1232" d="M412 961h-272l20 99h646l-20 -99h-261l-172 -862h525l192 961h115l-192 -961h101l-91 -414h-104l62 315h-741z" />
<glyph unicode="&#x4b6;" horiz-adv-x="1254" d="M1281 1427l-285 -1427h-114l130 651q-97 -29 -186.5 -43t-188.5 -14q-206 0 -303 105t-50 333l79 395h114l-78 -395q-40 -195 23.5 -266.5t235.5 -71.5q87 0 183 14t191 43l135 676h114zM1015 -348h-114l95 470h113z" />
<glyph unicode="&#x4b7;" horiz-adv-x="1004" d="M767 0h-113l88 445q-66 -25 -134.5 -38.5t-131.5 -13.5q-178 0 -258.5 93.5t-37.5 305.5l53 268h113l-53 -268q-36 -178 12.5 -238t191.5 -60q65 1 134 14.5t131 35.5l103 516h114zM787 -348h-114l95 470h113z" />
<glyph unicode="&#x4b8;" horiz-adv-x="1249" d="M1281 1427l-285 -1427h-114l130 651q-97 -29 -187 -43q-48 -8 -99 -11l-48 -243h-96l48 240q-201 2 -296 105q-97 105 -50 333l79 395h114l-78 -395q-40 -195 23 -267q62 -70 228 -71l67 337h96l-66 -334q46 4 94 11q96 14 191 43l135 676h114z" />
<glyph unicode="&#x4b9;" horiz-adv-x="1035" d="M805 0h-114l88 445q-66 -25 -134 -38q-30 -6 -57 -10l-33 -166h-97l32 162q-161 6 -235 93q-81 94 -37 306l52 268h113l-53 -268q-36 -178 12 -238q45 -55 168 -60l57 287h97l-56 -282q29 4 59 10q70 13 133 35l103 516h113z" />
<glyph unicode="&#x4ba;" horiz-adv-x="1249" d="M229 0l285 1427h114l-130 -651q96 28 185.5 42.5t189.5 14.5q205 0 302 -105.5t51 -332.5l-78 -395h-115l78 395q40 194 -24 266t-234 72q-88 0 -183.5 -15t-191.5 -42l-135 -676h-114z" />
<glyph unicode="&#x4bb;" d="M358 900l5 -4q62 88 152.5 136t198.5 48q146 0 214 -106t25 -320l-131 -654h-113l131 656q36 184 -10.5 253t-161.5 69q-104 0 -193.5 -65.5t-148.5 -172.5l-148 -740h-113l305 1529h114z" />
<glyph unicode="&#x4bc;" horiz-adv-x="1421" d="M782 -23q-241 0 -360 165.5t-66 425.5l30 153q-126 16 -185 104t-30 230h96q-22 -108 11.5 -167.5t122.5 -67.5l6 1l4 23q55 279 226 440.5t384 161.5q217 0 320 -171t47 -453l-21 -104h-867l-30 -150q-47 -231 33 -361.5t300 -130.5q103 0 201.5 33.5t173.5 85.5l19 -87 q-71 -55 -171.5 -93t-243.5 -38zM518 809h754l9 42q46 231 -22.5 362.5t-257.5 131.5q-161 0 -297.5 -146t-178.5 -355z" />
<glyph unicode="&#x4bd;" horiz-adv-x="1111" d="M563 -21q-180 0 -283 148t-66 372l8 53q-88 25 -126 100t-15 190h96q-15 -79 1 -128.5t65 -68.5q55 198 189.5 316.5t290.5 118.5q176 0 263 -124.5t55 -328.5l-16 -100h-694l-4 -28q-29 -186 39 -303.5t212 -117.5q97 0 176 31t139 87l35 -80q-66 -63 -157 -100 t-208 -37zM708 980q-115 0 -213.5 -100t-136.5 -248l2 -6h568l5 30q23 144 -36 234t-189 90z" />
<glyph unicode="&#x4be;" horiz-adv-x="1421" d="M782 -23q-241 0 -360 165.5t-66 425.5l30 153q-126 16 -185 104t-30 230h96q-22 -108 11.5 -167.5t122.5 -67.5l6 1l4 23q55 279 226 440.5t384 161.5q217 0 320 -171t47 -453l-21 -104h-867l-30 -150q-47 -231 33 -361.5t300 -130.5q103 0 201.5 33.5t173.5 85.5l19 -87 q-71 -55 -171.5 -93t-243.5 -38zM518 809h754l9 42q46 231 -22.5 362.5t-257.5 131.5q-161 0 -297.5 -146t-178.5 -355zM740 -435h-114l95 470h113z" />
<glyph unicode="&#x4bf;" horiz-adv-x="1111" d="M563 -21q-180 0 -283 148t-66 372l8 53q-88 25 -126 100t-15 190h96q-15 -79 1 -128.5t65 -68.5q55 198 189.5 316.5t290.5 118.5q176 0 263 -124.5t55 -328.5l-16 -100h-694l-4 -28q-29 -186 39 -303.5t212 -117.5q97 0 176 31t139 87l35 -80q-66 -63 -157 -100 t-208 -37zM708 980q-115 0 -213.5 -100t-136.5 -248l2 -6h568l5 30q23 144 -36 234t-189 90zM535 -412h-114l95 470h113z" />
<glyph unicode="&#x4c0;" horiz-adv-x="516" d="M231 0h-113l285 1427h113z" />
<glyph unicode="&#x4c1;" horiz-adv-x="1656" d="M1087 681h-150l-136 -681h-113l136 681h-153l-584 -681h-137l-2 5l633 732l-318 690h136l284 -646h161l129 646h113l-130 -646h157l543 646h130l2 -5l-590 -684l345 -738h-145zM1352 1817l2 -6q-14 -114 -94.5 -180.5t-202.5 -66.5q-118 0 -179.5 69.5t-39.5 178.5l2 5 h89q-13 -78 20 -123t121 -45q81 0 132 47.5t63 120.5h87z" />
<glyph unicode="&#x4c2;" horiz-adv-x="1441" d="M916 490h-129l-98 -490h-115l98 490h-128l-457 -490h-136l-3 6l515 545l-263 509h137l226 -465h130l93 465h115l-93 -465h131l411 465h133l2 -5l-463 -505l300 -550h-145zM1195 1481l2 -6q-14 -114 -94.5 -180.5t-202.5 -66.5q-118 0 -179.5 69.5t-39.5 178.5l2 5h89 q-13 -78 20 -123t121 -45q81 0 132 47.5t63 120.5h87z" />
<glyph unicode="&#x4c3;" horiz-adv-x="1156" d="M646 784q227 -3 344.5 -145.5t63.5 -414.5q-48 -235 -181.5 -381t-333.5 -141l-5 3l16 86q140 0 248 126t144 307q45 229 -41.5 342.5t-282.5 113.5h-284l-135 -680h-114l285 1427h114l-129 -643h159l629 643h128l3 -6z" />
<glyph unicode="&#x4c4;" horiz-adv-x="996" d="M552 585q171 -21 261 -129.5t51 -303.5q-24 -127 -133 -253.5t-291 -162.5l-13 92q143 33 221 121.5t104 202.5q36 170 -48.5 252t-251.5 82h-172l-97 -486h-114l211 1060h115l-94 -470h119l482 470h134l2 -6z" />
<glyph unicode="&#x4c5;" horiz-adv-x="1321" d="M1348 1427l-286 -1427h-114l264 1327h-563l-126 -546q-97 -426 -211.5 -603.5t-314.5 -177.5h-37l19 99h34q127 0 218 149.5t179 532.5l149 646h789zM1158 -11l-154 -271h-77l118 274l33 163h114z" />
<glyph unicode="&#x4c6;" horiz-adv-x="1062" d="M1037 1060l-212 -1060h-115l192 959h-412l-73 -367q-66 -331 -158.5 -461.5t-258.5 -130.5h-40l22 105l35 1q94 0 163.5 110t123.5 376l93 468h640zM921 -11l-154 -271h-77l118 274l33 163h114z" />
<glyph unicode="&#x4c7;" horiz-adv-x="1325" d="M491 1427l-134 -670h746l135 670h114l-302 -1514q-36 -175 -124.5 -258t-221.5 -83q-27 0 -51 5t-49 13l33 97q12 -5 39.5 -10t46.5 -5q73 0 131 64.5t81 176.5l149 744h-747l-131 -657h-114l285 1427h114z" />
<glyph unicode="&#x4c8;" d="M390 1060l-95 -475h525l95 475h115l-229 -1147q-36 -175 -124.5 -258t-221.5 -83q-27 0 -51 5t-49 13l32 97q13 -5 40.5 -10t46.5 -5q73 0 131 64.5t81 176.5l115 573h-526l-97 -486h-113l211 1060h114z" />
<glyph unicode="&#x4c9;" horiz-adv-x="1329" d="M1068 0h-112l131 657h-748l-131 -657h-113l285 1427h113l-134 -670h747l135 670h112zM1164 -11l-154 -271h-77l118 274l33 163h114z" />
<glyph unicode="&#x4ca;" horiz-adv-x="1061" d="M824 0h-114l97 486h-526l-97 -486h-113l211 1060h114l-95 -475h525l95 475h115zM919 -11l-154 -271h-77l118 274l33 163h114z" />
<glyph unicode="&#x4cb;" horiz-adv-x="1254" d="M1281 1427l-285 -1427h-114l130 651q-97 -29 -186.5 -43t-188.5 -14q-206 0 -303 105t-50 333l79 395h114l-78 -395q-40 -195 23.5 -266.5t235.5 -71.5q87 0 183 14t191 43l135 676h114zM835 -348h-114l95 470h113z" />
<glyph unicode="&#x4cc;" horiz-adv-x="1004" d="M767 0h-113l88 445q-66 -25 -134.5 -38.5t-131.5 -13.5q-178 0 -258.5 93.5t-37.5 305.5l53 268h113l-53 -268q-36 -178 12.5 -238t191.5 -60q65 1 134 14.5t131 35.5l103 516h114zM606 -348h-114l95 470h113z" />
<glyph unicode="&#x4cd;" horiz-adv-x="1628" d="M529 1427l231 -1255l6 -1l737 1256h149l-285 -1427h-113l127 630l132 618l-6 2l-738 -1250h-78l-239 1244h-6l-112 -614l-126 -630h-113l285 1427h149zM1463 -11l-154 -271h-77l118 274l33 163h114z" />
<glyph unicode="&#x4ce;" horiz-adv-x="1375" d="M640 167l6 -1l563 894h141l-211 -1060h-114l170 848l-6 2l-539 -850h-81l-202 867h-6l-173 -867h-114l212 1060h149zM1234 -11l-154 -271h-77l118 274l33 163h114z" />
<glyph unicode="&#x4cf;" horiz-adv-x="516" d="M231 0h-113l285 1427h113z" />
<glyph unicode="&#x4d0;" horiz-adv-x="1178" d="M888 398h-604l-216 -398h-117l790 1427h106l215 -1427h-117zM341 503h532l-110 765l-5 1zM1133 1817l2 -6q-14 -114 -94.5 -180.5t-202.5 -66.5q-118 0 -179.5 69.5t-39.5 178.5l2 5h89q-13 -78 20 -123t121 -45q81 0 132 47.5t63 120.5h87z" />
<glyph unicode="&#x4d1;" horiz-adv-x="1014" d="M688 0q2 73 4 102.5t10 68.5q-71 -83 -172 -137.5t-213 -54.5q-136 0 -203.5 84t-39.5 219q30 157 162 240.5t337 83.5h215l26 131q25 121 -28.5 182t-175.5 61q-106 0 -196.5 -62.5t-106.5 -150.5l-103 1l-2 6q19 128 141.5 217t290.5 89q154 0 240 -90.5t54 -254.5 l-104 -521q-13 -59 -17 -110t0 -104h-119zM351 83q108 0 212.5 60t162.5 150l44 222h-217q-137 0 -242.5 -69t-125.5 -168q-18 -92 25 -143.5t141 -51.5zM964 1502l2 -6q-14 -114 -94.5 -180.5t-202.5 -66.5q-118 0 -179.5 69.5t-39.5 178.5l2 5h89q-13 -78 20 -123t121 -45 q81 0 132 47.5t63 120.5h87z" />
<glyph unicode="&#x4d2;" horiz-adv-x="1178" d="M888 398h-604l-216 -398h-117l790 1427h106l215 -1427h-117zM341 503h532l-110 765l-5 1zM1143 1608h-161l25 154h161zM716 1608h-162l25 154h161z" />
<glyph unicode="&#x4d3;" horiz-adv-x="1014" d="M688 0q2 73 4 102.5t10 68.5q-71 -83 -172 -137.5t-213 -54.5q-136 0 -203.5 84t-39.5 219q30 157 162 240.5t337 83.5h215l26 131q25 121 -28.5 182t-175.5 61q-106 0 -196.5 -62.5t-106.5 -150.5l-103 1l-2 6q19 128 141.5 217t290.5 89q154 0 240 -90.5t54 -254.5 l-104 -521q-13 -59 -17 -110t0 -104h-119zM351 83q108 0 212.5 60t162.5 150l44 222h-217q-137 0 -242.5 -69t-125.5 -168q-18 -92 25 -143.5t141 -51.5zM973 1294h-161l25 154h161zM546 1294h-162l25 154h161z" />
<glyph unicode="&#x4d4;" horiz-adv-x="1713" d="M1587 0h-749l61 381h-540l-285 -381h-139l1088 1427h794l-20 -100h-634l-85 -534h537l-21 -100h-533l-95 -594h640zM441 492h475l132 812l-6 2l-17 -34z" />
<glyph unicode="&#x4d5;" horiz-adv-x="1588" d="M1070 -21q-117 0 -200.5 56.5t-121.5 157.5q-61 -86 -175.5 -150t-261.5 -64q-145 0 -218 84.5t-45 223.5q32 165 150.5 248.5t315.5 83.5h238l17 87q28 139 -14.5 206.5t-154.5 67.5q-114 0 -202 -66.5t-107 -163.5l-101 11l-1 6q24 144 140.5 228.5t289.5 84.5 q103 0 174 -51t93 -147q74 95 171 146.5t204 51.5q172 0 255 -124t42 -331l-19 -98h-685l-6 -28q-40 -198 17.5 -309.5t224.5 -111.5q87 0 170 33t148 84l27 -85q-63 -54 -152 -92.5t-213 -38.5zM347 77q84 0 184.5 53t145.5 113l56 282h-235q-130 0 -223.5 -71t-112.5 -171 q-21 -101 25.5 -153.5t159.5 -52.5zM1242 980q-116 0 -216.5 -100.5t-143.5 -250.5l2 -6h561l5 31q31 152 -20 239t-188 87z" />
<glyph unicode="&#x4d6;" horiz-adv-x="1085" d="M983 691h-637l-119 -592h730l-19 -99h-843l285 1427h838l-19 -100h-727l-106 -536h637zM1099 1817l2 -6q-14 -114 -94.5 -180.5t-202.5 -66.5q-118 0 -179.5 69.5t-39.5 178.5l2 5h89q-13 -78 20 -123t121 -45q81 0 132 47.5t63 120.5h87z" />
<glyph unicode="&#x4d7;" horiz-adv-x="973" d="M449 -21q-179 0 -282 148t-67 372l9 54q37 236 181.5 381.5t319.5 145.5t262 -124.5t55 -328.5l-16 -100h-693l-4 -28q-30 -186 38 -303.5t213 -117.5q97 0 175.5 31t138.5 87l35 -80q-65 -63 -156.5 -100t-208.5 -37zM594 980q-115 0 -213.5 -100t-136.5 -248l2 -6h568 l5 30q23 144 -36 234t-189 90zM944 1502l2 -6q-14 -114 -94.5 -180.5t-202.5 -66.5q-118 0 -179.5 69.5t-39.5 178.5l2 5h89q-13 -78 20 -123t121 -45q81 0 132 47.5t63 120.5h87z" />
<glyph unicode="&#x4d8;" horiz-adv-x="1314" d="M832 1447q253 0 376.5 -180t67.5 -461l-32 -165q-63 -310 -246.5 -486t-412.5 -176q-245 0 -366.5 170t-64.5 453l22 114h970l17 90q51 253 -33 397.5t-318 144.5q-108 0 -211.5 -34t-181.5 -85l-18 87q72 54 177 92.5t254 38.5zM605 78q173 0 321.5 157.5t195.5 383.5 l-3 6h-847l-10 -52q-47 -232 37 -363.5t306 -131.5z" />
<glyph unicode="&#x4d9;" horiz-adv-x="997" d="M777 1081q179 0 282 -148t67 -371l-9 -54q-37 -237 -181.5 -382.5t-319.5 -145.5t-262 124.5t-55 328.5l16 100h693l4 29q30 186 -38 303t-213 117q-97 0 -175.5 -31t-138.5 -87l-35 81q65 62 156.5 99t208.5 37zM632 80q115 0 213.5 100t136.5 248l-2 6h-568l-5 -29 q-23 -144 36 -234.5t189 -90.5z" />
<glyph unicode="&#x4da;" horiz-adv-x="1314" d="M832 1447q253 0 376.5 -180t67.5 -461l-32 -165q-63 -310 -246.5 -486t-412.5 -176q-245 0 -366.5 170t-64.5 453l22 114h970l17 90q51 253 -33 397.5t-318 144.5q-108 0 -211.5 -34t-181.5 -85l-18 87q72 54 177 92.5t254 38.5zM605 78q173 0 321.5 157.5t195.5 383.5 l-3 6h-847l-10 -52q-47 -232 37 -363.5t306 -131.5zM1133 1563h-161l25 154h161zM706 1563h-162l25 154h161z" />
<glyph unicode="&#x4db;" horiz-adv-x="997" d="M777 1081q179 0 282 -148t67 -371l-9 -54q-37 -237 -181.5 -382.5t-319.5 -145.5t-262 124.5t-55 328.5l16 100h693l4 29q30 186 -38 303t-213 117q-97 0 -175.5 -31t-138.5 -87l-35 81q65 62 156.5 99t208.5 37zM632 80q115 0 213.5 100t136.5 248l-2 6h-568l-5 -29 q-23 -144 36 -234.5t189 -90.5zM995 1293h-161l25 154h161zM568 1293h-162l25 154h161z" />
<glyph unicode="&#x4dc;" horiz-adv-x="1656" d="M1087 681h-150l-136 -681h-113l136 681h-153l-584 -681h-137l-2 5l633 732l-318 690h136l284 -646h161l129 646h113l-130 -646h157l543 646h130l2 -5l-590 -684l345 -738h-145zM1361 1608h-161l25 154h161zM934 1608h-162l25 154h161z" />
<glyph unicode="&#x4dd;" horiz-adv-x="1441" d="M916 490h-129l-98 -490h-115l98 490h-128l-457 -490h-136l-3 6l515 545l-263 509h137l226 -465h130l93 465h115l-93 -465h131l411 465h133l2 -5l-463 -505l300 -550h-145zM1204 1273h-161l25 154h161zM777 1273h-162l25 154h161z" />
<glyph unicode="&#x4de;" horiz-adv-x="1120" d="M467 778h159q163 0 267 74.5t129 202.5q28 139 -42 216t-244 77q-131 0 -247.5 -83.5t-141.5 -210.5h-105l-1 5q31 185 177.5 286.5t337.5 101.5q199 0 307 -104t72 -291q-25 -116 -103 -200.5t-201 -124.5q116 -39 166.5 -126t25.5 -214q-41 -203 -192 -305.5 t-368 -102.5q-178 0 -299 107.5t-77 304.5l2 5h107q-29 -146 49.5 -232t236.5 -86q161 0 279.5 84t145.5 221q33 162 -42 228t-259 66h-159l11 53l6 28zM1105 1629h-161l25 154h161zM678 1629h-162l25 154h161z" />
<glyph unicode="&#x4df;" horiz-adv-x="955" d="M515 592q119 0 190 50t89 138q18 93 -30.5 145.5t-174.5 52.5q-99 0 -188 -58.5t-107 -145.5h-103l-2 6q23 140 143.5 218.5t276.5 78.5q158 0 242.5 -79t55.5 -220q-16 -83 -72.5 -144.5t-145.5 -91.5q84 -31 121 -95.5t18 -155.5q-31 -154 -148 -231.5t-291 -77.5 q-145 0 -246.5 83t-67.5 233l3 6h107q-20 -101 42.5 -162.5t181.5 -61.5q117 0 201 58t102 151q22 112 -30 156.5t-187 44.5h-152l5 24l16 78h151zM943 1292h-161l25 154h161zM516 1292h-162l25 154h161z" />
<glyph unicode="&#x4e0;" horiz-adv-x="1084" d="M484 825l492 496l-3 6h-654l20 100h792l-16 -91l-510 -517q194 -3 287 -116t53 -316q-41 -203 -177.5 -305.5t-327.5 -102.5q-161 0 -268.5 107.5t-64.5 304.5l3 5h109q-30 -147 35.5 -232.5t205.5 -85.5q136 0 239.5 84t130.5 221q37 189 -26 265.5t-228 76.5h-111l6 35 l12 59z" />
<glyph unicode="&#x4e1;" horiz-adv-x="1084" d="M411 459l482 495l-3 5h-644l20 101h791l-15 -91l-505 -518q186 -8 279.5 -121.5t54.5 -309.5q-41 -201 -177 -304t-327 -103q-161 0 -268.5 107.5t-65.5 303.5l3 4h109q-29 -144 37 -229.5t204 -85.5q136 0 239.5 83.5t131.5 219.5q37 188 -32 265t-236 77h-99l7 36l5 22 l7 36z" />
<glyph unicode="&#x4e2;" horiz-adv-x="1335" d="M1246 1427h113l-285 -1427h-114l242 1212l-5 2l-989 -1214h-113l285 1427h113l-243 -1212l6 -2zM1223 1655h-613l16 95h613z" />
<glyph unicode="&#x4e3;" horiz-adv-x="1061" d="M921 1060h115l-212 -1060h-114l171 857l-6 1l-692 -858h-112l211 1060h113l-173 -859l6 -2zM1010 1321h-613l16 95h613z" />
<glyph unicode="&#x4e4;" horiz-adv-x="1335" d="M1246 1427h113l-285 -1427h-114l242 1212l-5 2l-989 -1214h-113l285 1427h113l-243 -1212l6 -2zM1208 1608h-161l25 154h161zM781 1608h-162l25 154h161z" />
<glyph unicode="&#x4e5;" horiz-adv-x="1061" d="M921 1060h115l-212 -1060h-114l171 857l-6 1l-692 -858h-112l211 1060h113l-173 -859l6 -2zM996 1273h-161l25 154h161zM569 1273h-162l25 154h161z" />
<glyph unicode="&#x4e6;" horiz-adv-x="1267" d="M1185 592q-61 -298 -217 -455.5t-395 -157.5q-221 0 -347 177t-71 445l46 233q60 297 213 455t388 158q224 0 353.5 -177.5t75.5 -444.5zM1119 827q48 242 -45.5 380t-292.5 138q-171 0 -295.5 -139.5t-169.5 -369.5l-47 -235q-50 -244 40.5 -382t284.5 -138 q176 0 303.5 139t174.5 372zM1171 1629h-161l25 154h161zM744 1629h-162l25 154h161z" />
<glyph unicode="&#x4e7;" d="M107 546q38 243 179.5 388.5t341.5 145.5q190 0 289.5 -151.5t62.5 -382.5l-5 -32q-39 -244 -180 -389.5t-340 -145.5q-191 0 -291 151t-62 384zM216 514q-32 -192 34 -314t220 -122q144 0 253 127t138 309l5 32q30 188 -35.5 311t-218.5 123q-146 0 -255 -128t-137 -306 zM971 1293h-161l25 154h161zM544 1293h-162l25 154h161z" />
<glyph unicode="&#x4e8;" horiz-adv-x="1268" d="M1186 597q-60 -294 -231 -456t-413 -162q-219 0 -331 173.5t-57 444.5l46 232q59 294 227.5 456t406.5 162q221 0 336.5 -174t61.5 -444zM300 759h805l15 72q49 246 -31 380t-276 134q-175 0 -314.5 -144t-183.5 -370zM1086 660h-806l-12 -63q-50 -248 26.5 -382 t268.5 -134q179 0 321.5 143.5t188.5 372.5z" />
<glyph unicode="&#x4e9;" horiz-adv-x="1065" d="M107 546q38 243 179.5 388.5t341.5 145.5q190 0 289.5 -151.5t62.5 -382.5l-5 -32q-39 -244 -180 -389.5t-340 -145.5q-191 0 -291 151t-62 384zM470 78q138 0 243 115.5t138 282.5l-3 6h-637q-22 -179 44 -291.5t215 -112.5zM612 980q-138 0 -243 -114.5t-137 -277.5 l3 -6h636q19 175 -47 286.5t-212 111.5z" />
<glyph unicode="&#x4ea;" horiz-adv-x="1268" d="M1186 597q-60 -294 -231 -456t-413 -162q-219 0 -331 173.5t-57 444.5l46 232q59 294 227.5 456t406.5 162q221 0 336.5 -174t61.5 -444zM300 759h805l15 72q49 246 -31 380t-276 134q-175 0 -314.5 -144t-183.5 -370zM1086 660h-806l-12 -63q-50 -248 26.5 -382 t268.5 -134q179 0 321.5 143.5t188.5 372.5zM1190 1603h-161l25 154h161zM763 1603h-162l25 154h161z" />
<glyph unicode="&#x4eb;" horiz-adv-x="1065" d="M107 546q38 243 179.5 388.5t341.5 145.5q190 0 289.5 -151.5t62.5 -382.5l-5 -32q-39 -244 -180 -389.5t-340 -145.5q-191 0 -291 151t-62 384zM470 78q138 0 243 115.5t138 282.5l-3 6h-637q-22 -179 44 -291.5t215 -112.5zM612 980q-138 0 -243 -114.5t-137 -277.5 l3 -6h636q19 175 -47 286.5t-212 111.5zM993 1320h-161l25 154h161zM566 1320h-162l25 154h161z" />
<glyph unicode="&#x4ec;" horiz-adv-x="1243" d="M273 981l-2 6q41 223 193.5 342t372.5 119q206 0 314 -175.5t55 -442.5l-46 -232q-58 -291 -225 -454.5t-392 -163.5q-204 0 -315.5 123.5t-64.5 336.5l2 5h106q-37 -184 40 -275t252 -91q160 0 299.5 146.5t185.5 370.5l18 95h-555l19 100h556l8 39q48 243 -27 380.5 t-251 137.5q-160 0 -281 -96t-157 -271h-105zM1176 1630h-161l25 154h161zM749 1630h-162l25 154h161z" />
<glyph unicode="&#x4ed;" horiz-adv-x="1008" d="M589 980q-99 0 -193.5 -67t-117.5 -184h-102l-2 6q27 157 155 251t280 94q180 0 270 -153t45 -376l-8 -41q-49 -245 -189.5 -388t-336.5 -143q-150 0 -240.5 105t-56.5 275h111q-28 -139 31.5 -210t174.5 -71q133 0 240 118.5t143 283.5l-3 6h-433l19 99h440 q30 179 -26 287t-201 108zM976 1293h-161l25 154h161zM549 1293h-162l25 154h161z" />
<glyph unicode="&#x4ee;" horiz-adv-x="1180" d="M599 647l29 -139l6 -1l558 920h133l-741 -1184q-81 -122 -161.5 -193t-212.5 -71q-21 0 -48 3.5t-35 7.5l28 95q10 -3 34.5 -5t41.5 -2q73 0 132 51.5t117 140.5l69 103l-288 1054h129zM1143 1655h-613l16 95h613z" />
<glyph unicode="&#x4ef;" horiz-adv-x="925" d="M404 287l9 -119l5 -1l474 893h127l-673 -1230q-60 -107 -136.5 -182.5t-193.5 -75.5q-18 0 -45.5 4.5t-41.5 8.5l34 98q12 -1 35.5 -3.5t33.5 -2.5q65 0 122.5 56.5t101.5 137.5l80 144l-171 1045h126zM956 1321h-613l16 95h613z" />
<glyph unicode="&#x4f0;" horiz-adv-x="1180" d="M599 647l29 -139l6 -1l558 920h133l-741 -1184q-81 -122 -161.5 -193t-212.5 -71q-21 0 -48 3.5t-35 7.5l28 95q10 -3 34.5 -5t41.5 -2q73 0 132 51.5t117 140.5l69 103l-288 1054h129zM1129 1608h-161l25 154h161zM702 1608h-162l25 154h161z" />
<glyph unicode="&#x4f1;" horiz-adv-x="925" d="M404 287l9 -119l5 -1l474 893h127l-673 -1230q-60 -107 -136.5 -182.5t-193.5 -75.5q-18 0 -45.5 4.5t-41.5 8.5l34 98q12 -1 35.5 -3.5t33.5 -2.5q65 0 122.5 56.5t101.5 137.5l80 144l-171 1045h126zM942 1273h-161l25 154h161zM515 1273h-162l25 154h161z" />
<glyph unicode="&#x4f2;" horiz-adv-x="1180" d="M599 647l29 -139l6 -1l558 920h133l-741 -1184q-81 -122 -161.5 -193t-212.5 -71q-21 0 -48 3.5t-35 7.5l28 95q10 -3 34.5 -5t41.5 -2q73 0 132 51.5t117 140.5l69 103l-288 1054h129zM1155 1830h135l2 -6l-322 -255h-105l-2 6zM884 1830h126l2 -6l-276 -255h-94l-3 6z " />
<glyph unicode="&#x4f3;" horiz-adv-x="925" d="M404 287l9 -119l5 -1l474 893h127l-673 -1230q-60 -107 -136.5 -182.5t-193.5 -75.5q-18 0 -45.5 4.5t-41.5 8.5l34 98q12 -1 35.5 -3.5t33.5 -2.5q65 0 122.5 56.5t101.5 137.5l80 144l-171 1045h126zM968 1494h135l2 -6l-322 -255h-105l-2 6zM697 1494h126l2 -6 l-276 -255h-94l-3 6z" />
<glyph unicode="&#x4f4;" horiz-adv-x="1254" d="M1281 1427l-285 -1427h-114l130 651q-97 -29 -186.5 -43t-188.5 -14q-206 0 -303 105t-50 333l79 395h114l-78 -395q-40 -195 23.5 -266.5t235.5 -71.5q87 0 183 14t191 43l135 676h114zM1167 1608h-161l25 154h161zM740 1608h-162l25 154h161z" />
<glyph unicode="&#x4f5;" horiz-adv-x="1004" d="M767 0h-113l88 445q-66 -25 -134.5 -38.5t-131.5 -13.5q-178 0 -258.5 93.5t-37.5 305.5l53 268h113l-53 -268q-36 -178 12.5 -238t191.5 -60q65 1 134 14.5t131 35.5l103 516h114zM939 1273h-161l25 154h161zM512 1273h-162l25 154h161z" />
<glyph unicode="&#x4f6;" horiz-adv-x="1039" d="M1156 1327h-686l-265 -1327h-114l285 1427h800zM226 -348h-114l95 470h113z" />
<glyph unicode="&#x4f7;" horiz-adv-x="795" d="M870 959h-495l-192 -959h-113l211 1060h609zM188 -348h-114l95 470h113z" />
<glyph unicode="&#x4f8;" horiz-adv-x="1572" d="M367 806h331q196 0 295.5 -111t64.5 -290q-40 -195 -174 -300t-347 -105h-446l285 1427h115zM347 706l-121 -607h331q152 0 255.5 88.5t130.5 219.5q26 136 -37 217.5t-228 81.5h-331zM1309 0h-113l285 1427h113zM1345 1608h-161l25 154h161zM918 1608h-162l25 154h161z " />
<glyph unicode="&#x4f9;" horiz-adv-x="1415" d="M322 675h281q159 0 241 -95t53 -241q-33 -160 -144.5 -249.5t-285.5 -89.5h-393l212 1060h114zM303 575l-95 -476h279q117 0 196 69.5t100 168.5q21 104 -26.5 171t-174.5 67h-279zM1165 0h-114l211 1060h115zM1198 1273h-161l25 154h161zM771 1273h-162l25 154h161z" />
<glyph unicode="&#x4fa;" horiz-adv-x="1074" d="M1189 1327h-686l-265 -1327h-114l285 1427h800zM655 739h-559l20 100h560zM362 132l-44 -219q-35 -175 -122 -258t-222 -83q-25 0 -49.5 5t-49.5 13l33 101q13 -5 40.5 -9.5t46.5 -4.5q73 0 130.5 62t80.5 174l44 219h112z" />
<glyph unicode="&#x4fb;" horiz-adv-x="777" d="M909 959h-495l-192 -959h-113l211 1060h609zM621 552h-559l20 100h560zM350 132l-44 -219q-35 -175 -122 -258t-222 -83q-25 0 -49.5 5t-49.5 13l33 101q13 -5 40.5 -9.5t46.5 -4.5q73 0 130.5 62t80.5 174l44 219h112z" />
<glyph unicode="&#x4fc;" horiz-adv-x="1156" d="M640 817l468 610h139l-553 -704l338 -723h-135l-285 629l-484 -629h-138l571 723l-329 704h137zM1095 132l-44 -219q-35 -175 -122 -258t-222 -83q-25 0 -49.5 5t-49.5 13l33 101q13 -5 40.5 -9.5t46.5 -4.5q73 0 130.5 62t80.5 174l44 219h112z" />
<glyph unicode="&#x4fd;" horiz-adv-x="925" d="M491 627l333 433h128l3 -5l-414 -515l261 -540h-133l-203 452l-350 -452h-128l-3 5l431 535l-250 520h133zM886 132l-44 -219q-35 -175 -122 -258t-222 -83q-25 0 -49.5 5t-49.5 13l33 101q13 -5 40.5 -9.5t46.5 -4.5q73 0 130.5 62t80.5 174l44 219h112z" />
<glyph unicode="&#x4fe;" horiz-adv-x="1156" d="M898 682h-186l320 -682h-135l-285 629l-484 -629h-138l538 682h-190l21 100h174l-301 645h137l271 -610l468 610h139l-507 -645h178z" />
<glyph unicode="&#x4ff;" horiz-adv-x="925" d="M746 494h-183l239 -494h-133l-203 452l-350 -452h-128l-3 5l389 484l-3 5h-185l21 100h182l-223 466h133l192 -433l333 433h128l3 -5l-367 -456l3 -5h175z" />
<glyph unicode="&#x1e00;" horiz-adv-x="1178" d="M888 398h-604l-216 -398h-117l790 1427h106l215 -1427h-117zM341 503h532l-110 765l-5 1zM349 -218q11 58 57.5 94.5t102.5 36.5q50 0 81.5 -38.5t22.5 -92.5q-12 -58 -56.5 -93t-99.5 -35q-52 0 -85.5 37.5t-22.5 90.5zM416 -218q-6 -27 9.5 -44t44.5 -17q25 0 48 17.5 t29 43.5q5 29 -9.5 46t-42.5 17q-26 0 -50 -18t-29 -45z" />
<glyph unicode="&#x1e01;" horiz-adv-x="1014" d="M688 0q2 73 4 102.5t10 68.5q-71 -83 -172 -137.5t-213 -54.5q-136 0 -203.5 84t-39.5 219q30 157 162 240.5t337 83.5h215l26 131q25 121 -28.5 182t-175.5 61q-106 0 -196.5 -62.5t-106.5 -150.5l-103 1l-2 6q19 128 141.5 217t290.5 89q154 0 240 -90.5t54 -254.5 l-104 -521q-13 -59 -17 -110t0 -104h-119zM351 83q108 0 212.5 60t162.5 150l44 222h-217q-137 0 -242.5 -69t-125.5 -168q-18 -92 25 -143.5t141 -51.5zM202 -218q11 58 57.5 94.5t102.5 36.5q50 0 81.5 -38.5t22.5 -92.5q-12 -58 -56.5 -93t-99.5 -35q-52 0 -85.5 37.5 t-22.5 90.5zM269 -218q-6 -27 9.5 -44t44.5 -17q25 0 48 17.5t29 43.5q5 29 -9.5 46t-42.5 17q-26 0 -50 -18t-29 -45z" />
<glyph unicode="&#x1e3e;" horiz-adv-x="1628" d="M529 1427l231 -1255l6 -1l737 1256h149l-285 -1427h-113l127 630l132 618l-6 2l-738 -1250h-78l-239 1244h-6l-112 -614l-126 -630h-113l285 1427h149zM1204 1786h138l2 -5l-268 -255h-94l-2 5z" />
<glyph unicode="&#x1e3f;" horiz-adv-x="1662" d="M350 897q65 89 152.5 136t197.5 47q104 0 169 -58.5t78 -175.5q65 112 160 173t216 61q147 0 215 -115t22 -347l-123 -618h-115l124 620q42 210 -4.5 284t-163.5 74q-116 0 -204.5 -87t-134.5 -219l-6 -36l-127 -636h-115l124 620q41 206 -6 282t-164 76 q-109 0 -190.5 -66.5t-133.5 -176.5l-147 -735h-114l211 1060h101zM1161 1471h138l2 -5l-268 -255h-94l-2 5z" />
<glyph unicode="&#x1e80;" horiz-adv-x="1679" d="M408 404l6 -214l5 -1l83 215l442 1023h107l114 -1023l13 -214l6 -1l76 215l401 1023h115l-568 -1427h-106l-121 1095l-11 145l-6 1l-56 -146l-473 -1095h-108l-110 1427h116zM1077 1530h-110l-183 260h151z" />
<glyph unicode="&#x1e81;" horiz-adv-x="1422" d="M348 344v-183l6 -2l81 185l352 716h97l66 -716l7 -190l6 -1l79 191l320 716h118l-499 -1060h-96l-72 725l-6 181h-6l-80 -181l-358 -725h-97l-75 1060h118zM932 1194h-110l-183 260h151z" />
<glyph unicode="&#x1e82;" horiz-adv-x="1679" d="M408 404l6 -214l5 -1l83 215l442 1023h107l114 -1023l13 -214l6 -1l76 215l401 1023h115l-568 -1427h-106l-121 1095l-11 145l-6 1l-56 -146l-473 -1095h-108l-110 1427h116zM1172 1786h138l2 -5l-268 -255h-94l-2 5z" />
<glyph unicode="&#x1e83;" horiz-adv-x="1422" d="M348 344v-183l6 -2l81 185l352 716h97l66 -716l7 -190l6 -1l79 191l320 716h118l-499 -1060h-96l-72 725l-6 181h-6l-80 -181l-358 -725h-97l-75 1060h118zM1026 1450h138l2 -5l-268 -255h-94l-2 5z" />
<glyph unicode="&#x1e84;" horiz-adv-x="1679" d="M408 404l6 -214l5 -1l83 215l442 1023h107l114 -1023l13 -214l6 -1l76 215l401 1023h115l-568 -1427h-106l-121 1095l-11 145l-6 1l-56 -146l-473 -1095h-108l-110 1427h116zM1323 1608h-161l25 154h161zM896 1608h-162l25 154h161z" />
<glyph unicode="&#x1e85;" horiz-adv-x="1422" d="M348 344v-183l6 -2l81 185l352 716h97l66 -716l7 -190l6 -1l79 191l320 716h118l-499 -1060h-96l-72 725l-6 181h-6l-80 -181l-358 -725h-97l-75 1060h118zM1178 1273h-161l25 154h161zM751 1273h-162l25 154h161z" />
<glyph unicode="&#x1ea0;" horiz-adv-x="1178" d="M888 398h-604l-216 -398h-117l790 1427h106l215 -1427h-117zM341 503h532l-110 765l-5 1zM537 -309h-141l34 165h141z" />
<glyph unicode="&#x1ea1;" horiz-adv-x="1014" d="M688 0q2 73 4 102.5t10 68.5q-71 -83 -172 -137.5t-213 -54.5q-136 0 -203.5 84t-39.5 219q30 157 162 240.5t337 83.5h215l26 131q25 121 -28.5 182t-175.5 61q-106 0 -196.5 -62.5t-106.5 -150.5l-103 1l-2 6q19 128 141.5 217t290.5 89q154 0 240 -90.5t54 -254.5 l-104 -521q-13 -59 -17 -110t0 -104h-119zM351 83q108 0 212.5 60t162.5 150l44 222h-217q-137 0 -242.5 -69t-125.5 -168q-18 -92 25 -143.5t141 -51.5zM390 -309h-141l34 165h141z" />
<glyph unicode="&#x1ea2;" horiz-adv-x="1178" d="M888 398h-604l-216 -398h-117l790 1427h106l215 -1427h-117zM341 503h532l-110 765l-5 1zM794 1552l25 123q85 7 122.5 25.5t46.5 66.5q10 47 -40 70t-122 23l21 75q128 0 189.5 -43.5t44.5 -125.5q-13 -73 -65 -109.5t-125 -43.5l-12 -61h-85z" />
<glyph unicode="&#x1ea3;" horiz-adv-x="1014" d="M688 0q2 73 4 102.5t10 68.5q-71 -83 -172 -137.5t-213 -54.5q-136 0 -203.5 84t-39.5 219q30 157 162 240.5t337 83.5h215l26 131q25 121 -28.5 182t-175.5 61q-106 0 -196.5 -62.5t-106.5 -150.5l-103 1l-2 6q19 128 141.5 217t290.5 89q154 0 240 -90.5t54 -254.5 l-104 -521q-13 -59 -17 -110t0 -104h-119zM351 83q108 0 212.5 60t162.5 150l44 222h-217q-137 0 -242.5 -69t-125.5 -168q-18 -92 25 -143.5t141 -51.5zM625 1237l25 123q85 7 122.5 25.5t46.5 66.5q10 47 -40 70t-122 23l21 75q128 0 189.5 -43.5t44.5 -125.5 q-13 -73 -65 -109.5t-125 -43.5l-12 -61h-85z" />
<glyph unicode="&#x1ea4;" horiz-adv-x="1178" d="M888 398h-604l-216 -398h-117l790 1427h106l215 -1427h-117zM341 503h532l-110 765l-5 1zM823 1790h109l193 -232l-2 -5h-125l-134 169l-204 -169h-123l-2 6zM1281 1926h122l3 -6l-208 -220h-96z" />
<glyph unicode="&#x1ea5;" horiz-adv-x="1014" d="M688 0q2 73 4 102.5t10 68.5q-71 -83 -172 -137.5t-213 -54.5q-136 0 -203.5 84t-39.5 219q30 157 162 240.5t337 83.5h215l26 131q25 121 -28.5 182t-175.5 61q-106 0 -196.5 -62.5t-106.5 -150.5l-103 1l-2 6q19 128 141.5 217t290.5 89q154 0 240 -90.5t54 -254.5 l-104 -521q-13 -59 -17 -110t0 -104h-119zM351 83q108 0 212.5 60t162.5 150l44 222h-217q-137 0 -242.5 -69t-125.5 -168q-18 -92 25 -143.5t141 -51.5zM654 1476h109l193 -232l-2 -5h-125l-134 169l-204 -169h-123l-2 6zM1112 1612h122l3 -6l-208 -220h-96z" />
<glyph unicode="&#x1ea6;" horiz-adv-x="1178" d="M888 398h-604l-216 -398h-117l790 1427h106l215 -1427h-117zM341 503h532l-110 765l-5 1zM617 1692h-94l-121 226h128zM826 1782h108l193 -232l-2 -5h-124l-134 169l-204 -169h-124l-2 6z" />
<glyph unicode="&#x1ea7;" horiz-adv-x="1014" d="M688 0q2 73 4 102.5t10 68.5q-71 -83 -172 -137.5t-213 -54.5q-136 0 -203.5 84t-39.5 219q30 157 162 240.5t337 83.5h215l26 131q25 121 -28.5 182t-175.5 61q-106 0 -196.5 -62.5t-106.5 -150.5l-103 1l-2 6q19 128 141.5 217t290.5 89q154 0 240 -90.5t54 -254.5 l-104 -521q-13 -59 -17 -110t0 -104h-119zM351 83q108 0 212.5 60t162.5 150l44 222h-217q-137 0 -242.5 -69t-125.5 -168q-18 -92 25 -143.5t141 -51.5zM447 1378h-94l-121 226h128zM656 1468h108l193 -232l-2 -5h-124l-134 169l-204 -169h-124l-2 6z" />
<glyph unicode="&#x1ea8;" horiz-adv-x="1178" d="M888 398h-604l-216 -398h-117l790 1427h106l215 -1427h-117zM341 503h532l-110 765l-5 1zM1141 1668l21 110q72 5 101 18.5t37 52.5t-32.5 57t-99.5 18l18 73q109 0 162 -37.5t39 -107.5q-13 -63 -56 -94.5t-105 -38.5l-9 -51h-76zM827 1782h108l193 -232l-2 -5h-124 l-134 169l-204 -169h-124l-2 6z" />
<glyph unicode="&#x1ea9;" horiz-adv-x="1014" d="M688 0q2 73 4 102.5t10 68.5q-71 -83 -172 -137.5t-213 -54.5q-136 0 -203.5 84t-39.5 219q30 157 162 240.5t337 83.5h215l26 131q25 121 -28.5 182t-175.5 61q-106 0 -196.5 -62.5t-106.5 -150.5l-103 1l-2 6q19 128 141.5 217t290.5 89q154 0 240 -90.5t54 -254.5 l-104 -521q-13 -59 -17 -110t0 -104h-119zM351 83q108 0 212.5 60t162.5 150l44 222h-217q-137 0 -242.5 -69t-125.5 -168q-18 -92 25 -143.5t141 -51.5zM971 1354l21 110q72 5 101 18.5t37 52.5t-32.5 57t-99.5 18l18 73q109 0 162 -37.5t39 -107.5q-13 -63 -56 -94.5 t-105 -38.5l-9 -51h-76zM657 1468h108l193 -232l-2 -5h-124l-134 169l-204 -169h-124l-2 6z" />
<glyph unicode="&#x1eaa;" horiz-adv-x="1178" d="M888 398h-604l-216 -398h-117l790 1427h106l215 -1427h-117zM341 503h532l-110 765l-5 1zM1167 1984q-15 -78 -66 -123.5t-115 -45.5q-51 0 -103 45.5t-94 45.5q-34 0 -65.5 -29t-40.5 -73l-57 15q14 76 64 122t115 46q44 0 100 -46.5t97 -46.5q33 0 65.5 30t42.5 76z M821 1768h108l193 -232l-2 -5h-124l-134 169l-204 -169h-124l-2 6z" />
<glyph unicode="&#x1eab;" horiz-adv-x="1014" d="M688 0q2 73 4 102.5t10 68.5q-71 -83 -172 -137.5t-213 -54.5q-136 0 -203.5 84t-39.5 219q30 157 162 240.5t337 83.5h215l26 131q25 121 -28.5 182t-175.5 61q-106 0 -196.5 -62.5t-106.5 -150.5l-103 1l-2 6q19 128 141.5 217t290.5 89q154 0 240 -90.5t54 -254.5 l-104 -521q-13 -59 -17 -110t0 -104h-119zM351 83q108 0 212.5 60t162.5 150l44 222h-217q-137 0 -242.5 -69t-125.5 -168q-18 -92 25 -143.5t141 -51.5zM997 1671q-15 -78 -66 -123.5t-115 -45.5q-51 0 -103 45.5t-94 45.5q-34 0 -65.5 -29t-40.5 -73l-57 15q14 76 64 122 t115 46q44 0 100 -46.5t97 -46.5q33 0 65.5 30t42.5 76zM651 1455h108l193 -232l-2 -5h-124l-134 169l-204 -169h-124l-2 6z" />
<glyph unicode="&#x1eac;" horiz-adv-x="1178" d="M888 398h-604l-216 -398h-117l790 1427h106l215 -1427h-117zM341 503h532l-110 765l-5 1zM1096 1587l-4 -18h-105l-117 165l-184 -165h-103l5 21l251 216h91zM537 -309h-141l34 165h141z" />
<glyph unicode="&#x1ead;" horiz-adv-x="1014" d="M688 0q2 73 4 102.5t10 68.5q-71 -83 -172 -137.5t-213 -54.5q-136 0 -203.5 84t-39.5 219q30 157 162 240.5t337 83.5h215l26 131q25 121 -28.5 182t-175.5 61q-106 0 -196.5 -62.5t-106.5 -150.5l-103 1l-2 6q19 128 141.5 217t290.5 89q154 0 240 -90.5t54 -254.5 l-104 -521q-13 -59 -17 -110t0 -104h-119zM351 83q108 0 212.5 60t162.5 150l44 222h-217q-137 0 -242.5 -69t-125.5 -168q-18 -92 25 -143.5t141 -51.5zM927 1272l-4 -18h-105l-117 165l-184 -165h-103l5 21l251 216h91zM390 -309h-141l34 165h141z" />
<glyph unicode="&#x1eae;" horiz-adv-x="1178" d="M888 398h-604l-216 -398h-117l790 1427h106l215 -1427h-117zM341 503h532l-110 765l-5 1zM979 1955h94l3 -6l-190 -196h-67l-3 5zM1124 1760l2 -6q-15 -95 -94.5 -149t-202.5 -54q-115 0 -178 58t-40 145l2 6h88q-13 -65 20 -102t121 -37q79 0 131 40t63 99h88z" />
<glyph unicode="&#x1eaf;" horiz-adv-x="1014" d="M688 0q2 73 4 102.5t10 68.5q-71 -83 -172 -137.5t-213 -54.5q-136 0 -203.5 84t-39.5 219q30 157 162 240.5t337 83.5h215l26 131q25 121 -28.5 182t-175.5 61q-106 0 -196.5 -62.5t-106.5 -150.5l-103 1l-2 6q19 128 141.5 217t290.5 89q154 0 240 -90.5t54 -254.5 l-104 -521q-13 -59 -17 -110t0 -104h-119zM351 83q108 0 212.5 60t162.5 150l44 222h-217q-137 0 -242.5 -69t-125.5 -168q-18 -92 25 -143.5t141 -51.5zM810 1641h94l3 -6l-190 -196h-67l-3 5zM955 1446l2 -6q-15 -95 -94.5 -149t-202.5 -54q-115 0 -178 58t-40 145l2 6h88 q-13 -65 20 -102t121 -37q79 0 131 40t63 99h88z" />
<glyph unicode="&#x1eb0;" horiz-adv-x="1178" d="M888 398h-604l-216 -398h-117l790 1427h106l215 -1427h-117zM341 503h532l-110 765l-5 1zM947 1807h-108l-135 211h145zM1130 1797l2 -6q-15 -95 -94.5 -149t-202.5 -54q-115 0 -178 58t-40 145l2 6h88q-12 -65 20.5 -102t120.5 -37q79 0 131 40t63 99h88z" />
<glyph unicode="&#x1eb1;" horiz-adv-x="1014" d="M688 0q2 73 4 102.5t10 68.5q-71 -83 -172 -137.5t-213 -54.5q-136 0 -203.5 84t-39.5 219q30 157 162 240.5t337 83.5h215l26 131q25 121 -28.5 182t-175.5 61q-106 0 -196.5 -62.5t-106.5 -150.5l-103 1l-2 6q19 128 141.5 217t290.5 89q154 0 240 -90.5t54 -254.5 l-104 -521q-13 -59 -17 -110t0 -104h-119zM351 83q108 0 212.5 60t162.5 150l44 222h-217q-137 0 -242.5 -69t-125.5 -168q-18 -92 25 -143.5t141 -51.5zM778 1493h-108l-135 211h145zM961 1483l2 -6q-15 -95 -94.5 -149t-202.5 -54q-115 0 -178 58t-40 145l2 6h88 q-12 -65 20.5 -102t120.5 -37q79 0 131 40t63 99h88z" />
<glyph unicode="&#x1eb2;" horiz-adv-x="1178" d="M888 398h-604l-216 -398h-117l790 1427h106l215 -1427h-117zM341 503h532l-110 765l-5 1zM833 1766l20 104q80 4 115 19.5t40 55.5v6q11 36 -37 54.5t-117 18.5l20 60q122 0 182.5 -35t46.5 -103q-12 -60 -60.5 -90.5t-115.5 -36.5l-12 -53h-82zM1116 1749l2 -6 q-15 -95 -94.5 -149t-202.5 -54q-115 0 -178 58t-40 145l2 6h88q-12 -65 20.5 -102t120.5 -37q79 0 131 40t64 99h87z" />
<glyph unicode="&#x1eb3;" horiz-adv-x="1014" d="M688 0q2 73 4 102.5t10 68.5q-71 -83 -172 -137.5t-213 -54.5q-136 0 -203.5 84t-39.5 219q30 157 162 240.5t337 83.5h215l26 131q25 121 -28.5 182t-175.5 61q-106 0 -196.5 -62.5t-106.5 -150.5l-103 1l-2 6q19 128 141.5 217t290.5 89q154 0 240 -90.5t54 -254.5 l-104 -521q-13 -59 -17 -110t0 -104h-119zM351 83q108 0 212.5 60t162.5 150l44 222h-217q-137 0 -242.5 -69t-125.5 -168q-18 -92 25 -143.5t141 -51.5zM664 1452l20 104q80 4 115 19.5t40 55.5v6q11 36 -37 54.5t-117 18.5l20 60q122 0 182.5 -35t46.5 -103 q-12 -60 -60.5 -90.5t-115.5 -36.5l-12 -53h-82zM947 1435l2 -6q-15 -95 -94.5 -149t-202.5 -54q-115 0 -178 58t-40 145l2 6h88q-12 -65 20.5 -102t120.5 -37q79 0 131 40t64 99h87z" />
<glyph unicode="&#x1eb4;" horiz-adv-x="1178" d="M888 398h-604l-216 -398h-117l790 1427h106l215 -1427h-117zM341 503h532l-110 765l-5 1zM1123 1757l2 -6q-15 -95 -94.5 -149t-202.5 -54q-115 0 -178 58t-40 145l2 6h88q-12 -65 20.5 -102t120.5 -37q79 0 131 40t63 99h88zM1179 2010q-15 -78 -66 -123.5t-115 -45.5 q-51 0 -103 45.5t-94 45.5q-34 0 -65.5 -29t-40.5 -73l-57 15q14 76 64 122t115 46q44 0 100 -46.5t97 -46.5q33 0 65.5 30t42.5 76z" />
<glyph unicode="&#x1eb5;" horiz-adv-x="1014" d="M688 0q2 73 4 102.5t10 68.5q-71 -83 -172 -137.5t-213 -54.5q-136 0 -203.5 84t-39.5 219q30 157 162 240.5t337 83.5h215l26 131q25 121 -28.5 182t-175.5 61q-106 0 -196.5 -62.5t-106.5 -150.5l-103 1l-2 6q19 128 141.5 217t290.5 89q154 0 240 -90.5t54 -254.5 l-104 -521q-13 -59 -17 -110t0 -104h-119zM351 83q108 0 212.5 60t162.5 150l44 222h-217q-137 0 -242.5 -69t-125.5 -168q-18 -92 25 -143.5t141 -51.5zM954 1443l2 -6q-15 -95 -94.5 -149t-202.5 -54q-115 0 -178 58t-40 145l2 6h88q-12 -65 20.5 -102t120.5 -37 q79 0 131 40t63 99h88zM1010 1696q-15 -78 -66 -123.5t-115 -45.5q-51 0 -103 45.5t-94 45.5q-34 0 -65.5 -29t-40.5 -73l-57 15q14 76 64 122t115 46q44 0 100 -46.5t97 -46.5q33 0 65.5 30t42.5 76z" />
<glyph unicode="&#x1eb6;" horiz-adv-x="1178" d="M888 398h-604l-216 -398h-117l790 1427h106l215 -1427h-117zM341 503h532l-110 765l-5 1zM1133 1817l2 -6q-14 -114 -94.5 -180.5t-202.5 -66.5q-118 0 -179.5 69.5t-39.5 178.5l2 5h89q-13 -78 20 -123t121 -45q81 0 132 47.5t63 120.5h87zM537 -309h-141l34 165h141z " />
<glyph unicode="&#x1eb7;" horiz-adv-x="1014" d="M688 0q2 73 4 102.5t10 68.5q-71 -83 -172 -137.5t-213 -54.5q-136 0 -203.5 84t-39.5 219q30 157 162 240.5t337 83.5h215l26 131q25 121 -28.5 182t-175.5 61q-106 0 -196.5 -62.5t-106.5 -150.5l-103 1l-2 6q19 128 141.5 217t290.5 89q154 0 240 -90.5t54 -254.5 l-104 -521q-13 -59 -17 -110t0 -104h-119zM351 83q108 0 212.5 60t162.5 150l44 222h-217q-137 0 -242.5 -69t-125.5 -168q-18 -92 25 -143.5t141 -51.5zM964 1502l2 -6q-14 -114 -94.5 -180.5t-202.5 -66.5q-118 0 -179.5 69.5t-39.5 178.5l2 5h89q-13 -78 20 -123t121 -45 q81 0 132 47.5t63 120.5h87zM390 -309h-141l34 165h141z" />
<glyph unicode="&#x1eb8;" horiz-adv-x="1085" d="M983 691h-637l-119 -592h730l-19 -99h-843l285 1427h838l-19 -100h-727l-106 -536h637zM497 -299h-141l34 165h141z" />
<glyph unicode="&#x1eb9;" horiz-adv-x="973" d="M449 -21q-179 0 -282 148t-67 372l9 54q37 236 181.5 381.5t319.5 145.5t262 -124.5t55 -328.5l-16 -100h-693l-4 -28q-30 -186 38 -303.5t213 -117.5q97 0 175.5 31t138.5 87l35 -80q-65 -63 -156.5 -100t-208.5 -37zM594 980q-115 0 -213.5 -100t-136.5 -248l2 -6h568 l5 30q23 144 -36 234t-189 90zM460 -307h-141l34 165h141z" />
<glyph unicode="&#x1eba;" horiz-adv-x="1085" d="M983 691h-637l-119 -592h730l-19 -99h-843l285 1427h838l-19 -100h-727l-106 -536h637zM760 1552l25 123q85 7 122.5 25.5t46.5 66.5q10 47 -40 70t-122 23l21 75q128 0 189.5 -43.5t44.5 -125.5q-13 -73 -65 -109.5t-125 -43.5l-12 -61h-85z" />
<glyph unicode="&#x1ebb;" horiz-adv-x="973" d="M449 -21q-179 0 -282 148t-67 372l9 54q37 236 181.5 381.5t319.5 145.5t262 -124.5t55 -328.5l-16 -100h-693l-4 -28q-30 -186 38 -303.5t213 -117.5q97 0 175.5 31t138.5 87l35 -80q-65 -63 -156.5 -100t-208.5 -37zM594 980q-115 0 -213.5 -100t-136.5 -248l2 -6h568 l5 30q23 144 -36 234t-189 90zM605 1237l25 123q85 7 122.5 25.5t46.5 66.5q10 47 -40 70t-122 23l21 75q128 0 189.5 -43.5t44.5 -125.5q-13 -73 -65 -109.5t-125 -43.5l-12 -61h-85z" />
<glyph unicode="&#x1ebc;" horiz-adv-x="1085" d="M983 691h-637l-119 -592h730l-19 -99h-843l285 1427h838l-19 -100h-727l-106 -536h637zM1132 1785q-14 -89 -73 -144.5t-136 -55.5q-62 0 -125.5 54t-113.5 54q-41 0 -76 -34.5t-43 -86.5l-72 17q14 89 72 144t134 55q56 0 123.5 -53.5t116.5 -53.5q40 0 76.5 35t45.5 89 z" />
<glyph unicode="&#x1ebd;" horiz-adv-x="973" d="M449 -21q-179 0 -282 148t-67 372l9 54q37 236 181.5 381.5t319.5 145.5t262 -124.5t55 -328.5l-16 -100h-693l-4 -28q-30 -186 38 -303.5t213 -117.5q97 0 175.5 31t138.5 87l35 -80q-65 -63 -156.5 -100t-208.5 -37zM594 980q-115 0 -213.5 -100t-136.5 -248l2 -6h568 l5 30q23 144 -36 234t-189 90zM977 1471q-14 -89 -73 -144.5t-136 -55.5q-62 0 -125.5 54t-113.5 54q-41 0 -76 -34.5t-43 -86.5l-72 17q14 89 72 144t134 55q56 0 123.5 -53.5t116.5 -53.5q40 0 76.5 35t45.5 89z" />
<glyph unicode="&#x1ebe;" horiz-adv-x="1085" d="M983 691h-637l-119 -592h730l-19 -99h-843l285 1427h838l-19 -100h-727l-106 -536h637zM789 1790h109l193 -232l-2 -5h-125l-134 169l-204 -169h-123l-2 6zM1247 1926h122l3 -6l-208 -220h-96z" />
</font>
</defs>
</svg>
